<?xml version="1.0" encoding="UTF-8" standalone="no"?>
<svg width="68px" height="20px" viewBox="0 0 68 20" version="1.1" xmlns="http://www.w3.org/2000/svg" xmlns:xlink="http://www.w3.org/1999/xlink">
    <!-- Generator: Sketch 3.6.1 (26313) - http://www.bohemiancoding.com/sketch -->
    <title>Shape</title>
    <desc>Created with Sketch.</desc>
    <defs></defs>
    <g id="Page-1" stroke="none" stroke-width="1" fill="none" fill-rule="evenodd">
        <path d="M9.018,19.982 L39.844,19.982 L42.072,19.02 L45.89,16 L46.049,11.196 L43.197,10.294 L42.899,9.865 L41.908,9.865 L41.644,10.162 L38.968,10.195 L38.935,9.832 L33.07,9.816 L33.087,9.538 L37.217,9.511 L37.151,8.98 L54.923,8.87 L54.923,9.529 L59.146,9.529 L59.146,8.711 L67.02,8.79 L67.02,7.089 L58.97,7.089 L58.97,6.298 L54.879,6.298 L54.879,7.001 L37.019,7.001 L36.139,6.076 L33.984,5.937 L31.388,5.648 L31.213,4.989 L30.025,4.989 L29.937,5.429 L28.881,5.385 L28.969,4.901 L26.154,4.901 L26.022,4.677 L31.916,4.677 L31.96,3.011 L27.033,2.527 L26.726,0.418 L26.198,0.769 L25.846,2.527 L25.01,2.659 L24.834,1.604 L21.931,1.736 L21.667,2.22 L21.007,2.22 L20.919,1.56 L18.983,1.516 L17.048,2.22 L15.904,3.275 L15.728,4.198 L13.924,3.934 L11.549,0.989 L11.065,0.989 L10.273,3.231 L10.141,4.769 L9.217,5.56 L9.217,8.418 L8.25,8.901 L15.86,8.901 L15.86,9.385 L3.939,9.385 L3.015,10 L2.311,12.242 L0.903,14.132 L0.947,14.879 L2.091,15.934 L4.027,17.912 L6.006,19.011 L9.018,19.982 L9.018,19.982 Z" id="Shape" fill="#FAB81B"></path>
    </g>
</svg>