<?xml version="1.0" encoding="utf-8"?>
<!-- Generator: Adobe Illustrator 25.3.1, SVG Export Plug-In . SVG Version: 6.00 Build 0)  -->
<svg version="1.1" id="Layer_1" xmlns:sketch="http://www.bohemiancoding.com/sketch/ns"
	 xmlns="http://www.w3.org/2000/svg" xmlns:xlink="http://www.w3.org/1999/xlink" x="0px" y="0px" width="50px" height="14.2px"
	 viewBox="0 0 50 14.2" style="enable-background:new 0 0 50 14.2;" xml:space="preserve">
<style type="text/css">
	.st0{display:none;}
	.st1{display:inline;}
	.st2{fill-rule:evenodd;clip-rule:evenodd;fill:#8C8C7C;}
	.st3{fill-rule:evenodd;clip-rule:evenodd;fill:#FAB81B;}
</style>
<desc>Created with Sketch.</desc>
<g id="Page-1" sketch:type="MSPage" class="st0">
	<g id="KV-1s" sketch:type="MSLayerGroup" class="st1">
		<path id="path-1" sketch:type="MSShapeGroup" class="st2" d="M13.4,0.2h0.2l0.3-0.8h0.6v-0.5h1.1l0.3,0.3v0.3h1v-0.2L17-0.9h2.7
			l0.2,0.1v0.2h0.3v-0.3L20.3-1H21l0.1,0.1v0.4H23v-0.7l0.1-0.5c0,0,0.1-0.1,0.3-0.1c0.2,0,0.3,0.1,0.3,0.1l0.1,0.4V-1h0.8l0.1,0.2
			H25v0.2h0.6L26-0.3h0.9l0.4,0.2l0.4,0.3h1.6l0.2,0.2l0.2,0.8h9.6v1h-9.4V3h-1.8l-0.6,0.6l-0.1-0.2l-0.5,0.3L27,4.2h-0.8v0.5h1.5
			L28,4.3h2.3l0.3-0.2h0.9v0.4l0.6,0.6l0.5,0.2V5.2L32.7,5H33v0.8l2.5,0.1L36.2,6L37,6.4L36.6,7c0,0,0.6,0.3,0.7,0.5
			c0.2,0.2,0.4,0.5,0.5,0.7c0.1,0.2,0.1,0.7,0.1,0.9c0,0.2-0.1,0.6-0.2,0.8c-0.1,0.2-0.3,0.5-0.4,0.6c-0.1,0.1-0.6,0.4-0.6,0.4
			l-3.1,1.9c0,0-0.6,0.4-0.9,0.6c-0.3,0.1-0.9,0.3-0.9,0.3H6.3l-4.2-1.8c0,0-0.5-0.3-0.8-0.6c-0.3-0.2-0.4-0.4-0.4-0.4
			s-0.2-0.3-0.3-0.7C0.5,9.9,0.5,9.6,0.5,9.6H0.2c0,0-0.2,0-0.2-0.1V9.2c0.1-0.1,0.2-0.1,0.2-0.1h0.4l0.1-0.6l0.2-0.3V7.4h0.7V7.1
			l-1-0.5V5.9c0.1-0.2,0.1-0.4,0.3-0.7s0.7-0.5,0.7-0.5h2.3l0.2-0.3h2.6l0.1,0.2h2.1V4.3L8.8,4.1V3.8h0.6l0.1,0.1v0.6h0.3V4.1h1.7
			L12,3.8c0,0,0.4-0.2,1-0.2s1.1,0.2,1.1,0.2l0.3,0.4h1.5v0.3h1.5V4h-0.9l0.3-1h-3.9l0.2-1.1l-0.4-0.2l-0.2-0.3h-0.7V1.2h-1.3V0.9h2
			c0,0,0,0,0.2-0.3c0.4-0.1,0.7-0.1,0.7-0.1V0.2z"/>
	</g>
</g>
<g class="st0">
	<g class="st1">
		<path class="st3" d="M39.2,1.9V1.3c-1.7,0-3.4,0-5.2,0h-1.3c-0.2,0-0.4,0-0.5,0h-1.9c-0.1-0.1-0.2-0.5-0.4-0.6
			c-0.2-0.1-0.5,0-0.7,0c-0.4-0.1-0.7-0.4-1.1-0.4V0c-0.5,0-1.1,0-1.3,0.2c-0.1-0.1-0.2,0-0.3,0c0,0-0.2-0.1-0.2-0.1h-0.3
			C25.8,0,25.7,0,25.5,0c0-0.1,0.1-0.2,0.1-0.2v0c-0.3-0.1-0.5,0-0.9,0c0-0.3-0.1-0.8-0.4-0.9c-0.1,0-0.2,0-0.2,0
			c-0.3,0.1-0.4,0.7-0.4,1c-0.3,0-0.7-0.1-1-0.1v-0.3c-0.2,0-0.5,0-0.6,0v-0.2h-0.2c0-0.1,0-0.1-0.1-0.2c0,0,0,0,0.1,0V-1
			c0,0-0.1-0.1-0.1-0.1h-0.2c0,0,0,0,0-0.1c-0.1,0-0.2,0.1-0.4,0.1c0,0,0,0,0-0.1h-1.3l-0.1,0.1c-0.2,0.1-0.4,0-0.4-0.1
			c-0.5,0-0.7,0-1,0.1c0,0.2-0.1,0.4-0.1,0.6c-0.2,0-0.3,0-0.4-0.1c-0.2-0.1-2.2,0-3-0.1c-0.3,0-1.1-0.1-1.3,0c0,0-0.1,0-0.1,0.1
			c0,0.2,0,0.3,0,0.5H13c0,0.1,0,0.2,0,0.2h-0.1v0.1H13c0,0.5-0.2,0.9-0.1,1.4h-0.2c0.1,0.2,0.2,0.1,0.1,0.3c0.1,0,0.2,0.1,0.4,0.1
			c0,0.2-0.2,0.6,0,0.7c0,0.6,1.1,0.5,1.8,0.4c-0.1,0.1-0.5,0.1-0.7,0.1c-0.6,0-1.9,0-1.9,0v0.4L11,3.9V3.4c0,0-2,0.1-2.8-0.1
			C8.1,3.3,8,3.4,7.9,3.4H5.4v1c-0.1,0,0,0-0.1,0.1c-1,0.1-1.9,0.3-2.9,0.4V5c0.1,0,0.1,0,0.2,0v0.1C1.8,5.2,1,6.9,0.8,7
			c0,0.1,0.7,0.3,0.9,0.3v0.4C1.6,7.9,1.5,8,1.5,8.3c-0.1,0-0.2,0.1-0.3,0c-0.1,0-0.1,0-0.1,0c0,0,0,0,0,0.1c0.1,0,0.2,0,0.3,0
			l0,0.3c-0.1,0-0.1,0-0.1,0C1.1,8.8,1,9,1.1,9.2c0,0,0.1,0,0.1,0.1c0,0.1,0,0.1,0,0.1c0,0.3,0,0.7,0.1,0.9c0.2,0,0.2-0.1,0.2-0.3h0
			c0.1,0.3,0.3,0.5,0.4,0.7c0.3,0.4,0.7,0.7,1.2,0.9c0.1,0.1,1.7,0.8,2.3,1.2c0.5,0.3,1,0.6,1.6,0.7c0.5,0,1,0,1.5,0h22.8
			c0.7,0,1.7,0.1,2.2-0.1c0.1,0,0.5-0.2,0.6-0.3c0.1-0.1,3-2.5,3.1-2.6c0.1,0.1,0,0.2,0.1,0.3c0.1,0.1,0.4,0.3,0.5,0.1
			c0.3-0.1,0.5-1.4,0.3-1.8c0.1-0.1,0.2-0.2,0.3-0.2V8.1c-0.1-0.2-0.2-0.4-0.2-0.6l0-0.2c0,0-0.1-0.1-0.1-0.1
			c-0.1-0.2,0-0.4-0.1-0.6c0,0-0.1-0.1-0.1-0.1c0-0.1,0-0.1-0.1-0.2c0,0-0.1,0-0.1-0.1c0-0.1,0-0.1,0-0.1c-0.1-0.1-0.3-0.1-0.4-0.2
			c0,0,0,0,0-0.1c0,0-0.1,0-0.1,0c0,0,0,0,0-0.1c0,0-0.1,0-0.1,0c-0.1,0-0.2-0.1-0.3-0.1c-0.2-0.1-0.5-0.1-0.7-0.1
			c-0.2-0.1-0.9,0-1-0.1h-0.6c0-0.1,0.1-0.3,0.1-0.4V4.7h0c0,0.2-0.1,0.4-0.2,0.5c-0.2,0-0.3,0-0.4-0.1V4.9l-0.3,0
			c-0.1,0-0.4-0.2-0.5-0.3c-0.2-0.1-0.4-0.2-0.5-0.3h-0.1c-0.1-0.1-0.1-0.2-0.2-0.3h-0.4c0.1,0,0-0.1,0-0.1c-0.2-0.1-0.7,0-1,0h-2.8
			c0.1-0.1,0.2,0,0.3,0c0.2-0.1,0.3-0.2,0.5-0.3c0.2-0.1,0.4-0.1,0.6-0.1h0.8c0.1-0.1,0.2-0.2,0.3-0.3V3c0-0.1,0.2,0,0.2-0.1
			l0.1-0.1c0,0,0,0,0-0.1c0,0,0.1,0,0.1-0.1c0-0.1-0.1-0.4-0.1-0.4h-0.1V2C33.4,2,36.4,1.9,39.2,1.9z M13.2,1.5
			c-0.1,0-0.2,0-0.3-0.1c-0.1-0.1,0-0.6,0.1-0.7h0.3C13.2,0.9,13.2,1.2,13.2,1.5z M3.3,5L3.3,5L3.3,5C3.1,5.1,3.1,5.1,3,5.1
			C3,5.1,3,5,2.9,5.1H2.8V5c0.1,0,0.3-0.1,0.5-0.1V5z M3.5,5c0,0-0.1,0-0.1,0c0-0.1,0-0.1,0.1-0.1V5z M5.4,4.8
			c-0.3,0-0.5,0.1-0.7,0.1c-0.1,0-0.2,0-0.4,0v0.1C4.1,5,3.8,5,3.5,5V4.9c0.6-0.1,1.3-0.2,1.9-0.3V4.8z M15,3.4h0.2
			C15.1,3.4,15,3.4,15,3.4z M15.3,3.4c0.5,0,1,0,1.5,0C16.7,3.5,15.4,3.4,15.3,3.4z M25.3-0.2L25.3-0.2L25.3-0.2c0,0,0-0.1,0-0.1
			C25.4-0.3,25.3-0.3,25.3-0.2z M38.2,8.6c0,0.1,0,0.1,0,0.1v0h0c0-0.2,0-0.4,0-0.6C38.2,8.3,38.1,8.5,38.2,8.6z M38,10.1
			c0,0.2-0.1,0.5-0.2,0.6v0c-0.1-0.1-0.1-0.3-0.2-0.4c0-0.2,0.1-0.2,0.1-0.3L38,10.1z M37.1,6.8c0.1-0.1,0.3-0.4,0.3-0.5
			c0.3,0.2,0.2,0.6,0.4,0.8c0,0.1,0,0.2-0.1,0.3c0,0,0,0,0,0C37.6,7.2,37.3,6.9,37.1,6.8L37.1,6.8z M35.3,5.5
			c-0.1,0.1-0.8,0.1-0.9,0C34.8,5.4,35.1,5.4,35.3,5.5z M33.7,5.4c0.1,0,0.2,0,0.3,0C33.9,5.5,33.8,5.5,33.7,5.4L33.7,5.4z M33,5
			c-0.1,0.1-0.3,0-0.4,0c0,0,0-0.1,0-0.1C32.7,4.8,32.8,4.9,33,5z M30.6,4.2L30.6,4.2c-0.3,0-1.1,0.1-1.2,0
			C29.9,4.2,30.2,4.2,30.6,4.2z"/>
	</g>
</g>
<g>
	<g>
		<path class="st3" d="M49.2,4.2h-1.8c-0.3,0.1-0.6,0.2-1,0.2V4.2c-0.1,0.1-0.1,0-0.1,0.1c-0.1,0-0.2,0.1-0.3,0.1h-0.5v0.1h-2.6
			c-0.6-0.3-1.8-0.2-2.7-0.2h-1c0,0-0.1,0.1-0.1,0.1h-0.3v0.1h-4.2c-3.4-0.1-6.8-0.1-10.2-0.2V4.2c-0.5,0-1,0-1.5,0h-0.5V4.1
			c-0.1,0-0.1,0-0.1,0c-0.3,0-0.3-0.3-0.5-0.5c-0.2-0.1-0.4-0.1-0.6-0.1c-0.2-0.1-0.4-0.1-0.6-0.2c-0.1,0-0.3,0-0.4,0
			c0,0-0.1,0-0.1,0v0.1c-0.1-0.1-0.4,0-0.5,0c-0.2,0-0.6-0.1-0.7-0.1c0,0,0-0.1,0-0.1h-0.3c-0.4,0-0.9,0.1-1-0.2h-0.2v0.1
			c-0.1,0-0.1,0-0.1,0c-0.3,0-0.2-0.1-0.4-0.3c-0.1-0.1-0.2,0-0.3,0c0,0,0.1,0,0.2,0v-2c-0.3,0-0.5,0-0.8,0v0.1c-0.1,0-0.1,0-0.2,0
			c0,0.1-0.1,0.1-0.1,0.2c0,0-0.1,0-0.1,0v0.2c-0.1,0.2-0.3,0.4-0.2,0.7L15.7,2c0.1,0.3-0.1,0.3-0.2,0.4l0,0v0.3h-0.1
			c0,0.1,0,0.1,0,0.2c0,0,0,0,0,0h-0.7V2.9C14.6,3,14.7,3,14.5,3V2.9c0,0,0,0.1,0,0.2h-0.1V2.8h-0.2c0.1-0.1,0-0.1,0.1-0.1V2.6H14
			c0-0.1,0-0.1,0-0.2h-0.1c0-0.2,0-0.3,0-0.5c-0.4,0-0.6,0.1-0.8,0.3c0-0.1,0-0.1,0-0.3c0,0.1,0,0.2,0,0.3c-0.1,0-0.2,0-0.2,0h-0.1
			V2.3h-0.8c-0.1,0-0.2,0.2-0.4,0.1c0,0,0-0.1,0-0.1h-0.8v0.3c-0.1,0-0.3-0.2-0.3-0.3h-0.1v0.4H9.9c0.1,0.1,0,0.1,0.1,0.1
			C10,2.9,10,2.8,9.9,2.8V3H9.2V2.8c-0.5,0-1,0-1.5,0V2.6H7.2v0.1c-0.1-0.1-0.1,0-0.1-0.1H6.8v0.2c-0.9,0-1.7,0-2.5,0V3H4.1
			c0,0.1-0.1,0.2-0.2,0.3v0h0v0c0,0,0-0.1,0.1-0.2V3H2.3c0,0.2-0.1,0.3-0.2,0.4c-0.1,0,0,0-0.1,0C2,3.6,1.9,3.7,1.8,3.8
			c0.1,0.1,0,0,0.1,0c0,0.2-0.3,0.9-0.5,1v0.1h1.3v0C2.7,5,2.7,5.1,2.6,5.1c-0.1,0-0.2-0.1-0.3,0c0,0.1,0,0.1,0,0.2
			c-0.1,0-0.3,0-0.4,0c-0.1,0-0.2,0-0.4,0c0,0,0,0,0.1,0c-0.1,0.1-0.2,0-0.3,0.1C1.1,5.5,0.8,5.8,0.7,6c-0.2,0.2-0.1,0.6,0,0.9
			C0.7,7,0.8,7.1,0.9,7.2C1,7.4,1.2,7.5,1.4,7.5c0.1,0,0.4,0.1,0.5,0h0.1C2.1,7.6,2,7.6,2,7.6c0,0.1,0,0.1,0.1,0.2
			c0,0.1,0,0.1,0,0.2H2c0,0.1,0.2,0.5,0.2,0.5c0,0,0,0.1,0,0.2h0.1c0-0.1,0-0.1,0-0.2c0.1,0,0.1-0.1,0.2-0.1c0,0,0,0-0.1,0
			c0,0,0.1,0,0.1,0v0.1l0,0c0,0,0.1,0,0.1,0h0c0,0,0.1,0.1,0.1,0.1C2.5,8.9,2.3,8.9,2.1,9.1h0c0,0,0.1,0,0.1,0
			c0.2,0.1,0.4,0.4,0.7,0.5c0,0.2-0.1,0.5,0,0.8c0.3,0.9,0.8,0.9,1.5,1.3c0.3,0.2,2.9,1.6,3.7,1.8c0.6,0,1.2,0,1.8,0H31
			c0.9,0,1.9,0.1,2.6-0.2c1.1-0.5,4-2.1,4.3-2.6c0.2-0.3,0.2-0.8,0.1-1.2c0.2-0.1,0.4-0.1,0.7-0.2c0.2,0,0.3,0,0.3,0l0,1l0.2,0.1
			l0.1,0l-0.2-1c0,0-0.1-0.3-0.2-0.3c0,0-0.1,0-0.1,0V8.9c0,0-0.1-0.1-0.1-0.1V8.7c-0.1-0.1-0.2-0.2-0.3-0.3
			c-0.1-0.1-0.1-0.2-0.2-0.3c0-0.1,0-0.2,0-0.2l0,0C38,8.1,38,8.2,37.8,8.1c-0.1,0-0.4-0.1-0.5-0.2h-0.2c-0.2-0.1-0.1-0.3-0.4-0.2
			c0-0.2,0.1-0.2,0.2-0.3c0-0.3-0.2-0.4-0.3-0.6h-0.3c-0.1,0-0.2,0.2-0.2,0.2c-0.2,0.2-1-0.2-1.2,0h-0.1c0-0.2,0.1-0.3,0.1-0.5h0
			c0,0,0,0-0.1,0c-0.1,0.2,0,0.3-0.3,0.3c0,0.1,0.1,0.1,0.1,0.2h-0.4c0,0,0-0.1,0-0.1c-0.1,0-0.1,0.1-0.2,0.1h-0.6
			c0-0.5,0-1.4,0-1.4l3.9,0c0,0,1.7-0.1,2.1,0.1c0,0,0.1,0.1,0.1,0.1h1c0.9,0,2.1,0.1,2.7-0.2h2.6v0.1h0.5c0.1,0,0.1,0.1,0.3,0.1
			v0.1c0.1-0.1,0.1,0,0.1-0.1c0.3,0,0.8,0,1,0.2c0.5,0,1.5,0.1,1.8-0.1c0-0.1,0.1-0.2,0.1-0.3V4.6C49.4,4.5,49.3,4.3,49.2,4.2z
			 M2.2,8.7L2.2,8.7C2.2,8.7,2.2,8.6,2.2,8.7L2.2,8.7z M2.3,5.5c-0.1,0-0.2-0.1-0.3-0.1c0,0,0.1-0.1,0.2-0.1c0.1,0,0.2,0,0.3,0
			C2.3,5.4,2.3,5.3,2.3,5.5z M2.4,5.4L2.4,5.4C2.4,5.3,2.6,5.3,2.4,5.4L2.4,5.4z M2.6,7.2c-0.1,0-0.1,0.1-0.2,0.1
			C2.5,7.2,2.5,7.2,2.6,7.2L2.6,7.2L2.6,7.2z M3.4,4.1c0.2,0.1-0.1,0.4-0.3,0.5h0C3.2,4.4,3.3,4.3,3.4,4.1z M3.3,7.9
			c0,0,0-0.1,0-0.1C3.1,7.7,3,7.6,2.9,7.4H2.8v0c0.1,0,0.2-0.1,0.3,0c0.2,0,0.1,0.1,0.3,0c0.1,0.1,0.1,0.3,0.1,0.5H3.3z M3.6,4
			L3.6,4L3.6,4L3.6,4c-0.1-0.1,0-0.1,0-0.3C3.7,3.8,3.6,3.8,3.6,4z M5.2,3H4.5V2.9L5.2,3L5.2,3z M6.6,3H5.8V2.9L6.6,3L6.6,3z
			 M6.8,2.8C6.9,2.8,6.9,2.8,6.8,2.8C6.8,2.8,6.9,2.8,6.8,2.8z M7.4,2.8C7.5,2.8,7.5,2.8,7.4,2.8C7.4,2.8,7.5,2.8,7.4,2.8z M7.7,3
			L7.7,3l0.9-0.1C8.5,3.1,7.9,3,7.7,3z M15.9,2.6c0-0.1,0-0.1,0-0.2C16,2.5,15.9,2.5,15.9,2.6L15.9,2.6z M36.4,7.1v0.1
			C36.3,7.2,36.3,7.3,36.4,7.1L36.4,7.1z M28.1,5.6h0.1C28.2,5.7,28.2,5.7,28.1,5.6z M28.6,5.7c-0.1,0.1,0-0.1-0.1,0
			c0,0,0,0.1,0,0.1V5.7h-0.1v0C28.5,5.6,28.5,5.7,28.6,5.7C28.6,5.7,28.6,5.6,28.6,5.7z M29.3,5.9L29.3,5.9c-0.2,0-0.5-0.1-0.7-0.1
			c0-0.1,0.1-0.1,0.1-0.2c0.2,0,0.4,0.1,0.6,0.1C29.3,5.9,29.3,5.9,29.3,5.9z M30.9,6.3c-0.1,0-0.1,0-0.2,0V6.2c-0.1,0-0.1,0-0.2,0
			v0.1c-0.1,0-0.2-0.1-0.3-0.1c0-0.1,0-0.1,0-0.2C30,6,30,5.9,30,5.9c-0.2-0.1,0,0.1-0.2,0c0,0-0.1,0-0.2,0V6c-0.1,0,0,0-0.1,0
			c0.1,0,0,0,0,0c-0.1,0-0.1,0-0.2,0c0-0.1,0-0.1,0-0.1c0-0.2-0.1-0.2-0.3-0.2c0.1-0.1,0.4,0,0.6,0c0.5,0,1.1,0,1.5,0
			c0,0.3-0.2,0.5-0.3,0.8C30.9,6.4,31,6.3,30.9,6.3z M31.9,6.4L31.9,6.4c-0.1,0-0.2-0.1-0.3-0.1c-0.1,0-0.2,0-0.3,0h-0.1
			c0-0.3,0.2-0.4,0.2-0.7h0v0h0.2c0,0.1-0.1,0.4,0,0.5v0.3h0c0-0.1,0-0.1,0-0.3c0,0,0,0.1,0,0.2h0.1V6.4C31.9,6.4,31.9,6.4,31.9,6.4
			z M33.2,6.9c-0.1,0-0.2-0.1-0.3-0.1c0,0,0-0.1,0-0.1c-0.2-0.1-0.5,0-0.7-0.2h-0.1c0,0,0,0,0,0c0.1-0.2,0.2-0.1,0.3-0.2
			c0.1-0.1,0.2-0.3,0.2-0.5c0.2,0,0.5,0,0.5,0S33.2,6.6,33.2,6.9z M47.7,5.5c-0.1,0-0.4,0-0.5-0.1c-0.2,0-0.2-0.1-0.3-0.1
			c0-0.3,0-0.5,0.1-0.7c0.2,0,0.4,0,0.5-0.1c0,0,0.1,0,0.1,0C47.8,4.8,47.8,5.3,47.7,5.5z M48.9,5.4L48.9,5.4
			c-0.2,0.1-0.5,0.1-0.7,0c-0.1-0.3-0.1-0.6,0-0.8h0.7C48.9,4.8,49,5.2,48.9,5.4z"/>
	</g>
</g>
</svg>
