<?xml version="1.0" encoding="UTF-8"?>
<!-- Generator: Adobe Illustrator 24.0.0, SVG Export Plug-In . SVG Version: 6.00 Build 0)  -->
<svg version="1.1" id="Слой_1" xmlns="http://www.w3.org/2000/svg" xmlns:xlink="http://www.w3.org/1999/xlink" x="0px" y="0px" width="67px" height="24px" viewBox="0 0 67 24" style="enable-background:new 0 0 67 24;" xml:space="preserve">
<style type="text/css">
	.st0{fill-rule:evenodd;clip-rule:evenodd;fill:#FAB81B;}
</style>
<path class="st0" d="M16,13.7L3.7,14l-2.5-0.4v0.3l1.9,0.6l0,0.7c0,0-0.9,0.7-1.1,0.9c-0.2,0.2-0.5,0.8-0.5,0.8l0.8,0.1  c0,0-0.5,0.6-0.3,1.4c0.4,1.3,4.6,3.2,4.6,3.2c1.5,0.8,3.4,1.4,5,1.4H41c0,0,4.8-2,5.9-3.3c0.2-0.2,0.5-1.2,0.5-1.2l0.9-0.4L48,17.1  c0-0.7-0.5-1.2-1.1-1.3l-2.2-0.2l0-0.8c0,0-0.6-0.1-0.8,0c-0.2,0.1-0.5,0.5-0.5,0.5l-1.8-0.8L39.7,14H34c0,0-0.1-0.5,0.1-0.5  c1,0,3.4-1,3.4-1L38,12h28v-1H38c0,0-0.3-0.6-0.5-0.7C34.5,9,27,8,27,8h-1V6.2c0,0-0.9-0.1-1,0.8c-0.1,0.8,0.6,1,0.6,1h-3.4L22,0.3  V8l-0.6,0.1l-0.5,0.5c0,0-7.3,0.5-9.6,0.7C10,9.3,10,10,10,10v2.2c0,0.5,0.4,0.8,0.8,0.8H16L16,13.7z"/>
</svg>