<!DOCTYPE svg PUBLIC "-//W3C//DTD SVG 1.1//EN" "http://www.w3.org/Graphics/SVG/1.1/DTD/svg11.dtd">
<svg xmlns="http://www.w3.org/2000/svg" xmlns:xlink="http://www.w3.org/1999/xlink" version="1.1" id="Layer_1" x="0px" y="0px" width="54" height="19" viewBox="0 0 54 19" enable-background="new 0 0 54 19" xml:space="preserve">
<style type="text/css">
      #path-1 {
        fill: #fab81b;
     }
    </style>

<path id="path-1" d="M19.9,0c0.1,0,0.3,0,0.4,0c0,0.2,0-0.1,0,0.1c0.3,0.2,0.3,0.3,0.8,0.3c0-0.1,0-0.1,0-0.2c0.1,0,0.2,0,0.3,0  c0-0.2,0,0.1,0-0.1c0.2,0,0.4,0,0.5,0c0,0.2,0-0.1,0,0.1c0.1,0,0.1,0,0.2,0c0,0,0,0.1,0,0.1c0.5,0,1.2-0.4,1.5-0.3  c0.1,0,0.3,0.1,0.5,0.1c0,0.1,0,0.2,0.1,0.3c0-0.1,0-0.2,0-0.3c0.3,0,0.6,0,0.9,0c0,0.1,0,0,0,0.1c1.9,0,4.3,0,5.9,0  c0,0.1,0,0.4,0,0.5c-0.8,0.1-1.7,0-2.8,0c-1.1,0-2,0.1-3.1,0.1c0,0.1,0,0.1,0,0.2c-0.1,0-0.2,0.1-0.2,0.2c-0.1,0-0.3,0-0.4,0  C24.4,1.4,24.2,1.9,24,2c0,0,0,0,0,0c0.1,0,0.2,0,0.3,0c0,0.2,0,0.7,0,0.9c0.3,0,0.6,0,0.9,0c0-0.1,0-0.5,0-0.6c0.2,0,0.7,0,0.9,0  c0,0.2,0,0.3,0,0.5c1,0,1.6,0.4,2.4,0.7c0.4,0.2,0.6,0.5,1.2,0.5c0-0.4,0-0.7,0.1-1c0,0,0,0,0,0c0.1,0.1,0.2,0,0.3,0.1  c0.1,0.1,0.1,0.2,0.3,0.3c0-0.1,0-0.3,0-0.4c0,0-0.1,0-0.1,0c0-0.1,0-0.1,0-0.2c0,0,0.1,0,0.1,0c0.2-0.2,0.7-0.1,0.9,0  c0.1-0.3,0.3-0.3,0.6-0.3c0,0,0,0,0.1,0c0-0.1,0-0.2,0-0.3c0.9,0,2.2,0,3.1,0c0,0.9,0,1,0,2c-0.9,0-2.2,0-3.1,0c0-0.1,0-0.2,0-0.3  c0,0-0.1,0-0.1,0c-0.1,0-0.3,0.5-0.4,0.5c0-0.1,0-0.1,0-0.3c-0.1,0-0.2,0-0.3,0c0,0.3-0.2,0.5-0.3,0.8c0.2,0.1,0.3-0.2,0.6-0.1  c0,0.1,0,0.2,0,0.3c0.4,0,0.8,0,1.1,0c0,0,0,0.1,0,0.1c2.1,0,4.4,0.2,6.3,0c0-0.1,0-0.5,0-0.6c0.9,0,2.2,0,3.1,0c0,0.1,0,0.5,0,0.6  c3.5,0.1,7.4,0.1,11,0.1c0,0.3,0,0.6,0,1c-2.4,0-5.1,0-7.5,0c-1.2,0-2.1,0-3.7,0c-0.9,0-1.9,0-2.8,0c-0.2-0.1-0.7-0.1-1,0  c-0.6,0.1-1.4-0.1-2,0c-0.4,0.1-1-0.1-1.5-0.1c-0.6,0-1.3,0-1.9,0c0,0.1,0,0.1,0,0.2c-0.3,0-0.6,0-0.8,0c0,0.3,0,0.9,0,1.2  c-0.1,0-0.2,0.1-0.2,0.2c-0.3-0.1-0.4-0.4-0.7-0.5c0,0-0.1,0.1-0.1,0.1C31,7.5,31,7.6,31,7.8c-0.1,0-0.1,0-0.2,0c0,0,0,0.1,0,0.1  c0,0,0,0.1,0,0.2c1,0,2.2,0,3.1,0c0.1,0.1,0.1,0.1,0.2,0.3c0.2,0,0.4,0.2,0.5,0.2c0,0,0,0.1,0,0.1c0.3,0,0.4,0.2,0.6,0.3  c0.9,0,1.6,0,2.5,0c0.7,0.2,1.3,0.1,2,0.3c0.1,0.4,0.4,0.3,0.6,0.5c0.4,0.2,0.6,0.6,1,0.9c0,0,0,0,0,0c0,0,0,0,0,0  c-0.1,0.1-0.1,0.2-0.2,0.3c-0.1-0.1-1,0.2-1.2,0.3c0.3,0.4,0.2,1.6,0,2.1c-0.1,0.2-0.4,0.3-0.5,0.5c-0.7,1-2.2,1.7-3.2,2.4  c-0.4,0.3-0.9,0.6-1.3,0.9c-0.2,0.1-0.2,0.2-0.4,0.3C33,18.2,30,18.1,28,18.1c-4.4,0-8.8,0-13.2,0c-1.7,0-3.3,0-5,0  c-0.9,0-1.9,0.1-2.6-0.1c-0.9-0.2-1.6-1-2.1-1.7c-0.4-0.5-1-0.9-1.4-1.5c-0.2-0.3-0.9-1.2-1.3-1.3c-0.2,0.3-0.9,0.4-1.2,0.6  C1.1,14,1,13.9,1,13.8c-0.1-0.4,0.1-0.6,0-0.9c0,0,0.1,0,0.1,0c0,0.1,0,0.1,0,0.1c0.1-0.1,0.3-0.2,0.5-0.3c0,0,0,0,0,0  c-0.4,0-1.2,0-1.5,0c0-0.7,0.1-2.1-0.2-2.6c0.6-0.2,1.2-1,0.9-2.5c0.3,0,0.7-0.2,1-0.3C2.5,7.3,3.2,7.2,3.9,7c0.3,0,0.6,0.1,0.9,0.1  c1-0.2,2.4,0,3.7,0c0.8,0,1.5,0,2.3,0c0.7,0.9,1.5,0.8,2.7,0.8c0.4,0,1.8,0.3,2,0.1c-0.3,0-0.9-0.8-1.1-0.9C13.8,7,13.6,7,13,6.8  C12.6,6.7,12,6.3,11.2,6c-0.1-0.1,0.1-0.2,0.1-0.4C11,5.5,11.1,5.3,11,5c0.2-0.3-0.1-1.5,0-1.9c0.1,0,0.1,0,0.2,0  c0.2,0.1,0.4,0,0.5,0c0,0,0.4,0.1,0.6,0.1c0-0.1,0-0.1,0.1-0.1c0,0,0,0-0.1,0c-0.2-0.2-0.5-0.2-0.5-0.6c0,0,0,0,0-0.1  c0.2,0,0.3,0,0.5,0c0-0.1,0-0.2,0-0.3c-0.1-0.1,0.3,0.4,0.1,0.4c0-0.1,0-0.2,0.1-0.3c0.1,0,0.1-0.2,0.3,0c0.2,0.2,0-0.2,0.2-0.1  c0.1,0.1,0,0.2,0.1,0.3c0.1,0.2,0.4,0.8,0.7,0.8c0.1-0.1,0.7,0,0.8,0c0.7,0.1,1.8,0,2.6,0c0-0.1,0-0.1,0-0.2c-0.2,0-0.9-1.1-1-1.3  c0.5-0.3,0.7-0.3,1.1-0.7c0.1-0.1,0.2-0.1,0.3-0.2c0.1-0.2,0.2-0.5,0.4-0.6c0.3,0,0.6,0,0.9,0C19,0,19.7,0,19.9,0  C19.9-0.1,19.9,0.2,19.9,0z"/>
</svg>