<?xml version="1.0" encoding="UTF-8"?>
<!-- Generator: Adobe Illustrator 22.0.0, SVG Export Plug-In . SVG Version: 6.00 Build 0)  -->
<svg version="1.1" id="Layer_1" xmlns="http://www.w3.org/2000/svg" xmlns:xlink="http://www.w3.org/1999/xlink" x="0px" y="0px" width="71px" height="18.1px" viewBox="0 0 71 18.1" style="enable-background:new 0 0 71 18.1;" xml:space="preserve">
<style type="text/css">
	.st0{fill-rule:evenodd;clip-rule:evenodd;fill:#FAB81B;}
</style>
<path class="st0" d="M1.7,15.2l-0.8,1.1L0,15.4l0-2.5L1.7,11l-1-0.9c0,0,0.1-1,0.2-1C1,9,2.2,8.4,2.2,8.4l1.1,1.5l1.4-0.8L5.5,9  L5,8.1l0-0.9L6.3,8l2.2,0.5l1.2,0.5H12V8.7h2.6c0.1,0.1,0.3,0.4,0.3,0.4H17c0,0-2.2-1.1-2.2-1.2c0-0.1,0.7-1.6,0.7-1.7  c0.1-0.1,2.3-1.1,2.3-1.1L18.6,6L19,5.8c0,0-0.3-0.5-0.3-0.5c0.1,0,0.4-0.1,0.4-0.1l0.2,0.4l1.1-0.7l-1.2-1.6c0,0,0.4-0.2,0.5-0.1  c0.1,0.1,1.6,1.6,1.6,1.6l0.4,0l0.1-0.6h2.8c0,0-0.5-1.6-0.4-1.6S25,2.3,25,2.3l-0.6-0.9L24,1.5l-0.2-0.8l1.1-0.3l0.2,0.7l-0.4,0.2  l0.9,0.8l0.2-0.9l0.7-0.2l0.3,0.8L33.1,0l0.1,0.4l-3.6,1.3l0.1,0.6l-3.9,1.1l0.1,0.7l-0.9,0l0,0.5l0.5,0l0.1,0.6l1.5,0l0-0.5l1.8,0  c0,0-0.1,0.4,0,0.4c0.1,0,0.7,0.1,0.7,0.1L34,5.7l2.9,0.9l0,0.5l3.3,0l0.2-0.7L41,6.7L41,6.3l1.3,0.4l0-0.9l1.2,0.9l-0.2-0.6  l1.4,0.6L44.4,5l1.4,1.5l0.4,0c0,0-0.1-1.5,0-1.5c0.1,0,0.8,1.5,0.9,1.5S47.4,6,47.4,6L48,6.2L48.4,5l0.3,1l0.4,0.3l0.7,0l-0.2-0.5  l0.9,0.5l0.3-1l-0.2-0.5l0.9,0.5c0,0,0.2,1,0.2,1s0.6-0.7,0.6-0.7s0.6,0.9,0.7,0.9c0.1,0,0.5,0,0.5,0l0.7-1.2l0.4-0.3l0,0.7  c0,0,0,0.9,0.1,0.9c0.1,0,0.9-0.2,0.9-0.2l-0.4-0.9c0,0,0.7,0,0.8,0c0.1,0,0.8,1.2,0.9,1.2c0.1,0,0.4,0,0.4,0l-0.4-0.5l0.7,0.1  c0,0,0.5,0.5,0.5,0.5c0.1,0,0.5,0,0.5,0s-0.4-1.4-0.3-1.3c0.1,0,1,1.3,1,1.3l0.3-0.2l0.5,0V6.4h1.7h1.6l1.4-0.6l-1.1-1.6l2.2,1.4  l0.7,0l0-0.5l0.6,0.5l1.3-0.6l0.7,1.1c0,0,0.4,0,0.5,0c0.1,0,0.5-0.3,0.6-0.2c0.1,0,0.9,1,0.9,1l-1.3,0.2L69.6,8L70,8.3  c0,0-0.9,1-1,0.9c-0.1-0.1-2.8-0.1-2.8-0.1L64.8,9l-1.6-0.4H60V8.3l-0.6-0.2L36.6,8.2L33.5,9l-1.3,0v0.3h2L36,9.7l0.8,0L37,9.1l1,0  v1.1c0,0,3.1,1,3.2,1c0.1,0,1.4-0.3,1.4-0.3s1,0.5,1,0.6c0,0.1,0.2,1.1,0.1,1.1c-0.1,0-1-0.2-1-0.2l0.5,0.6l-0.3,0.5l-0.6-0.3  l0.3,0.8l-0.5,1.2l-7.2,3H7.3l-4.9-1.9l-0.6-0.5L1.7,15.2z"/>
</svg>