<?xml version="1.0" encoding="UTF-8"?>
<svg width="53px" height="18px" viewBox="0 0 53 18" version="1.1" xmlns="http://www.w3.org/2000/svg" xmlns:xlink="http://www.w3.org/1999/xlink">
    <!-- Generator: Sketch 47.1 (45422) - http://www.bohemiancoding.com/sketch -->
    <title>GB13_FV215b</title>
    <desc>Created with Sketch.</desc>
    <defs></defs>
    <g id="Page-1" stroke="none" stroke-width="1" fill="none" fill-rule="evenodd">
        <g id="GB13_FV215b" fill-rule="nonzero" fill="#FAB81B">
            <path d="M11,3.3 C10.8,3.3 9.7,3.3 9.6,3.3 C9.6,2.5 9.6,0.8 9.6,0 C9.6,0 9.6,0 9.6,0 C9.6,0.8 9.6,2.5 9.6,3.3 C9.5,3.3 9.5,3.3 9.5,3.4 C8.8,3.1 9.8,2.8 9,2.8 C9,2.6 9,2.3 9,2 C8.5,2 7.4,2 6.9,2 C6.9,2.1 6.9,2.9 6.9,3 C6,3 5.4,3 5,3 C5,3.6 5,3.3 4.9,4 C2.4,3.9 3.2,4 1,4 C1.1,4.7 0.9,6.5 1,7 C1.9,7 3,7 3.9,7 C4.4,7.7 4.5,7.8 4.9,8.5 C6.6,8.5 8.3,8.6 10,8.6 C10,8.6 10,9 10,9 C8.5,9 7,9 5.6,9.2 C5.2,9.3 4.4,9.5 4.1,9.3 C4,9.5 3.5,9.5 3.3,9.5 C3.3,9.6 3.3,9.7 3.3,9.8 C2.9,10 2.1,9.7 2.1,10.2 C2.3,10.2 2.8,10.4 2.9,10.5 C2.7,10.5 2.2,10.3 2,10.3 C2,10.3 2,10.3 2,10.3 C2,10.5 2.4,10.9 2.4,11.1 C2.5,11 2.4,11 2.6,11 C2.6,11 2.6,11.1 2.6,11.1 C2.4,11.2 2.1,11.6 1.9,11.7 C1.9,11.7 1.9,11.8 1.9,11.8 C2.1,12.1 2.6,12.2 2.8,12.5 C0.8,16 4.8,16.5 7,17.4 C8.6,18 12.7,17.9 15.5,17.9 C19.6,17.9 23.6,17.9 27.7,17.9 C29.9,17.9 32,17.9 34.2,17.9 C35.1,17.6 36,17.2 37,16.9 C38.6,16.3 40.3,16.1 41,14.6 C41.1,14.2 41.1,13.8 41.2,13.4 C41.2,13.2 41.1,13 41.1,12.9 C41.2,12.5 41.4,12.5 41.2,11.9 C40.5,11.6 39.6,11 39.2,10.5 C39.1,10.6 39.1,10.6 39,10.6 C39,10.4 38.9,10.4 38.9,10.2 C38.6,10.2 38.6,10.1 38.5,10.2 C38.5,10 38.4,9.9 38.4,9.7 C38.4,9.7 38.4,9.7 38.3,9.7 C38.2,9.8 38.3,9.7 38.2,9.8 C38.2,10.2 38.2,10.3 38,10.6 C38,10.6 37.9,10.6 37.9,10.6 C38,10.5 38,10.5 38,10.4 C37.9,10.3 37.9,10.2 37.6,10.2 C37.6,10.1 37.6,10 37.5,9.8 C37.4,9.8 37.3,9.8 37.2,9.8 C37.2,9.9 37.2,10 37.1,10.2 C36.9,10.2 36.8,10.2 36.7,10.3 C35.8,9.9 35,9.4 34.1,9 C34,9.1 33.7,8.8 33.7,8.9 C32.8,9 33.5,9.1 30,9 C30,8.9 30,9.1 30.1,9 C30.1,9 30.1,9 30.1,9 C30,9 30,9 29.9,9 C29.9,9.1 29.8,8.9 29.8,9 C29.7,9 29.5,9 29.4,9 C29.4,8.9 29.4,9.1 29.4,9.1 C29.1,9.1 28.9,9.1 28.6,9.1 C28.6,9.2 28.6,9.2 28.6,9.3 C28.5,9.4 28.2,9.1 27.9,9.2 C27.8,9.2 27.6,9.3 27.3,9.3 C27.3,9.2 27.3,9.2 27.3,9.1 C27.1,9.1 26.9,9.1 26.6,9.1 C26.6,9.1 26.6,9 26.6,9 C26.7,9 26.7,9.3 26.6,9.2 C26.6,9.2 26.6,9.1 26.6,9.1 C26.6,9.1 26.5,9.1 26.5,9.1 C26.5,9.2 26.5,9.2 26.4,9.3 C26.5,9.4 26.5,9 26.5,9.2 C26.3,9.2 26.2,9.2 26,9.2 C26,9.3 26,9.1 26,9.2 C25.5,9.2 25.2,9.1 24.7,9.2 C24.7,9.1 24.7,9.2 24.7,9.1 C24.4,9.1 24.2,9.1 23.9,9.1 C23.9,9.2 23.9,9.1 23.9,9.1 C23.8,9.1 23.6,9.1 23.5,9.1 C23.5,8.9 23.5,9.1 23.3,9.1 C23.3,9.1 23.3,9.1 23.3,9.1 C23.4,9.2 23.4,9 23.4,9.1 C23,9.2 21.9,9.5 21.4,9.4 C21.6,9.4 21.9,9.4 22.1,9.4 C22.1,9.2 22.1,8.8 22.1,8.6 C23,8.5 23.8,8.2 24.8,8.1 C24.8,7.9 24.8,7.4 24.8,7.3 C29,7.2 34.7,7.4 38.9,7.3 C38.9,7.4 38.9,7.7 38.9,7.8 C40,7.8 40.8,7.8 41.9,7.8 C41.9,7.6 41.9,7.5 41.9,7.3 C45.6,7.3 49.2,7.3 52.9,7.3 C52.9,7 52.9,6.6 52.9,6.3 C49.2,6.3 45.6,6.3 41.9,6.3 C41.9,6.2 41.9,5.8 41.9,5.8 C40.8,5.8 42,5.8 38.9,5.8 C38.9,5.9 38.9,6.2 38.9,6.4 C35,5.9 29.3,6.1 25.1,6 C25.1,5.8 25.1,5.9 25.1,5.7 C24.9,5.7 24.9,5.7 24.7,5.7 C24.7,5.6 24.7,5.4 24.7,5.3 C24.7,5.3 24.7,5.3 24.6,5.3 C24.5,5.3 24.3,5.2 24.2,5.2 C24.2,5.4 24.2,5.3 24.2,5.5 C23.5,5.4 22.9,5.5 22.2,5.5 C22.2,5.4 22.2,5.4 22.1,5.3 C22,5.3 21.9,5.3 21.7,5.3 C21.7,5 21.6,4.8 21.5,4.7 C21.5,3.8 21.5,2.4 21.5,1.5 C21.5,1.5 21.5,1.5 21.5,1.5 C21.5,2.3 21.5,3.8 21.5,4.6 C21.4,4.8 21.3,4.9 21.3,5.2 C19.3,4.9 19.1,4.8 17.1,4.5 C17.1,4.5 17.1,4.4 17,4.4 C17,4.4 17,4.4 17,4.4 C17.2,4.4 15.9,4.2 16,4 C15.5,4.2 15.1,4.2 14.4,4.3 C14.4,4.2 14.4,4.2 14.4,4.1 C14.2,4.1 14,4.1 13.7,4.1 C13.6,4.1 13.8,4.2 13.6,4.2 C13,4.1 13.3,4 12.6,3.9 C12.6,3.6 12.5,3.6 12.4,3.5 C12.4,2.6 12.4,0.8 12.4,0 C12.4,0 12.3,0 12.3,0 C12.3,0.8 12.3,2.6 12.3,3.5 C12.3,3.5 12.3,3.6 12.2,3.6 C12.1,3.6 11.1,3.6 11,3.6 C11,3.5 11,3.4 11,3.3 Z M24.5,5.3 C24.5,5.3 24.6,5.4 24.6,5.4 C24.6,5.4 24.6,5.4 24.6,5.5 C24.4,5.5 24.5,5.6 24.3,5.4 C24.3,5.4 24.3,5.4 24.4,5.4 C24.4,5.4 24.4,5.3 24.5,5.3 Z M29.3,9.1 C29.3,9.1 29.3,8.9 29.3,9 C29.1,8.8 28.9,9.2 28.7,9.3 C28.7,9.3 28.7,9.2 28.7,9.2 C28.9,9.1 29.1,9.1 29.3,9.1 Z M24.8,8.9 C24.8,8.9 24.8,9 24.8,9 C24.8,9 24.7,9 24.7,9 C24.6,8.8 24.3,8.9 24.2,9 C24.2,9 24.2,8.9 24.2,8.9 C24.4,8.9 24.6,8.9 24.8,8.9 Z M39,10.7 C39,10.7 39,10.8 39,10.7 C38.9,10.8 38.8,10.8 38.6,10.8 C38.8,10.7 38.9,10.7 39,10.7 Z M38.6,10.7 C38.6,10.8 38.6,10.8 38.6,10.7 C38.6,10.7 38.6,10.8 38.6,10.7 Z M38.3,10.8 C38.3,10.8 38.2,10.8 38.2,10.8 C38.2,10.8 38.3,10.8 38.3,10.8 Z" id="path-1"></path>
        </g>
    </g>
</svg>