<?xml version="1.0" encoding="UTF-8"?>
<!-- Generator: Adobe Illustrator 25.3.1, SVG Export Plug-In . SVG Version: 6.00 Build 0)  -->
<svg version="1.1" id="Layer_1" xmlns="http://www.w3.org/2000/svg" xmlns:xlink="http://www.w3.org/1999/xlink" x="0px" y="0px" width="62.5px" height="16.3px" viewBox="0 0 62.5 16.3" style="enable-background:new 0 0 62.5 16.3;" xml:space="preserve">
<style type="text/css">
	.st0{display:none;fill-rule:evenodd;clip-rule:evenodd;fill:#FAB81B;}
	.st1{fill-rule:evenodd;clip-rule:evenodd;fill:#FAB81B;}
</style>
<path class="st0" d="M0.4,10.8l0.3-0.4l1.9-0.8L1.8,9.2L1.6,8.5l0.2-0.7l0.7-0.3l1.8,0L4.8,8l0.5,0l0.4-0.5l8.9,0l0.4-1l0.5-0.9  h-0.7l-0.1-0.3l0-0.8c0,0,0.5-0.9,0.6-0.9s1.4,0,1.4,0l0.4,0c0,0,1.4,0,1.4,0c0.1,0,0.2-1,0.2-1s2.8,0,2.8,0c0.1,0,0.2-0.2,0.2-0.2  l0-0.8h1l0-1l1,0l0,0.7h1.1l0.1,0.3l5.8,0v0.4L28,2.1l0,0.4l-4,0l-0.1,0.4l1,0.1l0.4,0.5l1.4,0l2,0.4l0-0.4l0.9,0L30,3.8l0.6,0.6  l1.9,0.1L34.1,5l0.1,0.3l15.3,0.3l0.7-0.1l1.1,0l1-0.3l1.8,0l0.5,0.4l0,0.9l-0.5,0.5l-1.8,0l-0.9-0.3l-1.1,0l-0.7-0.1L34.3,6.8  L34.2,7l-1.6,0.2L31.2,7l0.7,0.1l0,0.3L33.7,8l0-0.5l1,0l0,0.9l1.5-0.1l2.1,1.2l1.5,0.2l1.8,1.3l0,0.7l-1.4,0.1l0,0.8l-0.3,0.8  l-0.5,0.5L33.7,16L6.6,16l-4.3-1.7l-0.8-0.9l-0.1-1.3l0.2-0.6l-1,0L0.4,10.8z"/>
<g>
	<g>
		<path class="st1" d="M56.8,5.5V5.3h-1.4l0,0.1H47c0,0-3.1,0-4.4,0c-0.2,0-0.6,0-0.6,0L41,5.4l-1.3-0.1c0,0-2.3,0-3.4,0V5.1    c-0.2,0-0.2-0.1-0.3-0.1h-0.3c0,0-0.1-0.1-0.1-0.1c-0.4-0.1-0.8,0.1-1.1,0c0,0-0.2,0-0.2,0c0,0,0-0.1,0-0.1c-0.1,0-0.2,0-0.3,0    c-0.3-0.1-0.6-0.2-0.8-0.2h-0.2c-0.3-0.1-0.9-0.4-0.9-0.4s-0.3,0.1-0.4,0.1h-0.2l-0.1,0.1C30.4,4.3,28.7,4,28.7,4s-0.2,0-0.3-0.1    l-0.7-0.7c0-0.1,0-0.2,0-0.2h-0.1c-0.1-0.3-0.1-0.6-0.2-0.9h-0.2V1.9c-0.2,0-0.2-0.1-0.3-0.1c-0.2,0-0.4,0-0.6,0    c0.1,0,0.1,0,0.2,0c-0.1-0.1,0-0.1-0.2-0.1c0.1-0.1,0.5-0.1,0.7,0V1.5c-1.2,0-2.3-0.1-2.8,0.7h-0.3v0.4h-0.4c0,0.1,0,0.3,0,0.4    c-0.1-0.1,0-0.3,0-0.4c-0.1-0.5-0.1-1.3-0.1-1.3h-0.2c0,0,0,0.8,0,1.3c-0.4,0-0.6,0.2-1,0.3c-0.1,0-0.4-0.1-0.5-0.1    c-0.2-0.1-0.6,0-0.7,0c-0.3,0.1-0.8-0.1-0.9,0.1c-0.3-0.1-0.4-0.4-0.5-0.7c0-0.1,0,0,0-0.2c0.1,0,0,0,0,0c0.3,0,0.1,0,0.2,0.2    c0,0.1,0.1,0.1,0.2,0.2c0.4,0,0.5-0.2,0.5-0.5h0.2c0-0.1,0-0.3,0-0.3c0.1,0,0,0,0.1,0V1.3H21C21.1,1,21,1,21.3,0.9    c0-0.4-0.4-0.5-0.8-0.6V0.2c-0.3,0-0.3,0.1-0.5,0.1c-0.2,0.1-0.5,0.1-0.7,0.1c-0.3,0.1-0.8,0.3-1.1,0.4c-0.2,0-0.5,0-0.7,0    c-0.4,0-1,0.1-1,0.1l0.1,0.2c0,0-1.4,0.2-2,0.2c-1.6,0-3.6,0-5.1,0c0,0.1,0,0.3,0,0.3l0.7,0l2.6,0c0,0,0.8,0,1.2,0    c0.1,0,0.1,0.1,0.2,0c0.4-0.1,1.1,0,1.6,0h0.6l0.1,0v0.1h0.6c-0.1,0-0.1,0-0.2,0V2h-1.3V2h-0.8v0.2h0.8c0,0,0,0.1,0,0.1H18v0.1    c0.4,0.1,0.6,0.3,1,0.3c0,0.1,0,0.1,0.1,0.1C19,3,18.8,2.9,18.7,3h0c-0.1,0,0.1,0,0.1,0c-0.2,0.1-0.6,0-0.8,0    c-0.5,0.2-1.2,0.4-1.7,0.6c-0.5,0.2-0.9,0.2-1,0.7c-0.2,0-0.4,0.1-0.4,0h-0.1c0-0.1,0,0,0.1,0V4.4c-0.8,0-0.9,0.5-1.4,0.7    c-0.1,0.1,0,0-0.1,0c-0.1,0.1-0.2,0.2-0.3,0.3c0.1,0.1,0.1,0.1,0.2,0.1C13,5.7,13,5.9,13,6.2c0.3,0.3,0.7,0.8,1,0.9    c0,0.1,0,0.1-0.1,0.1c0.1,0.2,0.1,0.1,0.1,0.2h0.2c-0.1,0.1-0.9,0-1.2,0c-1.1,0-2.2,0-3.3,0c0,0.2,0,0.4,0,0.5v0    c-0.2,0-0.2-0.1-0.3-0.2C9.2,7.8,9.1,7.9,9,7.9c0-0.1-0.1-0.1-0.1-0.2c-0.3,0-0.5,0-0.5,0.2C7.8,7.9,6.7,8,6.5,7.7    C6.3,7.7,6.3,7.8,6.2,8C5.3,8,4.3,8,3.4,8.1C3.3,8,3.2,7.8,3.1,7.7C2.8,7.6,2.5,7.6,2.2,7.6C2.1,7.8,1.9,7.8,1.7,7.9    c-0.3,0.3-0.5,1.3,0,1.5c0,0-0.1,0.1-0.1,0.1c0,0.3,0,0.3,0.2,0.3c0,0.2,0,0.5,0,0.6c0,0.3,0,0.3-0.1,0.5H1.5c0,0.1,0.1,0.1,0,0.2    c0,0.1-0.3,0.3-0.3,0.4c-0.2,0.3-0.1,0.6-0.3,0.8v0.1c0.2,0,0.4-0.1,0.5-0.2c0.2,0,0.3,0.1,0.4,0.2c0.1,0,0,0,0.1,0    c-0.1,0.1-0.1,0.1-0.2,0.2h0v0.1c0.2,0,0.3,0,0.6,0c0,0.3,0.1,0.4,0.2,0.6c0,0.1,0,0.2,0,0.3c0.1,0,0.1,0.1,0.2,0.1    c0.1,0.1,0.3,0.5,0.4,0.6c0.2,0.1,0.2,0,0.3,0.1c0.7,0.5,1.2,0.5,2.1,0.8c0.5,0.1,0.8,0.2,1.1,0.3C7.2,15.8,8,16,8,16s4.5,0,6.8,0    h15.8c0.8,0,2.7,0,2.7,0s0.5,0,0.6-0.1c0.3-0.1,0.4-0.2,0.7-0.3c0.1-0.1,0.5-0.2,0.7-0.3c0.5-0.2,0.8-0.4,1.3-0.6    c0.9-0.4,2-0.6,2.1-1.8c0.3,0,0.5-0.1,0.7-0.3c0.1,0.1,0.1,0.7,0.1,0.9c0.1,0,0.3-0.1,0.4-0.1c0-0.1,0-0.1,0-0.3    c0.2,0,0.3-0.1,0.6-0.1c-0.1-0.4-0.1-0.8-0.2-1.2c0,0-0.1,0-0.1,0v-0.1c0-0.1-0.2-0.2-0.2-0.2c-0.1-0.2-0.2-0.4-0.4-0.5    c0-0.1,0.1-0.1,0.2-0.2c0-0.1,0,0,0-0.2c-0.1,0-0.1,0-0.2,0c-0.1,0-0.2-0.2-0.2-0.2c-0.4-0.2-1-0.5-1-0.5l-0.6-0.3l0-0.4    c0,0-1-0.1-1.3-0.2h-0.2V8.8c0,0-0.1,0-0.1,0c-0.1-0.1-0.6-0.1-0.7,0c0-0.1,0,0,0-0.1c-0.2,0-0.6,0-0.7-0.1    c-0.2,0-0.4-0.4-0.5-0.5c-0.1,0-0.2,0-0.2,0c-0.1,0-0.1,0-0.2,0c0,0.1,0,0.2,0,0.2c-0.1,0-0.1,0-0.1,0c-0.3-0.1-0.1-0.3-0.2-0.5    c0.1-0.2,0.4-0.1,0.7-0.2c0.3-0.1,1-0.1,1.3-0.2h0.3c0,0,0.1-0.1,0.1-0.1c0.2-0.1,0.3,0,0.5-0.1h0.1V6.8c1.1,0,3.4,0,3.4,0l1.1,0    l1-0.1l0.7,0h8.2l4.6,0l0.1,0.2l1.3,0l0-0.1c0,0,3.6,0,5.3,0V5.5C60.3,5.5,56.8,5.5,56.8,5.5z M20.5,0.6c0.1,0,0.3,0,0.3,0h0.1    v0.1c-0.1,0-0.2,0-0.3,0.1C20.6,0.8,20.6,0.7,20.5,0.6L20.5,0.6L20.5,0.6z M1.9,10.1L1.9,10.1L1.9,10.1l0-0.1h0.1    C1.9,10,1.9,10,1.9,10.1z M2.3,12.2c-0.2,0-0.2,0-0.2-0.1h0C2,12,2,12,2.1,12h0.1C2.2,12.1,2.2,12.1,2.3,12.2L2.3,12.2z M2.3,10    C2.3,10,2.3,10,2.3,10l-0.1,0.1V9.9C2.2,9.9,2.3,9.9,2.3,10L2.3,10z M2.4,10C2.4,9.9,2.3,9.9,2.4,10C2.4,9.9,2.5,9.8,2.4,10    C2.4,9.9,2.4,9.9,2.4,10z M16.2,7.5h-2V7.3c0.3,0,1.6,0.1,1.7,0h0.3C16.3,7.4,16.3,7.4,16.2,7.5z M19.4,1.7h0.2    C19.6,1.8,19.5,1.8,19.4,1.7z M18.9,2.6c-0.2-0.1-0.4-0.2-0.6-0.2c0.1-0.1,0.4-0.1,0.6,0c0,0.1,0,0.1,0,0.1V2.6z M18.5,0.9    c0.1-0.1,0.9-0.3,1-0.3c0.2-0.1,0.2,0.1,0.3,0h0.3c-0.1,0.1,0,0.1-0.2,0.1v0.2C19.7,0.8,18.9,0.9,18.5,0.9z M19.3,2.7    c-0.2,0-0.1,0-0.2-0.1c0-0.1,0-0.2,0-0.3c0.2,0,0.2,0,0.3,0.1C19.4,2.5,19.4,2.6,19.3,2.7z M22.9,3.1c0,0,0-0.1,0-0.1    c0.1,0.1,0.1,0,0.1,0.1H22.9z M25.7,2.4c-0.3,0-0.9,0-1.1,0.1h-0.3C24.5,2,25,1.7,25.8,1.7v0.1h0.2C26,2.1,25.8,2.2,25.7,2.4z"/>
	</g>
</g>
</svg>