<svg xmlns="http://www.w3.org/2000/svg" width="43" height="19" viewBox="0 0 43 19">
  <path fill="#FAB81B" d="M4.8,0 L9.5,0 C9.5,0.3 9.4,0.1 9.4,0.4 C9.5,0.4 9.6,0.5 9.7,0.6 C9.7,0.8 9.8,0.8 9.8,1 L12.2,1 L12.2,0.9 C12.3,0.9 12.4,1 12.5,1 C12.4,1 12.4,1 12.4,0.9 L12.4,0.6 C12.6,0.6 12.5,0.5 12.7,0.6 L12.7,0.5 L13.4,0.5 L13.4,0.9 L14.8,0.9 C14.8,1 14.9,1.1 14.9,1.2 C15.6,1.2 16.2,1.4 16.7,1.6 C16.8,1.7 17.2,1.9 17.3,1.8 C17.6,1.6 17.5,1.3 17.6,1 C18.3,1 18.9,1.5 19.5,1.8 C20.3,2.1 21.1,2.3 21.9,2.5 L21.9,2.8 C23,2.8 24,2.9 25,3.1 C25.3,3.2 39.5,3.1 39.9,3.1 C40,3.1 40.2,2.9 40.3,2.9 L42.8,2.9 L42.8,3.2 C42.9,3.6 42.9,4.1 42.9,4.6 C42.8,4.7 42.8,4.8 42.8,4.9 C42.2,5.1 40.9,4.9 40.2,4.9 C39.9,4.6 40.3,4.7 39.7,4.7 C40.4,4.7 28.4,4.8 25,4.8 C24.2,5.1 23.1,5 21.9,5 C21.9,5.1 20.6,5 20.6,5.1 C18.3,4.8 19.3,5.6 18.9,5.9 L19.9,5.9 C19.7,7.3 20.5,6.9 20.9,6.9 C20.8,6 20.7,5.9 22.7,6 C22.8,6.1 22.9,6.1 22.9,6.2 C23.1,6.5 22.9,6.8 23.5,6.8 C23.7,6.6 23.9,6.2 24.1,6 L25.5,6 C25.6,6.2 25.8,6.2 26,6.3 L26.3,6.3 C26.3,6.2 26.3,6.3 26.4,6.2 C26.4,6.1 26.4,6.2 26.3,6.1 L26.5,6.1 L26.5,6.2 C26.5,6.2 26.5,6.2 26.5,6.3 C27,6.3 28.1,6.3 28.7,6.4 C29.6,6.6 30.8,6.8 31.9,6.8 C31.9,6.6 31.9,6.6 32.1,6.6 C32.1,6.7 32,6.7 32.1,6.7 C32.3,7 32.4,7 32.6,7 L32.6,6.8 L33.1,6.8 L33.1,6.2 L33.8,6.2 L33.8,6.8 L34.3,6.8 L34.3,7 C34.4,7.3 34.8,7.2 35,7.4 C35.7,7.8 36.2,8.6 37.2,8.7 C37.2,8.9 37.4,9.2 37.6,9.3 C37.9,9.1 38.8,9.2 39.3,9.3 C39.3,9.2 39.3,9.2 39.4,9.2 C39.9,10 40.8,10.3 41.3,11.1 L40,11.1 C41,12 40.5,14.3 40,14.9 C39.7,15.3 39.1,15.4 38.7,15.7 C38.1,16 37.6,16.4 37,16.7 C36.7,16.9 36.3,17 36,17.2 C35.6,17.5 35.1,17.8 34.6,18 C33.9,18.1 32.9,18 31.9,18 L27.3,18 L14.3,18 L10.3,18 C9.5,18 8.7,18.1 8,17.9 C7.3,17.7 6.6,17.6 5.9,17.4 C4.9,17.1 4,16.8 3,16.5 C2.7,16.4 2.3,16.4 2,16.2 C1.8,16.1 1.6,15.8 1.4,15.6 C1.3,15.5 1.2,15.4 1.1,15.3 C1.1,15.1 1,15 1,14.8 C0.9,14.4 0.7,14 0.9,13.5 C1,13.2 1.1,12.8 1.3,12.5 L0.5,12.5 C0.9,12.1 1.3,11.9 1.7,11.5 C1.9,11.3 2.1,11.2 2.2,11 L0,11 L0,7.2 C0.1,6.7 1.2,6.3 1.4,5.9 L1.2,5.9 C1.2,5.8 1.1,5.7 1.1,5.6 C0.9,5.3 1.2,5.1 1.2,4.9 L1.2,3.9 L1.7,3.1 L2,3.1 C2.1,1.8 3,1 4.4,1 C4.4,0.8 4.5,0.6 4.5,0.4 C4.8,0.4 4.9,0.6 4.9,0.3 C4.8,0.2 4.8,0.1 4.8,0 Z"/>
</svg>
