<!DOCTYPE svg PUBLIC "-//W3C//DTD SVG 1.1//EN" "http://www.w3.org/Graphics/SVG/1.1/DTD/svg11.dtd">
<svg xmlns="http://www.w3.org/2000/svg" xmlns:xlink="http://www.w3.org/1999/xlink" version="1.1" id="Layer_1" x="0px" y="0px" width="56" height="21" viewBox="0 0 56 21" enable-background="new 0 0 56 21" xml:space="preserve">
<style type="text/css">
      #path-1 {
        fill: #FAB81B;
     }
    </style>

<path id="path-1" d="M2,0.3c0,0.1,0,0.3,0,0.4c1.3,0,2.6,0,3.9,0c0.7,0.1,1.5,0,2.4,0C8.6,0.9,8.6,1,9,1c0,0.1,0,0.6,0,0.7  C9.4,2,8.9,2.6,9.2,2.9c-0.1,0-0.2,0-0.3,0c0,0.2,0,0.1-0.1,0.1c-0.3-0.2,0,0-0.3,0.1c0,0.1,0,0,0,0.1c-0.6,0-0.7,0.2-1.3,0.3  c-0.5,0-1.4,0.3-1.9,0.3C4.7,3.9,3.6,4,3,4.1c0,0,0.2,1.6,0,3.8c0,0.2,0,0.3,0,0.4C3,8.6,3.1,8.8,3.1,9C3.8,9,4.2,9,5,9  C5,9.3,5,9.7,5,10c-1.1,0-1.8,0.4-2.8,0.5c0,0.1,0,0.3,0,0.4c-0.3,0-0.6-0.1-0.7,0c-0.2,0.1-0.3,0.2-0.2,0.5  c0.2,0.1,0.3,0.2,0.4,0.3c-0.2,0-0.4,0-0.4,0.1c0.1,0.1,0.1,0.2,0.1,0.4c-0.2,0.1-0.8,0.3-0.9,0.5c0,0,0,0,0,0  c0.1,0.1,0.7,0.5,0.9,0.6c-0.2,0.3-1,0.6-1.1,0.9c-0.7,1.9,1.1,3.4,2.3,4.1c0.2,0,0.3,0.1,0.5,0.1c0.6,0.2,1.3,0.4,2,0.6  c0.9,0.3,1.9,0.6,2.9,0.9c2.3,0,4.5,0,6.8,0c4.9,0,9.8,0,14.8,0c1.9,0,3.8,0,5.8,0c1,0,2.2,0.1,3.1-0.1c0.3-0.1,0.7-0.4,1-0.5  c0.8-0.3,1.5-0.7,2.2-1c1.5-0.7,3.2-1.3,2.7-3.8c0.3-0.2,0-0.4,0.2-0.6c0.1,0,1.6,0.1,1.7,0.1c0.1-0.1-0.5-0.6-0.3-0.8  c0-0.1-0.1-0.1-0.2-0.1c-0.2-0.2-0.2-0.3-0.5-0.5c-0.1-0.1,0-0.3-0.1-0.4c-0.1-0.2-0.5,0-0.6-0.2c-0.1,0.1-0.4,0-0.5,0  c-0.2-0.1-0.3,0-0.5,0c-0.2,0-0.3-0.3-0.4-0.3c-0.2-0.1-0.4-0.3-0.5-0.4c-0.5-0.3-0.9-0.8-1.3-1.2c-0.5,0.1-1,0-1.5,0  c0-0.1-0.3,0.1-0.4,0c-0.3,0-0.6,0-0.9-0.1c-0.4,0-0.9,0-1.3,0.1c-0.2,0-0.3,0-0.5-0.1c-0.1,0-0.3-0.1-0.4,0c0-0.2-0.3-0.1-0.4-0.2  c-0.3-0.2-0.4-0.3-0.9-0.4c-0.4-0.1-2.1-0.6-2.5-0.5c-0.3,0.1,0.1,0.9-0.1,1c-0.2,0.1-2.3,0.1-2.6,0c-1.3-0.1-3-0.3-3-0.3  c0,0,0.2-0.6,0.1-0.7c-0.3,0-0.6,0-0.9,0c-0.5,0-1,0-1.6,0c0-0.2,0-0.7,0-0.9c0.5-0.3,0.2-0.4,1.1-0.4c0.6-0.5,2.2-0.4,3.1-0.6  c0.7-0.2,6-0.1,8-0.1c0,0,0,0.1,0,0.1c0,0,0,0.4,0,0.4c0.1,0.1,1.5,0,4,0c0,0,0-0.5,0-0.6c5,0,10.2,0,15.1,0c0-0.5,0-0.6,0-1  c-5,0-10.1,0.1-15.2,0c0,0,0-0.5,0-0.6c-2.1,0-3.8,0-3.8,0c-0.1,0.1-0.1,0.4-0.1,0.6c-2.3,0-5.7-0.1-8-0.1c-1.4-0.3-1.8-0.5-3.5-0.5  c-0.1-0.2-1.5-1.2-1.6-1.3c-0.5-0.2-1.8-0.2-2.3,0C20.7,4,20.8,4,20.6,4c0-0.1,0-0.4,0-0.6c0.8,0-0.4,0,0.4,0c0-0.1,0-0.1,0-0.2  c-1.1,0-0.2,0-1.3,0C19.5,3.2,19.2,3.1,19,3c0,0,0-0.1,0-0.1c-0.8-0.1-1.4-0.7-2.1-0.9c-0.6,0-1.3,0-1.9,0c-0.1,0-0.7,0.9-0.8,0.9  c0.5,0-3,0-3.9,0c-0.1-0.3,0-0.9-0.2-1c0,0,0,0,0,0c0.5,0,0.7-0.1,1.2-0.1c0,0.2,0,0,0,0.2c0.6,0,1.2,0,1.8,0c0-0.4,0-1.6,0-2  c0,0-0.1,0-0.1,0c-0.2,0.2-1.1,0-1.4,0c-0.9,0-0.7,0.2-1.6,0.2C9.9,0,9,0.4,9,0.2c-2.6-0.1-3.2,0-3.1,0C4.6,0.3,3.3,0.3,2,0.3z"/>

</svg>