<svg xmlns="http://www.w3.org/2000/svg" width="70" height="19" viewBox="0 0 70 19">
  <path fill="#FAB81B" d="M24.2,1.1 C24.3,0.8 24.2,1 24.2,0.7 C24.2,0.7 24.1,0.7 24.1,0.7 C23.9,0.8 23.5,0.5 23.3,0.6 C23.2,0.6 23.2,0.7 23.2,0.8 C23.2,0.9 23.2,0.9 23.2,1.1 C23.1,1.1 23.1,1.1 23,1.1 C22.8,1.3 23.1,1.4 22.7,1.3 C22.6,1.3 22.7,1.3 22.6,1.3 C22.6,1.2 22.6,1.2 22.6,1.1 C22.6,1 22.6,1 22.6,0.8 C22.8,0.8 22.9,0.7 23,0.6 C22.9,0.5 23,0.3 23,0.1 C22.8,0 22.5,0 22.1,0 C22.1,0.1 22,0.1 22,0.3 C22.1,0.5 21.9,0.6 22.1,0.8 C22.2,0.9 22.1,0.8 22.3,0.8 C22.3,0.9 22.3,0.9 22.3,1 C21.9,1.1 21.3,1 21.1,1.3 C21.1,1.3 21.1,1.3 21.1,1.3 C21.1,1.3 21.1,1.3 21.1,1.3 C21.2,1.3 21.2,1.3 21.3,1.3 C21.2,1.4 21.2,1.7 21.3,1.9 C21.4,2.1 21.8,3.7 22.2,3.7 C22.2,3.7 22.3,3.6 22.3,3.6 C22.3,3.7 22.3,3.8 22.3,3.9 C22.1,4 22,4.1 21.7,4.2 C21.6,4.1 21.5,4.1 21.5,4 C21.4,3.8 21.6,4 21.4,3.8 C21.3,3.8 21.2,3.8 21.1,3.8 C21.1,4 21.1,3.9 21,3.9 C21,4 21,4 20.9,4 C20.8,3.9 20.9,4 20.8,4 C20.6,4.1 19.7,3.9 19.5,4.1 C19.3,4 19.2,3.9 18.8,4 C18.8,4 18.8,4.1 18.8,4.1 C18.8,4.1 18.8,4.1 18.9,4.1 C18.9,4.1 18.9,4.1 18.9,4.2 C19,4.2 19.1,4.1 19.2,4.2 C19.2,4.2 19.1,4.2 19.1,4.2 C18.9,4.3 18.5,4.1 18.3,4.2 C18.4,4.2 18.6,4.4 18.5,4.4 C18.1,4.6 17.6,4.2 17.2,4.4 C17.1,4.5 18.1,4.6 17.9,4.6 C17.9,4.6 17.9,4.5 17.9,4.5 C17.8,4.5 17.7,4.5 17.6,4.5 C17.7,4.3 17.7,4.3 17.7,4.1 C17.5,4.1 17.3,4.1 17.1,4.1 C17.1,4.2 17.1,4.3 17.1,4.4 C17.2,4.4 17.3,4.4 17.4,4.4 C17.4,4.6 17.4,4.5 17.6,4.6 C17.6,4.7 17.6,4.8 17.6,4.9 C17.6,4.9 17.6,4.9 17.6,4.9 C17.5,4.9 17.3,4.8 17.2,4.8 C17.2,5 17.1,5.3 16.1,5.2 C16.2,5.2 16.3,5.2 16.4,5.2 C16.4,5.2 16.4,5.3 16.4,5.3 C16.4,5.3 16.3,5.4 16.3,5.5 C16.2,5.5 16.3,5.5 16.2,5.4 C16.1,5.2 16,5.1 15.7,5 C15.8,4.9 16,4.3 16,4.1 C15.8,4 15.5,4.1 15.2,4.1 C15.1,4.2 15.1,4.7 15.1,4.9 C15.5,5.1 16.2,5.2 16.5,5.4 C16.5,5.5 16.3,5.9 16.3,6 C15.7,6.4 15.1,7 15.1,7.9 C15.7,7.9 16.5,7.9 17.1,8 C17.1,8 17.1,8.1 17.1,8.1 C17.1,8.2 17.1,8.8 17.2,8.9 C17.2,8.9 17.1,8.9 17.1,8.9 C16.8,9.1 15.7,9 15.3,9 C13.9,9 12.2,8.9 11.2,9 C11.2,9 11.2,9 11.2,9 C11.2,9 11.2,9 11.1,9 C11.1,8.9 11.1,8.8 11.1,8.7 C10.7,8.7 10.4,8.7 10,8.7 C10,8.6 10,8 10,8 C9,8 8.1,8 7.1,8 C7.1,8.1 7.1,8.6 7.1,8.7 C7.1,8.9 7.2,9 6.9,9 C6.9,8.9 6.2,9.1 6.2,9 C5.5,9 5.7,9 4.9,9 C4.7,9 4.6,9 4.4,9 C4.2,9.1 4.2,9.3 3.8,9.3 C3.7,9.3 3.7,9.2 3.6,9.1 C3.4,9.2 2.4,9.9 2.2,9.9 C2.2,9.9 2.1,9.1 2.1,9 C1.8,9 1.6,9 1.4,9 C1.2,9.2 0.3,9.8 0.2,10.1 C-0.1,10.5 0.2,10.8 0.3,11.2 C0.6,11.4 0.9,12 1.5,12 C1.6,11.9 1.8,12.1 1.9,12 C2.1,11.9 2.3,11.3 2.4,11.1 C2.6,10.8 3.1,10.6 3.3,10.3 C3.3,10.3 3.3,10.3 3.3,10.3 C3.3,10.3 3.3,10.4 3.3,10.4 C3.4,10.5 3.4,11.8 3.4,11.8 C3.1,12.3 2.2,12.3 2.1,13 C2.4,13 2.8,13 3.1,13 C3.1,13.3 3.1,14.1 3.2,14.5 C3.7,16.1 5.1,16.5 6.7,17 C7.8,17.4 8.9,17.7 10.1,18 C12,18 13.9,18 15.8,18 C23.2,18 30.5,18 37.9,18 C39.5,17.6 40.6,17.1 41.9,16.5 C42.7,16.2 43.4,16 44.2,15.6 C44.8,15.3 45.2,14.6 45.4,13.8 C45.5,13.5 45,13 45.1,12.8 C45.1,12.8 45.1,12.8 45.1,12.8 C45.4,12.9 45.3,12.9 45.8,12.8 C45.8,12.8 45.8,12.7 45.8,12.7 C45.8,12.7 45.8,12.7 45.8,12.7 C45.7,12.4 44.7,11.4 44.5,11.3 C44.3,11.2 43.9,11.2 43.7,11.2 C43,11.2 42.3,11.2 41.6,11.2 C41.3,11.1 40.9,10.9 40.5,10.7 C40.3,10.6 40,10.6 39.8,10.4 C40.1,10.1 39.9,9.7 39.8,9.3 C39.8,9.3 39.7,9.3 39.7,9.3 C39.6,9.4 39.4,9.3 39.3,9.4 C39,9.6 39.2,9.8 38.6,9.8 C38.6,9.7 38.6,9.7 38.6,9.7 C37.6,9.7 37.1,9.5 36.5,9.1 C36.5,9 36.5,8.9 36.5,8.8 C36.3,8.7 36.2,9 36,9 C35.3,9 34.7,9 34,9 C33.7,9 33.4,9 33.1,9 C32.7,9 32.3,9 31.9,9 C31.9,9 31.9,8.9 31.9,8.9 C31.9,8.9 31.9,8.9 31.9,8.9 C31.9,8.9 31.9,8.9 31.9,8.9 C32.9,8.8 34.1,8.3 35.1,8 C36.9,8 38.7,8 40.4,8 C41.4,8 42,8 42.9,8 C44.3,8 45.6,8 47,8 C49.7,8 52.6,8 55.4,8 C56.5,8 57.6,8 58.8,8 C59,8 59.8,8 60.4,8 C61.6,8 62.8,8 64,8 C64.3,8 64.7,8 65.2,8.1 C65.7,8.2 66.2,8.3 66.7,8.4 C67.3,8.5 69.1,8.7 69.3,8.4 C69.5,8.1 69.4,7 69.3,6.7 C68.8,6.4 67.5,6.6 66.7,6.6 C66.4,6.8 66,6.9 65.5,7 C65.2,7.1 64.8,7.2 64.4,7.1 C64.3,7.1 64.1,7.2 63.9,7.2 C62.6,7.2 61.2,7.1 59.9,7.1 C59.5,7.1 59.1,7.1 58.9,7.1 C56,7.1 53.1,7.1 50.3,7.1 C49.3,7.1 48.3,7.1 47.3,7.1 C46.8,7.1 46.2,7.1 45.7,7.1 C45.2,7.1 44.7,7.1 44.1,7.1 C42.8,7.1 41.7,7.2 40.2,7.1 C38.5,7.1 36.8,7.1 35.1,7.1 C34.6,6.9 34,6.3 33.4,6.1 C33,5.9 32.2,5.8 32,5.4 C32,5.3 32,5.3 32,5.2 C31.7,5 31.3,5 30.9,5 C30.7,5 30.3,5.1 30,5 C29.4,4.9 28.8,5.1 28.1,5 C27.4,4.8 26.9,5 26.1,5 C26.1,4.9 26.1,4.7 26.1,4.7 C26.1,4.7 26,4.6 26,4.5 C25.8,4.5 25.8,4.4 25.6,4.4 C25.6,4.3 25.2,4.1 25.2,4 C24.7,4 24.9,4 24.7,4.2 C24.6,4.3 24.3,4.2 24.3,4.1 C24.2,4.1 24.1,4.9 24,4.9 C23.8,5 23.7,5 23.5,5 C23.3,5.1 23.4,4.8 23.2,4.8 C23.2,4.6 23.2,4.3 23.2,4.1 C23,3.9 23,3.1 23.1,2.8 C23.1,2.8 23.1,2.8 23.1,2.8 C23.1,2.8 23.1,2.8 23.1,2.8 C24,3 24.7,2.7 25.4,2.6 C25.9,2.6 26.4,2.7 26.9,2.8 C27.2,2.8 26.8,2.3 27.3,2.4 C27.3,2.4 27.3,2.3 27.3,2.3 C26.6,2.2 26.4,2.1 25.7,2.2 C25.7,2.1 25.7,2 25.8,1.9 C25.8,1.9 25.8,1.9 25.8,1.9 C25.8,1.9 25.8,1.9 25.8,1.9 C26.1,2 26.4,1.9 26.7,1.9 C27.6,1.9 28.4,2.1 29.2,2 C29.7,2 30.9,2.1 31.2,1.9 C31.3,1.8 31.3,1.8 31.3,1.7 C31.2,1.6 31.2,1.3 31.1,1.2 C30.8,1.3 29.7,1.4 29.2,1.5 C29,1.5 28.8,1.4 28.6,1.4 C27.5,1.4 26.8,1.3 25.6,1.2 C25.4,1.1 24.5,1.1 24.2,1.1 Z" transform="translate(0 .095)"/>
</svg>