<?xml version="1.0" encoding="utf-8"?>
<!-- Generator: Adobe Illustrator 25.3.1, SVG Export Plug-In . SVG Version: 6.00 Build 0)  -->
<svg version="1.1" id="Layer_1" xmlns="http://www.w3.org/2000/svg" xmlns:xlink="http://www.w3.org/1999/xlink" x="0px" y="0px"
	 width="65.1px" height="21.8px" viewBox="0 0 65.1 21.8" style="enable-background:new 0 0 65.1 21.8;" xml:space="preserve">
<style type="text/css">
	.st0{display:none;fill-rule:evenodd;clip-rule:evenodd;fill:#FAB81B;}
	.st1{fill-rule:evenodd;clip-rule:evenodd;fill:#FAB81B;}
</style>
<path class="st0" d="M1.4,10.1l1.8-4.6l1-0.1V5l0.6-0.1L5,5.4l3.3-0.5l2.6,0.3l0.5-1h0.3h4l0.7,1.2L19,5.5l0.1-0.3l0.6,0.1l0.1,0.4
	L20.6,6l0.2-0.7h0.5l3.4,1.5h1.1l0.1,0.4h2.4v0.4h0.8v0.3h7.1l0.2,0.2l16.1,0.1V8h0.9l0.2-0.2h1.8v1.8h-1.9V9.4h-0.2l0,0h-1
	l-0.1-0.3L36.4,9.3v0.4h-7.3v0.2h-0.7l-0.2,0.2l-4.7,0.3l1.7,0.7c0,0,0.1-0.4,0.2-0.4s3,0,3,0s-0.1,0.4,0,0.4s9,0,9,0v-0.9h0.9v0.4
	h0.8l0.8-0.3l2.5,1.6v-0.7h1v1.2h0.8c0,0,1.3,0.5,1.3,0.6c0.1,0.1,0.5,0.8,0.5,0.8L45.7,14l-0.5-0.5l-0.5,0.1l0.6,0.6l0.8,0.9
	l0.3,1.2l-0.8,2.2l-6,2.7H9.2l-5.7-1.8L2.6,18l0.3-1.4c0,0,0.5-1,0.6-1c0.1,0,1.1-0.5,1.1-0.5l-0.3-0.5L2,15c0,0-1,0-1.1-0.1
	S0,13.7,0,13.7l0.2-1.2c0,0,0.6-0.9,0.7-0.9s1.4-0.3,1.4-0.3l2.1,0.3L6.5,12v-1.8H5.8L1.4,10.1z"/>
<g>
	<g>
		<path class="st1" d="M64.5,10.3c-0.2-0.2-0.6,0-0.9-0.1c-0.1,0-0.2-0.1-0.3-0.2c-0.1,0-0.1,0.2-0.1,0.2h-1.9v-0.1h-0.1v0.1h-0.1
			v0.1h-8.3v-0.1h-0.5V10c-1,0-3,0-3,0v0.4l-4.7-0.1l-1.8-0.1l-1.4-0.1c0,0-0.9,0-1.3,0C40.1,10.1,40,10,39.9,10
			c-0.3-0.2-0.8-0.1-1-0.4c-0.1-0.2,0.1-0.3,0-0.4V9c-0.3,0-0.3,0.1-0.5,0.2c-0.1,0.1-0.6-0.3-0.7-0.4c-0.1-0.1,0,0-0.1,0V8.7
			c-0.3,0-0.5,0.3-0.6,0.5c-0.7,0-1.9-0.3-2.8-0.6c-0.4,0-0.8-0.1-1.1-0.1c0,0-0.1-0.2-0.2-0.3c-0.1,0-0.2,0.1-0.2,0.1
			C32,8.3,31.3,8.2,30.5,8c0-0.1,0-0.2-0.1-0.3c0-0.6,0.2-1.4-0.4-1.4c0.1-0.2,0.1-0.2,0.1-0.5c-0.3,0-0.9-0.1-1.1,0.1
			c0,0,0,0.2,0,0.4c-0.3,0-0.5,0-0.7,0.1c0,0.2-0.1,0.2-0.1,0.4c-0.6,0-1-0.1-1.6-0.1V6h1.1V5.8h-0.6c0.2-0.1,0.6-0.1,0.9-0.1
			c0.8,0,1.4-0.1,2-0.1V5.4c-0.3,0.1-0.7,0-1.1-0.1V5.1c-0.1,0.1-0.1,0.2-0.1,0.3c-0.8,0-1.9,0.1-2.3-0.3c-0.2,0.1-0.1,0-0.1,0.2
			c-0.3,0-0.6-0.2-1.1-0.1c-0.2,0.1-1.5,0.3-1.8,0.2c-0.2-0.1-0.3-0.2-0.6-0.2c0,0.3,0,0.5,0,0.9c0.3,0,0.6-0.2,0.7-0.4
			c0.2,0,0.3,0,0.4,0.1c0,0.1,0,0.2,0.1,0.3v0.1c0.1-0.2,0.1-0.2,0.1-0.4c0.1,0,0.1,0,0.2,0.1c0.2,0,0.2,0.1,0.3,0.2
			c0,0.1-0.1,0.2-0.1,0.3c0.1,0.1,0,0,0.1,0.1h0.3l0.1-0.4h0.3c0.1,0.1,0.2,0.2,0.3,0.3c-0.1-0.1,0,0-0.1-0.1h-0.1
			c0.1,0.1,0.1,0.2,0.3,0.2c-0.1,0.3-0.4,0-0.7,0.1c-0.1,0-0.3,0.2-0.7,0.2c-0.1,0.5-0.1,0.3-0.4,0.6c-0.1-0.1,0-0.1-0.1-0.2
			c-0.2,0.1-0.1,0.2-0.3,0.3v0.2c0.1,0,0.3,0,0.4,0.1c-0.2,0.2-0.7,0-0.9,0c-0.1-0.3-0.2-0.2-0.3-0.5h-0.4v0.5h-0.3
			c0-0.1,0-0.1-0.1-0.2h-0.3V7.5c-0.2-0.1-0.4,0.1-0.5,0.1c0,0-0.1-0.1-0.2-0.1c-0.1,0-0.3,0.1-0.4,0.1c-0.1,0-0.3-0.2-0.4-0.3
			c-0.2,0-0.3,0.2-0.4,0.3l-0.8-0.1c-0.4,0.1-0.8,0-1.2,0.1c0-0.2-0.3-0.8-0.4-0.9c0.1-0.1,0.1-0.1,0.2-0.2
			c-0.1-0.1-0.3-0.2-0.4-0.3C17,6,17,6.1,17,6c-0.2,0.4-0.6,0.7-1,0.9c0.1,0.2,0.3,0.3,0.4,0.4c0.1,0,0.1,0,0.2-0.1h0.1v0.3
			c-0.3,0-0.5,0.2-0.6,0.4h-0.1c-0.1-0.1-0.1-0.3-0.1-0.6h-0.4c0-3.4-0.1-3.7-0.1-7.1c-0.1,0.1-0.1,0.5-0.1,0.8v1.9
			c0,2.5,0.1,1.9,0.1,4.4H15c0,0.2,0,0.5-0.1,0.6C14.7,8.1,13,8.1,13,8.1L12.3,8L9,8.1c0,0,0,2.5,0,3.8h3.3V12c0.1,0,0.3,0,0.4,0.1
			v0.1h3.4c0,0.1,0,0.2,0.1,0.3c0.4,0.1,0.8,0.2,1.2,0.3c-0.1,0.1-0.1,0.1-0.3,0.1V13c-0.1-0.1-0.1-0.2-0.3-0.3
			c-0.4-0.2-1.6,0-2.2,0c-0.3,0-0.9-0.1-1-0.1c-0.4,0.1-1.4,0.2-1.9,0.1c-0.4-0.1-0.9-0.2-1.3-0.3h-0.3c-0.2-0.1-0.2-0.3-0.3-0.4
			C9.9,12,8.7,12,8.7,12c0-0.1,0-0.1-0.1-0.3c-0.1,0.1-0.1,0.2-0.1,0.3c-0.2,0-0.7-0.2-0.7-0.2v0.1H7.6V12H7.1v-0.2H4.5
			c-0.4,0-1,0-1.1-0.1c-0.2,0-0.2,0-0.3,0.3c-0.4,0-1.2-0.1-1.4,0.1c-0.4,0-0.9,0.8-1,1.1c0,0.4,0,0.7,0.1,1.1
			c-0.1,0.4-0.3,0.7-0.3,1.3c0.3,0.3,0.6,0.5,1,0.7c0,0.2,0,0.4,0,0.5c0.1,0.2,0.4,0.5,0.4,0.8c0.1,0.3,0,0.5,0.2,0.7
			c0.1,0.1,0.1,0,0.2,0.1c0,0.2,0,0.3-0.1,0.5h0.3v-0.3c0.2,0,0.5,0.1,0.6,0.1H4c0,0,0,0.1,0.1,0.1C4.3,19,6.5,20.6,7.5,21
			c0.3,0.1,1.2,0.3,1.2,0.3s5.8,0,8.7,0h18.5c0.8,0,1.5,0,2.3-0.1c0.8-0.2,1.7-0.6,2.5-0.9c1.4-0.6,3.5-0.8,4.3-2
			c0.1,0,0.1-0.1,0.2-0.1c0.1-0.2,0.4-1.1,0.4-1.4c0-0.2-0.1-0.6-0.2-0.8c0.2-0.1,0.4-0.2,0.5-0.4c0.2,0.1,0.2,0.2,0.4,0.3
			c0-0.1,0.1-0.1,0.1-0.2h0.1v-0.1c-0.2-0.1-0.3-0.3-0.4-0.4c0,0-0.1,0-0.1,0.1c-0.2-0.2-0.4-0.5-0.6-0.7h-0.1v-0.1
			c0.3,0.2,0.5,0.5,0.8,0.7c0.1-0.2,0.1-0.5,0.2-0.7c0.3,0,2.2,0,2.3,0.1c0.2,0,0.2-0.1,0.3-0.1v-0.1c-0.3,0-0.7,0-0.9,0
			c-0.1,0-0.3,0-0.4,0c-0.1,0-0.1,0-0.4-0.1c-1.3-0.2-2.6-0.6-3.2-1.6h-0.3c0.1,0.6,0.6,0.6,0.8,0.9c0.1,0.2,0.1,0.3,0.3,0.4
			c-0.1,0.1-0.1,0.1-0.2,0.2c0.1,0.1,0.1,0.2,0.3,0.3v0.1c-0.4-0.1-0.5-0.4-1.1-0.4c0.1-0.1,0,0,0.1-0.1c0-0.5-0.1-0.3-0.4-0.5
			c-0.3,0-0.3,0-0.3-0.2c-0.2,0-0.1,0-0.2,0.1c-0.2-0.2,0.1-0.6-0.1-0.9c0-0.1-0.3,0-0.1-0.1c0.1,0,0,0,0.1-0.1h-0.1v-0.1
			c-0.2,0-0.2,0-0.3,0.1c-0.1,0.1-0.1,0,0,0.1c-0.3,0.2-0.7,0.2-0.9,0.4h-0.4c0,0,0,0.1,0.1,0.1c-0.4,0-0.2-0.1-0.4-0.3h-0.5v-0.6
			c-0.2,0-0.1,0.1-0.2,0c-0.4,0-0.5,0.1-0.7,0.3v0.3c-0.2,0-0.3,0-0.3,0h-2.3c0.1-0.4,0.4-0.4,0.6-0.6c0.1,0.1,0.2,0.3,0.3,0.4
			c0.5,0,0.8-0.1,1.1-0.3c0.1-0.1,0.2-0.3,0.3-0.3c0.2-0.1,0.4,0,0.6-0.1c0.1-0.1,0.2-0.2,0.3-0.3c0.5,0,1.5,0,1.5,0l1.4-0.1
			l1.9-0.1h1.2l3.3,0.1c0,0,1.3,0,1.9,0h1.6v-0.1h8.3v0.2h2.1c0,0,0,0.2,0.1,0.1c0.1,0,0.2-0.2,0.3-0.2h0.9v-0.1h0.1
			C64.6,11.2,64.7,10.5,64.5,10.3z M1.8,12.4c0.1,0.1,0,0,0.1,0.1H1.8V12.4z M1.7,14.2h0.1c0-0.3,0-0.5-0.1-0.8c0.1,0,0.1,0,0.2,0.1
			c0.2,0.1,0.3,0.8,0.3,1.1H1.8v-0.3H1.7V14.2z M1.2,12.7c0.5,0.3,0,1-0.3,1.2v0.1H0.9C0.9,13.2,1,13.1,1.2,12.7z M0.7,15.7
			c-0.1-0.4,0-0.8,0.1-1.1C1,15,1.1,15.4,1.3,15.8C1.1,15.8,0.9,15.7,0.7,15.7z M2,16.8L2,16.8l-0.1-0.1c0.1-0.1,0.2-0.1,0.3-0.2
			h0.1c0,0.1,0,0.1-0.1,0.2C2.1,16.8,2.1,16.8,2,16.8z M2.3,17.7L2.3,17.7c-0.1-0.1-0.1-0.1-0.2-0.3c0.1,0,0.1,0,0.1,0.1h0.1V17.7z
			 M2.3,16.4L2.3,16.4c0,0-0.1-0.3-0.1-0.4c-0.2,0-0.4,0-0.6-0.1c-0.2-0.6-0.4-1.1-0.6-1.7c0.1-0.4,0.4-0.5,0.6-0.8h0.1
			c0,0.3,0.1,0.7,0.1,0.8l-0.1,0.3c0,0.1,0.1,0.3,0.1,0.4h0.3v-0.3h0.5C2.3,15,2.4,16.2,2.3,16.4z M2.8,16.2c-0.1,0-0.1,0-0.1-0.1
			C2.8,16.1,2.7,16.1,2.8,16.2z M2.4,17.6c0.1,0.1,0,0.1,0.1,0.2C2.4,17.7,2.4,17.7,2.4,17.6z M2.8,16.3c-0.1,0-0.3,0.1-0.4,0.1
			c-0.1-0.1,0-0.1-0.1-0.2L2.8,16.3L2.8,16.3z M10.8,12.8L10.8,12.8L10.8,12.8L10.7,13c-0.2-0.1-0.2-0.1-0.3-0.3
			c0.2,0,0.3,0,0.4,0.1c-0.1,0.1-0.2,0-0.3,0C10.6,12.9,10.6,12.8,10.8,12.8z M11.1,12.9L11,12.8h0.1V12.9z M16.8,7
			c0,0,0.3-0.1,0.4-0.2c0.1,0.2,0.2,0.4,0.2,0.8H17C17,7.3,17,7.1,16.8,7z M17.6,12.3h-0.4v-0.3C17.5,12.1,17.4,12.2,17.6,12.3
			L17.6,12.3z M25,6.8h0.2C25.1,6.9,25.1,6.9,25,6.8z M26.1,6h0.4v0.4h-0.1c0.1,0.1,0,0.1,0.1,0.1v0.1H26C26.1,6.5,26.1,6.3,26.1,6z
			 M25.7,7.1h-0.1c0-0.1-0.1-0.1-0.1-0.2V6.8c0.1,0,0.1,0,0.3,0.1V7.1z M25.6,5.3h0.3C25.8,5.4,25.7,5.4,25.6,5.3z M26,6.8h0.6
			C26.6,6.9,26.2,6.9,26,6.8z M27,6.8C27,6.9,27,6.9,27,7.1C27,7,27,7,27,6.8z M27.4,7C27.3,7.1,27.4,7,27.4,7l-0.1,0.1V6.8h0.2
			C27.4,6.9,27.4,7,27.4,7z M27.5,6.8h0.3C27.7,6.9,27.6,6.9,27.5,6.8z M45.3,14.3c0.2,0.1,0.4,0.1,0.6,0.2c0,0.1-0.1,0.5-0.1,0.6
			c-0.2-0.2-0.4-0.4-0.6-0.6C45.2,14.4,45.3,14.3,45.3,14.3z M43,14h0.3v0.1c-0.2,0-0.5,0-0.7-0.1c0-0.1,0-0.1-0.1-0.2
			C42.8,13.9,42.9,13.9,43,14z M40.8,12.9c-0.1,0.1-0.3,0.1-0.4,0H40.8z M38.9,9.3L38.9,9.3c-0.1,0.1-0.1,0.1-0.1,0.1
			c-0.1,0.1,0,0-0.1,0.1c-0.1-0.1,0,0-0.1-0.1c0-0.1,0-0.2,0.1-0.3C38.8,9.2,38.7,9.2,38.9,9.3L38.9,9.3L38.9,9.3z M62.9,11.2h-0.4
			v-0.5h0.4V11.2z"/>
	</g>
</g>
</svg>
