<?xml version="1.0" encoding="utf-8"?>
<!-- Generator: Adobe Illustrator 27.2.0, SVG Export Plug-In . SVG Version: 6.00 Build 0)  -->
<svg version="1.1" id="Layer_1" xmlns="http://www.w3.org/2000/svg" xmlns:xlink="http://www.w3.org/1999/xlink" x="0px" y="0px"
	 width="54.4px" height="19.5px" viewBox="0 0 54.4 19.5" style="enable-background:new 0 0 54.4 19.5;" xml:space="preserve">
<style type="text/css">
	.st0{display:none;fill-rule:evenodd;clip-rule:evenodd;fill:#FAB81B;}
	.st1{display:none;}
	.st2{display:inline;}
	.st3{fill-rule:evenodd;clip-rule:evenodd;fill:#FAB81B;}
</style>
<path class="st0" d="M2,10.3l1.2-0.9H13V8.1l1.2-1.9l-1.2-1l0.7-0.5L15,5.5l0.5-0.4l0.7,0.3L19,4.5l0.1-0.9c0,0,0.9,0,0.9-0.1
	s0.1-1,0.1-1H21v1l7-0.1v0.5h-2.8l-0.1,0.5H21v1L21.7,5l1.1,0.1l0.6,0.3h3.8l0.9,1h1V4.5h1v2.2l0.4,0.4l0.1,0.2h6.6V6.9h3.7L41,7.5
	h11v1H41l-0.3,0.3h-3.5l-0.3-0.2h-6.6l-0.1,0.3l-1.5,0.5h-2.9L26,9.5h7.1l1.1,1l0.9-0.7h1v0.7H40l0.9,0.8l0.2,1.3L40,12.8l0.1,0.7
	l-0.5,1.2l-5.9,3.6l-1.2,0.2H7.9l-5.1-3.1l-0.3-1H1.1l1.6-2.8L2,10.3L2,10.3z"/>
<g class="st1">
	<g class="st2">
		<path class="st3" d="M53.6,7.7c-0.3,0-0.7,0-0.8,0.2h-0.1l0.1-0.1h-0.3c0,0,0,0.1-0.1,0.1s-0.3-0.1-0.3-0.1
			c-0.1,0-0.4,0.1-0.5,0.1V7.8h-0.1c0,0.1,0,0,0,0.2c0,0-0.2,0-0.2-0.1s0.1,0,0.1-0.1c-0.2,0-0.3-0.1-0.3,0.2c-0.2,0,0,0-0.2-0.2
			c-0.1-0.1-0.1,0.1-0.2,0.1c0,0,0-0.1-0.1-0.1v0.1c-0.2,0.1-0.2,0-0.3-0.1c-0.1,0-0.1,0-0.2,0.1c0,0.1,0,0.1,0.1,0.1l0,0
			c-0.4,0-0.2-0.1-0.4-0.2c-0.1-0.1,0,0-0.1-0.1c-0.1,0.1-0.1,0-0.1,0.2C49.4,8,49.2,8,49,8l-0.1-0.1h-0.7c0,0,0,0.1-0.1,0.1h-0.6
			c-0.3,0-0.8,0.1-1-0.1h-4c0,0,0-0.1,0.1-0.1c-0.3,0-0.9,0.1-0.9,0.1h-0.1l0.1-0.1V7.7l-0.5,0.1l-0.1-0.4h-0.8l-2.7-0.1l-0.1,0.4
			l-0.2-0.1h-0.1l0.1,0.2c0,0-0.8-0.1-1.2-0.1h-2.3c-0.4,0-0.9,0-1.2-0.1c-0.2-0.1-1.4,0-1.5,0.1H31c0-0.1,0,0,0.1-0.1V7.5l-0.2,0.1
			c-0.1,0-0.1-0.1-0.2-0.2c-0.1,0-0.1,0-0.2-0.1l-0.1-0.2c-0.1,0-0.2,0-0.3-0.1c-0.2-0.2-0.3-0.5-0.6-0.6c0.1-0.1,0.2,0,0.3-0.1h0.1
			v0.1c-0.1,0,0,0-0.2,0V6.2c0.1,0,0.1,0,0.2,0.1c0-0.6,0-1.1,0-1.7c-0.2,0-0.4,0-0.5,0.1c-0.6,0-1,1.1-0.4,1.3
			c0,0.2-0.1,0.3-0.3,0.4v0.2c0.1,0,0.1,0,0.2-0.1c0,0.1,0,0-0.1,0.1v0.1c-0.1-0.1-0.1-0.1-0.3-0.1l-0.1-0.2h-0.1
			c0-0.1,0-0.1-0.1-0.2c-0.1,0.1-0.2,0-0.3-0.1V5.9h-0.1c-0.1-0.2,0.1-0.3,0-0.5s-0.4-0.2-0.5-0.3c-0.2-0.2-0.2-0.5-0.4-0.7
			c-0.1-0.1,0,0-0.1,0.1c-0.1-0.1-0.1-0.2-0.2-0.4c-0.1-0.1,0,0-0.2,0c-0.1-0.1-0.1-0.2-0.2-0.3c0,0,0-0.1-0.1-0.1v0.1H26
			c-0.1-0.2-0.2-0.4-0.4-0.6h-0.1c0,0.1,0,0.1,0.1,0.2v0.2C25.4,3.5,25,3.1,25,2.9c-0.1,0-0.2,0-0.3,0c-0.1-0.1,0,0-0.1-0.2
			c-0.1,0-0.2,0-0.4-0.1c-0.2-0.1-0.3-0.3-0.4-0.4h-0.1C23.5,2,23.2,1.8,23,1.7c-0.1-0.1-0.3-0.1-0.4-0.2l-0.1-0.1
			c-1.2-0.6-3.3-0.8-4.9-0.4c-0.2,0-0.4,0-0.6,0.1c-0.3,0.1-0.8,0.2-1.1,0.4c-0.2,0.1-0.3,0-0.4,0.2h-0.1v0.1
			c0.6-0.1,1.2-0.3,1.7-0.4c0.3-0.1,0.7-0.1,1-0.2H19c0.5-0.1,1.7-0.1,2.1,0c0.9,0.2,1.6,0.5,2.3,1c0.4,0.2,1.3,0.6,1.2,1.1
			c0.1,0,0,0,0.1-0.1c0.1,0,0.2,0.2,0.4,0.3C25,3.6,25,3.6,24.8,3.6c0.1,0.2,0.5,0.3,0.8,0.3c-0.1,0.4,0.2,0.2,0.4,0.4v0
			c0.2,0.1,0.3,0.2,0.5,0.2c-0.1,0.1,0,0-0.1,0.1c0,0.3,0.3,0.3,0.5,0.3c0,0.1,0,0.1-0.1,0.1v0.1c0.2,0,0.4,0.1,0.5,0.1v0.3h0.1
			c0.1,0.1,0.1,0.2,0.2,0.3v0.1c-0.5,0-1.7,0.1-1.9-0.1h-0.5l0.1,0.1c-0.2,0-0.5-0.2-0.7-0.1c0,0-0.2,0-0.2-0.1h0.1v0
			c-1,0-1.4-0.3-2-0.2h-0.2V5.4c-0.1-0.1-0.2,0.1-0.2,0.1V5.4H22l-0.1,0.2c-0.2,0.1-0.5-0.1-0.5-0.1c-0.1,0-0.1,0.1-0.1,0.1
			c-0.3,0-0.6,0-0.9-0.1c0,0,0-0.1-0.1-0.1c-0.2-0.1-0.3-0.2-0.5-0.1c0-0.2,0-0.4-0.1-0.5c0-0.2,0-0.1,0.2-0.1V4.5
			c-0.2,0-0.2-0.1-0.2,0.1c-0.1,0.1,0,0.1-0.2,0.1c0-0.1,0-0.1-0.1-0.2c-0.1,0-0.4,0.1-0.5,0.2c-0.3,0-0.3,0.1-0.3-0.2
			c-0.5,0-0.9,0.2-1.3,0.4C17.1,5,17,5,16.9,5c0,0-0.1,0.1-0.2,0.2h-0.3v0.1c-0.1,0-0.2-0.1-0.2-0.1c-0.3-0.1-0.7,0-1-0.2
			c-0.2,0.1,0,0.2-0.2,0.3c-0.1,0-0.1,0-0.2-0.1c-0.2,0.1-0.4,0.3-0.5,0.5L14.4,6c-0.1,0.1-0.3,0.3-0.4,0.4v0.1
			c-0.3,0.4-0.7,1-0.8,1.4S13,9.3,12.9,9.4v0.1c-0.5-0.1-1.2-0.1-1.6-0.2h-0.7c-0.2,0-0.4-0.3-0.6-0.2H9.9v0.2c0,0-0.1,0-0.1,0.1
			c-0.5,0-1.8,0-2.1-0.1c-0.2-0.1-1-0.1-1.1,0.1H6.5c0,0,0-0.1,0.1-0.1c-0.2,0-0.4,0-0.5-0.2H6c0.1,0.1,0.1,0.1,0.3,0.2
			c-0.2,0.1-0.6,0-0.9,0.1c0,0-0.5,0.1-0.6,0.1c0,0,0-0.1-0.1-0.1C4.4,9.4,4,9.6,3.8,9.7c-0.1,0-0.2,0-0.2-0.1c-0.2,0-0.5,0-0.6,0.1
			c-0.3,0.1-0.8,0.2-1,0c-0.1,0,0,0-0.1,0.1c0,0.1,0,0-0.1,0.1c0-0.2,0,0.1-0.1,0.1L1.6,9.9c-0.2,0.4-0.5,0.8-0.6,1.3s0.3,0.9,0,1.3
			v0.3c0.2,0,0.1,0,0.3,0c0,0.1,0.1,0.2,0.2,0.2v0.3c0,0.1,0.1,0.2,0.2,0.2c0,0,0,0.1-0.1,0.1c0,0.1,0.4,0.1,0.4,0.3V14l0,0
			c0,0.4,0.2,0.3,0.4,0.4l0.1,0.2c0.1,0,0.1,0,0.2-0.1c0.1,0.1,0.1,0.3,0.2,0.5c0.1,0.2,0.2,0.5,0.4,0.6c0.1,0.2,0.3,0.2,0.5,0.3
			c0.1,0.1,0.1,0.3,0.3,0.4c0.2,0.2,0.6,0.2,0.7,0.4c0.2,0,0.3-0.2,0.3-0.2s1.4,0.9,1.9,1.1s1.4,0.5,2,0.6c2.3,0.5,6.5,0.4,9.7,0.4
			h12.7c0.6,0,1.3,0,1.8-0.1c0.1,0,6.2-3.2,6.5-3.7c0.1-0.2,0.2-0.5,0.3-0.8v-0.4c0,0,0.1-0.1,0.2-0.1c0.2,0,0.2,0.1,0.3,0.1
			c0,0.2-0.1,0.8-0.2,1v0.1c0.2,0,0.4-0.1,0.6,0h0.2c0-0.1,0-0.3-0.1-0.4V14c0.1,0.1,0.2,0.1,0.2,0.2H41c-0.1-0.2-0.2-0.2-0.3-0.3
			c-0.1-0.2-0.1-0.5-0.1-0.7c-0.2-0.1-0.4-0.1-0.5-0.2c-0.1-0.1-0.1-0.3-0.2-0.4h-0.1c-0.3-0.2-0.4-0.5-0.8-0.6v0h0.3
			c0.2-0.1,0.3-0.2,0.5-0.2v-0.1c-0.6-0.1-1.3-0.4-2-0.4V11l-0.5-0.4c-0.1-0.1-0.2,0.1-0.3,0.1c0,0-0.1,0-0.2-0.1l0.1-0.1
			c-0.1-0.1-0.2,0-0.3,0h-0.2l0.1-0.1c-0.1,0-0.2,0-0.3-0.1c0,0,0-0.1,0.1-0.1c-0.1,0-0.1,0-0.2,0.1c0.1-0.1-0.5-0.5-0.6-0.6
			c-0.3,0-0.6,0-1,0.1l-0.1-0.2c-0.1-0.1-0.1,0.1-0.2,0C34,9.5,34,9.5,34,9.4c-0.1,0,0,0-0.1,0.1h-0.1l0.1-0.1c-0.1,0,0,0-0.1,0.1
			h-0.1c0,0,0-0.1,0.1-0.1c-0.5,0-1.3,0.1-1.8,0.2c-0.2,0.1-0.3-0.1-0.4-0.2c-0.2-0.1-0.4,0.1-0.5,0.2L31,9.5h0v0.1
			c-0.2-0.1-0.7-0.2-1-0.2c0.2-0.1,0.3-0.1,0.5-0.2V9.1c0.1,0,0.2,0,0.3,0.1c0.1,0,0.2-0.1,0.3-0.1V8.8c2.1,0,6.2-0.1,6.2-0.1v0.1
			h1.2L41,8.9h0.6V8.7c0,0,6.3-0.3,8.5,0.1c0.2-0.1,0.4-0.1,0.5-0.2v0.1c0,0,0.5-0.1,0.6-0.1v0.1h0.1l0.1-0.1
			c0.2-0.1,0.2,0.1,0.2,0.1l0.3,0.1C52,8.8,52,8.7,52,8.7c0.1,0,0.1,0.1,0.1,0.1c0.2,0,0.1-0.2,0.3-0.1v0.1c0.2,0.1,0.3-0.1,0.4-0.1
			c0.2,0,0.5,0.1,0.7,0.1C53.5,8.5,53.3,8,53.6,7.7L53.6,7.7L53.6,7.7z M26.7,3.9h-0.1C26.6,4,26.6,4,26.7,3.9L26.7,3.9z M52.4,7.8
			L52.4,7.8C52.3,7.8,52.3,7.8,52.4,7.8L52.4,7.8z M48.8,7.8L48.8,7.8C48.8,7.9,48.7,7.8,48.8,7.8L48.8,7.8z"/>
	</g>
</g>
<g>
	<g>
		<path class="st3" d="M52.4,8.1C52.3,8,52,7.9,51.8,8c0,0,0,0.1-0.1,0.1c0,0-0.2-0.1-0.3-0.1c-0.2,0-0.6,0-0.8,0.1
			c-0.4,0-1.1-0.1-1.1-0.1l-5,0.1c0,0-1.6,0-2.4,0c-0.3,0-0.9-0.1-0.9-0.1h-0.1V8h-0.5l-0.1-0.3h-0.9l-2.6-0.1L37,8.1L36.8,8
			l-0.1,0.2c0,0-4.1-0.1-6.1-0.1c0-0.1,0-0.2,0-0.3c-0.5,0-0.9-0.4-1-0.7c0,0,0,0-0.1,0c0,0.1,0.1,0.2,0.2,0.3
			c-0.2-0.2-0.4-0.3-0.6-0.5c0.2-0.1,0.5,0,0.7-0.1c0.1,0,0.2-0.2,0.4-0.2c0-0.1,0-0.3,0-0.4c-0.3-0.1-0.4-0.2-0.8-0.2
			c0-0.4,0-0.7,0-1.1c-0.7,0-1.1,0.2-1.2,0.7c0,0.1,0,0.3,0.1,0.4c0,0.1-0.1,0.6,0,0.7c0,0,0,0,0,0.1c-0.4-0.2-0.2-0.4-0.4-0.7
			c0,0-0.1,0.1-0.2,0c0-0.2,0-0.3-0.1-0.5c-0.1-0.2-0.2-0.2-0.3-0.5c-0.1,0.1-0.1,0.3-0.1,0.4c-0.1-0.1-0.1-0.1-0.3-0.1
			c-0.1-0.2-0.2-0.5-0.4-0.7c0,0,0-0.1-0.1-0.1c0,0,0,0.1,0,0.1c0,0,0,0-0.1,0c-0.1-0.2-0.2-0.3-0.3-0.5c0,0.1,0,0-0.1,0.2
			c0,0,0,0-0.1,0C26,4.3,25.9,4.2,25.8,4c0,0,0,0-0.1,0c0,0.1,0,0.1,0.1,0.2c-0.1-0.1-0.3-0.4-0.4-0.5c0,0,0,0-0.1,0
			c0,0.1,0,0.1,0.1,0.2c0,0.3-0.1,0.4-0.3,0.5c0.1,0.3,0.3,0.1,0.4,0.3c-0.1,0.3,0.3,0.2,0.4,0.4c0,0.1,0,0.1-0.1,0.2
			c0.2,0.1,0.3,0.1,0.5,0.2c0,0-0.1,0.1-0.1,0.2c0,0,0.3,0.1,0.4,0.2c0.1,0.1,0.2,0.3,0.3,0.5c0,0,0,0,0,0.1c-1.1,0-2.1,0.1-3.1-0.2
			c-0.2,0-0.5,0-0.7,0.1C23,6.1,23,5.9,22.9,5.8c-0.2-0.1-0.3-0.1-0.5-0.2c0,0-0.2-0.1-0.2-0.2c-0.6-0.2-1.4,0.5-1.6,0.3
			c-0.2,0-0.5,0-0.7,0c0-0.1,0,0-0.1-0.1c0,0,0,0,0-0.1c0.3,0,0.6,0,0.8,0c0-0.2,0-0.2,0.2-0.3c-0.1-0.2-0.1-0.1-0.2-0.2
			c0-0.1,0-0.2,0-0.3c0,0-0.1,0-0.1,0c0.1-0.1,0.3-0.1,0.5-0.1c-0.1-0.1-0.1-0.4,0-0.5c0-0.1,0-0.1,0.1-0.2c0.1,0,0.2,0,0.4-0.1
			c0-0.1,0-0.1,0-0.2c0.2,0,0.3-0.1,0.5-0.2c0.2-0.1,0.3,0.1,0.5,0c0.1,0.1,0.1,0.1,0.2,0.3c0.5,0,0.9-0.2,1.4-0.3
			c0-0.2,0-0.1,0-0.4c0.2,0,0.4-0.1,0.5-0.2c0.1-0.1,0,0,0.1-0.1c0,0-0.1-0.1-0.1-0.1c-0.1-0.1-0.3,0-0.4,0.1c0,0-0.1,0-0.1,0
			c0-0.1,0,0-0.1-0.1c0-0.1,0-0.1,0.1-0.2c0.2-0.2,6.6-1.2,6.6-1.2l-0.1-0.3V1.3c0,0-6,1.2-6.7,1.2c0-0.2,0-0.4-0.2-0.5
			c0,0,0,0,0-0.1c0,0,0,0-0.1,0c-0.1,0-0.3,0.1-0.5,0.1c0,0-0.1-0.1-0.2-0.1c0,0,0,0.1-0.1,0.1c-0.1,0-0.1,0-0.2,0
			c-0.1,0-0.2,0.2-0.3,0.2c-0.1,0-0.1-0.1-0.2-0.1c-0.2,0-0.3,0-0.5,0.1c0,0.1,0,0.2,0,0.3c-0.1,0-0.1,0-0.2,0c0-0.3,0-0.3,0.2-0.4
			c0-0.1,0-0.2,0-0.3c-0.1,0-0.1,0-0.2,0c-0.1,0-0.1,0-0.2,0.1c0,0.1,0.1,0.2,0.1,0.3c0,0.1,0,0.3-0.1,0.4c-1,0-2.2-0.4-3.4-0.4
			c0,0,0,0.1,0,0.1c0.1,0,0.2,0,0.3,0.1c0,0,0,0.1,0,0.1c-0.1,0-0.2,0-0.4,0.1c-0.1,0.1-0.2,0.2-0.3,0.3c0,0.1,0,0-0.1,0.1
			c0,0.1,0,0.2,0.1,0.3c0.1,0.1,0.3,0,0.4,0.1c0.4,0.2,0.6,0.4,1.2,0.4c0,0.2,0.2,0.3,0.2,0.5c0,0.2,0,0.5-0.1,0.7
			c0.2,0,0.4,0,0.6,0c0,0.1,0,0.2-0.1,0.3c-0.1,0.1-0.3,0.1-0.4,0.2c-0.1,0-0.1,0-0.2-0.1c0-0.2,0-0.2,0.1-0.3c-0.1,0-0.2-0.1-0.3,0
			c0-0.1,0,0-0.1-0.2c-0.3,0-0.4,0.2-0.6,0.3c-0.2,0.1-0.3-0.1-0.5-0.1c-0.3,0.1-0.6,0.4-0.8,0.1c-0.3,0-0.4-0.1-0.4,0.2
			c-0.2,0-0.2-0.2-0.4-0.1c0,0-0.1,0.2-0.4,0.1c-0.1,0,0-0.1-0.2-0.1c-0.1,0.1-0.1,0.1-0.3,0.2c0,0.1,0.1,0.2,0.2,0.2c0,0,0,0,0,0.1
			c-0.2,0-0.6-0.1-0.8-0.2c-0.4,0-0.2,0.1-0.3,0.3C14.5,5.4,14,6,14,6.1c0,0.1,0.1,0.2,0.1,0.2c-0.1,0-0.1,0.1-0.2,0.1
			c-0.1,0.1-0.5,1-0.6,1.1c-0.3,0.7-0.7,1.3-0.6,2.4c-0.4,0-0.8-0.1-1.1-0.2c-0.3,0-0.6,0-0.9,0c-0.2-0.1-0.7-0.3-0.8-0.3
			c-0.2,0-0.4,0.1-0.4,0.3c-0.5,0-1.3,0-1.6-0.3c0,0,0,0-0.1,0C7.8,9.7,7.8,9.7,8,9.7c-0.1,0.1-0.3,0-0.4-0.1c0,0-0.1,0-0.1,0
			c0,0,0,0.1,0.1,0.1C7.1,9.7,6,9.7,5.8,9.5c0,0,0,0-0.1,0C5.8,9.6,5.8,9.6,6,9.7c-0.1,0.1-0.6,0-0.7-0.1c0,0-0.2,0-0.2,0.1
			c0,0.1,0.1,0,0.1,0.1c-0.2,0-0.5,0-0.7,0C4.1,9.8,3.8,10,3.6,10C3,10.2,2.3,9.9,1.9,10.2c-0.2,0-0.1,0-0.1-0.2
			c-0.2,0-0.5,0.2-0.6,0.4c0,0.1,0,0.2-0.1,0.3c0,0-0.1,0-0.1,0.1C1.1,10.9,1,11,1,11.1c-0.1,0-0.1,0-0.2,0.1c0,0.1,0,0.2,0,0.3
			l-0.1,0.2c-0.1,0.5,0.3,0.9,0,1.2c0,0.1,0,0.2,0.1,0.3c0.1,0.1,0.1,0,0.2,0c0,0.1,0.1,0.1,0.2,0.2c0,0.1,0,0.2,0.1,0.4
			c0,0,0.1,0,0.1,0.1c0,0.1,0,0.1-0.1,0.2c0.1,0.1,0.3,0.2,0.4,0.3c0.1,0.1,0,0.3,0.1,0.4c0.1,0,0.2,0,0.3,0.1
			c0.1,0.1,0.1,0.2,0.2,0.3c0,0,0.1,0,0.1,0c0,0.1,0,0.1,0,0.2c0.1,0.1,0.1,0.4,0.2,0.6c0.1,0,0.1,0.1,0.2,0.1
			c0.1,0.1,0,0.2,0.1,0.3c0.1,0,0.1,0,0.2,0.1c0.1,0.1,0.1,0.2,0.2,0.3c0,0,0.1,0,0.1,0c0.1,0.1,0.1,0.2,0.1,0.3c0,0,0.9,0.5,1,0.5
			c0.1,0.1,0.2,0,0.3-0.1c0,0,0.2,0,0.3,0.1c0.3,0.2,0.9,0.6,1,0.6c0.1,0.1,1.3,0.9,1.4,0.9c0.8,0.4,2.1,0.4,3.3,0.4
			c5.2,0,10.6,0.1,15.8,0.1c1.5,0,3.1,0,4.6,0c0.7,0,1.5,0,2-0.1c0.1,0,1.5-0.6,1.9-0.8c0.4-0.3,2.7-1.9,2.8-2
			c0.7-0.5,1.5-0.8,1.5-2c0.1-0.1,0.1,0,0.2-0.2c0.1,0,0.1,0.1,0.3,0.1c0,0.3,0,0.8-0.2,0.9c0,0,0,0.1,0,0.1c0.2,0,0.5,0,0.7,0
			c0-0.2,0-0.5-0.1-0.6c0-0.1,0-0.1,0-0.2c0,0,0,0,0.1,0c0.1,0.1,0.1,0.2,0.2,0.3c0,0,0.1,0,0.1,0c-0.1-0.2-0.2-0.2-0.3-0.4
			c0-0.2-0.1-0.5-0.1-0.7c-0.2-0.1-0.3-0.1-0.5-0.2c0-0.1,0-0.1-0.1-0.2c-0.2-0.3-0.5-0.7-1-0.8c0.1-0.1,0.6-0.2,0.7-0.3
			c0,0,0-0.1,0-0.1c-0.3-0.1-0.6-0.1-0.9-0.2c-0.3-0.1-0.6-0.2-0.9-0.2c-0.2-0.5-0.6-0.6-1.1-0.8c-0.3-0.1-0.6-0.1-0.8-0.3
			c0,0-0.1,0-0.1,0c0,0,0-0.1,0.1-0.1c-0.2-0.1-0.4-0.2-0.7-0.3c-0.2,0-0.5,0-0.7,0.1c0-0.1-0.1-0.1-0.1-0.2
			c-0.1-0.1-0.5-0.2-0.7-0.3c-0.5,0-1,0.1-1.5,0.1c-0.1,0-0.3,0.2-0.4,0.1c0,0-0.2-0.1-0.2-0.2c-0.2-0.1-0.4,0.1-0.5,0.2
			c-0.2,0.1-0.8-0.1-0.9-0.1c0,0,0,0-0.1,0c0.2-0.2,0.6-0.2,0.9-0.2c0-0.1,0-0.2,0-0.3c2,0,6.1-0.1,6.1-0.1v0.2l3.2-0.1L41,9.4h0.1
			V9.2L48,9.1l1.8,0.1l0.4-0.1c0,0,0.9,0,1.2,0.1c0.1,0,0.2,0,0.3-0.1c0,0,0,0.1,0.1,0.1c0.1,0.1,0.4,0,0.5-0.1c0.2,0,0.5,0,0.7,0.1
			c0-0.5,0-0.9,0-1.4C52.8,8,52.6,8,52.4,8.1z M21.4,2c0.1,0.1,0,0,0.1,0.1C21.4,2,21.4,2.1,21.4,2z M21.1,3.7c0.2,0,0.4,0,0.5-0.1
			c0.2,0,0.2,0,0.3,0.1c-0.2,0.2-0.6,0.1-0.7,0.3c0,0-0.1,0-0.1,0C21,3.9,21.1,3.8,21.1,3.7z M19,3.3c-0.3,0-0.9-0.2-1-0.4
			c0,0-0.1-0.1-0.1-0.2c0.1,0,0.2-0.1,0.2-0.1c0.3,0,0.2,0.1,0.3,0.3c0.1,0,0,0,0.2,0.1c0,0.1,0,0.1,0,0.2c0.4,0,0.2-0.1,0.4-0.2
			c0-0.3,0-0.2-0.1-0.4c0.1,0,0,0,0.1-0.1c0.2,0,0.3,0,0.4,0.1C19.2,2.8,19.1,3.1,19,3.3z M20.2,4.3c0,0,0,0.1,0,0.1c0,0,0,0-0.1,0
			c0-0.1,0-0.1,0.1-0.2C20.2,4.2,20.2,4.2,20.2,4.3z M19.4,2.5c0.1,0,0,0,0.1,0.1C19.4,2.6,19.5,2.6,19.4,2.5z M19.9,2.6
			c0.1,0,0.2,0,0.4,0.1c-0.1,0.1-0.2,0-0.2,0.2C20,2.8,19.9,2.7,19.9,2.6z M1.5,13.5C1.5,13.5,1.5,13.6,1.5,13.5
			C1.5,13.6,1.4,13.6,1.5,13.5c-0.1,0-0.1,0-0.1-0.1c0-0.2,0-0.1,0.1-0.2c0,0,0.1,0.1,0.1,0.2C1.6,13.5,1.5,13.5,1.5,13.5z
			 M1.7,10.2c0.1,0,0,0,0.1,0.1C1.7,10.3,1.8,10.3,1.7,10.2z M3.4,10.1c0.3,0,0.6,0,0.8,0C4.1,10.2,3.5,10.2,3.4,10.1z M4.8,10
			c0.1,0,0,0,0.1,0.1C4.8,10.1,4.8,10.1,4.8,10z M5,10.2c0,0,0-0.1,0-0.1C5.1,10.2,5,10.1,5,10.2C5.1,10.2,5,10.2,5,10.2z M29,7.1
			c-0.1-0.1-0.2-0.1-0.2-0.2c0,0-0.1,0-0.1,0C28.7,7,28.8,7,28.8,7.1C28.7,7,28.6,7,28.5,7c0-0.1,0-0.1,0-0.2c0.2,0,0.3,0,0.5,0
			C29,6.9,29,7,29,7.1z M29.2,9.9c0,0,0,0.1-0.1,0.3c0,0-0.1,0-0.1,0c0-0.1,0-0.2,0-0.3C29.1,9.8,29.1,9.8,29.2,9.9
			C29.2,9.8,29.2,9.9,29.2,9.9z M29.4,10c0.1,0,0.1,0,0.2,0C29.6,10.1,29.5,10.1,29.4,10z"/>
	</g>
</g>
</svg>
