<svg xmlns="http://www.w3.org/2000/svg" xmlns:xlink="http://www.w3.org/1999/xlink" preserveAspectRatio="xMidYMid" width="57" height="16" viewBox="0 0 57 16">
  <defs>
    <style>
      .cls-1 {
        fill: #fab81b;
        fill-rule: evenodd;
      }
    </style>
  </defs>
  <path d="M1.771,8.815 C1.638,8.782 0.904,8.548 0.904,8.548 L0.047,8.098 L0.047,7.164 L0.987,6.158 L1.654,6.185 L2.305,6.147 L3.038,6.881 L3.672,7.014 L4.172,6.547 L5.106,6.380 L5.942,7.133 L14.942,7.156 L16.212,5.280 L18.279,3.813 L18.413,3.379 L19.926,3.046 L20.180,2.137 L22.925,2.128 L22.915,1.311 C22.915,1.311 22.806,0.844 22.940,0.844 C23.073,0.844 23.340,0.878 23.340,0.878 L23.449,1.186 L26.096,1.182 L26.517,1.388 L32.920,1.382 C32.912,1.437 33.207,1.830 32.656,1.873 C30.856,2.015 26.383,1.999 26.383,1.999 L26.250,2.078 L27.017,2.045 L27.017,2.245 L25.516,2.445 L23.615,2.312 L24.001,3.177 L25.018,3.214 C25.018,2.914 25.716,2.845 25.716,2.845 C25.716,3.212 29.885,3.846 29.885,3.846 L31.753,3.546 L32.587,3.846 L31.953,4.079 L34.021,4.780 L34.221,5.155 L48.962,5.190 L49.237,4.676 L51.997,4.676 L52.614,5.192 L54.481,5.190 L55.231,4.980 L56.953,5.174 L56.949,6.187 C56.949,6.187 55.231,6.614 55.231,6.481 C55.231,6.347 54.498,6.214 54.498,6.214 L52.664,6.214 L52.130,6.639 L49.195,6.628 L49.072,6.147 L34.221,6.155 L33.921,6.647 L31.619,7.214 L34.154,7.248 L34.721,7.481 L35.121,7.148 L35.488,7.214 L35.588,7.715 L38.010,9.194 L39.357,8.948 L40.157,9.249 L41.258,9.149 L43.259,9.716 L43.892,10.583 L43.992,12.137 L43.000,12.131 L42.658,13.151 L36.755,15.893 L35.955,16.026 L10.019,15.978 L4.839,13.384 L3.872,12.217 L3.013,12.117 L3.011,11.193 L1.871,11.416 L0.637,11.516 L0.270,10.683 L0.704,10.116 L1.404,9.916 L2.109,10.161 L1.671,9.315 C1.671,9.315 1.904,8.848 1.771,8.815 Z" class="cls-1"/>
</svg>
