<svg xmlns="http://www.w3.org/2000/svg" width="51" height="16" viewBox="0 0 51 16">
  <path fill="#FAB81B" fill-rule="evenodd" d="M1.964,7.869 L3.134,6.963 L12.983,6.981 L12.966,5.696 L14.164,3.845 L12.938,2.813 L13.626,2.339 L14.896,3.006 L15.412,2.576 L16.109,2.867 L18.963,1.994 L19.033,1.062 C19.033,1.062 19.915,1.05 19.915,0.964 C19.915,0.878 20.017,0.011 20.017,0.011 L20.963,0.013 L20.97,1.053 L27.982,0.985 L27.982,1.459 L25.224,1.467 L25.095,1.956 L21.034,1.964 L21.001,2.969 L21.673,2.554 L22.728,2.641 L23.301,2.948 L27.059,2.926 L27.975,3.974 L28.988,3.932 L29.006,1.988 L29.98,2.005 L29.961,4.19 L30.323,4.62 L30.431,4.857 L36.985,4.878 L37.028,4.472 L40.708,4.469 L40.939,4.972 L51.978,4.955 L51.968,5.972 L40.991,5.966 L40.716,6.294 L37.259,6.277 L37,6.103 L30.388,6.103 L30.28,6.361 L28.796,6.815 L25.848,6.815 L25.934,7.03 L33.011,7.045 L34.072,7.996 L35.013,7.288 L36.046,7.31 L36.011,7.991 L39.885,7.995 L40.832,8.751 L41.004,10.042 L39.925,10.276 L40.032,11.007 L39.559,12.191 L33.659,15.825 L32.411,15.997 L7.795,16.001 L2.695,12.926 L2.407,11.971 L0.987,11.972 L2.566,9.182 L1.964,7.869 L1.964,7.869 Z" transform="translate(-1)"/>
</svg>
