<svg xmlns="http://www.w3.org/2000/svg" width="55" height="21" viewBox="0 0 55 21">
  <path fill="#FAB81B" fill-rule="evenodd" d="M12.0222541,12.1084629 L12.0222541,12.8613022 L2.9873355,13.1636813 L2.00530985,14.3319386 L2.00530985,15.0383449 L2.9873355,15.0383449 L4.11455334,17.1121132 L4.11455334,17.1121132 C4.73209179,18.2482128 5.77895116,19.0896324 7.02127083,19.4484051 L7.60336272,19.6165089 L7.60336272,19.6165089 C8.5051992,19.8769526 9.4392145,20.0091203 10.3779051,20.0091203 L38.8503417,20.0091203 L38.8503417,20.0091203 C40.3020762,20.0091203 41.7494955,19.8510567 43.1670129,19.5377237 L44.4739773,19.2488277 L44.4739773,19.2488277 C46.6939749,18.7581116 48.6662116,17.4917962 50.0363197,15.6774104 L51.052334,14.3319386 L50.0722866,12.8613022 L46.9693681,11.0942212 L46.9693681,9.21459659 L45.679559,9.84120921 L45.4614147,11.0942212 L45.0157729,11.0942212 L42.499809,8.97728472 L26.184901,8.97728472 L24.7648495,12.1084629 L19.9348221,12.1084629 L19.9348221,11.0942212 L23.5720017,10.7712179 L24.2587921,7.4628752 L27.3888702,7.03673563 L27.3888702,6.06875762 L26.0039464,6.06875762 L26.5288219,5.01851283 L54.9306921,5.01851283 L54.9306921,3.0302595 L25.0188942,3.0302595 L18.0340977,3.0302595 L18.4767176,1.9991291 L18.6975915,1.9991291 L18.6975915,2.57952494 L25.0188942,2.55717504 L25.0188942,0.500409398 L18.2379951,0.500409398 L18.2379951,1.02373793 L18.0340977,1.02373793 L17.7237275,0 L12.9564817,0 L12.3704652,1.02373793 L9.44503911,1.02373793 L8.96285565,0 L-3.55271368e-15,0 L-3.55271368e-15,7.98369918 L6.95100623,7.98369918 L6.95100623,10.0734717 L7.95468492,10.9539003 L7.95468492,11.7898217 L12.0222541,12.1084629 Z"/>
</svg>
