<?xml version="1.0" encoding="UTF-8"?>
<!-- Generator: Adobe Illustrator 25.0.0, SVG Export Plug-In . SVG Version: 6.00 Build 0)  -->
<svg version="1.1" id="Layer_1" xmlns="http://www.w3.org/2000/svg" xmlns:xlink="http://www.w3.org/1999/xlink" x="0px" y="0px" width="71px" height="23.3px" viewBox="0 0 71 23.3" style="enable-background:new 0 0 71 23.3;" xml:space="preserve">
<style type="text/css">
	.st0{fill-rule:evenodd;clip-rule:evenodd;fill:#FAB81B;}
</style>
<path class="st0" d="M7.3,22.7c0.3,0.1,0.7,0.2,1.1,0.2l29.9,0c0.7,0,1.4-0.2,2-0.5c1-0.5,2.5-1.3,3.3-1.7c0.3-0.2,0.8-0.6,1.1-1.3  c0.2-0.4,0-0.8,0-0.8l0.9-1.1l0,1.3h0.3l-0.2-1.5c0,0,0.2-0.6,0.2-0.8c0-0.2-0.2-0.6-0.3-0.8c-0.1-0.2-0.5-0.5-0.7-0.7  c-0.2-0.1-0.7-0.4-1-0.5c-0.4-0.1-1.1-0.3-1.4-0.3c-0.5,0-1.8,0.1-1.8,0.1l0.2,0.2c0,0,1.2-0.1,1.6,0c0.4,0,1.2,0.2,1.5,0.4  c0.3,0.1,0.9,0.5,1.1,0.7c0.2,0.2,0.3,0.5,0.4,0.8c0,0.2-0.1,0.7-0.1,0.7l-1-0.8c0,0-0.6-0.3-0.9-0.4c-0.2,0-0.7-0.1-0.7-0.1  l-0.2-0.7l-1.1,0l-1.2-0.8L39.8,14l-5.9-0.2v-0.2h1v-0.4l-0.3-0.4l0.9,0.2v-0.2h5.4v-0.3l22.8-0.2v0.2h5.7v-1.8h-5.8V11H41v-0.5  h-6.2l-0.4-0.4l0.6-0.3V7.9c0,0-0.8-0.1-1,0c-0.1,0-0.4,0.3-0.4,0.4c-0.1,0.1-0.2,0.4-0.2,0.5c0,0.1,0,0.5,0,0.6  c0,0.1,0.2,0.3,0.2,0.3h-0.8L32.7,9h-0.7l-0.3-0.3h-1.8l-0.3-0.3L30,7.6l-1.4,0v1h-0.3V7.6l-0.4,1.1h-1.2V8.3h-0.4V7.8h-0.4L26,7  h0.7V5.7c0,0-0.4,0-0.5,0c-0.2,0-0.5,0.1-0.6,0.2c-0.1,0.1-0.3,0.3-0.4,0.4c0,0.1,0.3,0.6,0.3,0.6l-0.1,0.2l-1.1,0.2h-1.3v0.3h-0.4  l-0.3-0.3v0.4H22l-0.2,0.5h-0.5v0.5h-0.5V8.4H20v0.3c0,0-0.2-0.2-0.3-0.3c-0.2-0.1-0.5-0.3-0.7-0.3c-0.2,0-0.7,0-0.8,0.1  c-0.1,0.1-0.4,0.2-0.5,0.3c-0.1,0-0.1,0.2-0.1,0.2h-2.3l-0.1-0.4l-0.2-7.9l-0.1,7v1l-0.3,0.3h-0.4V7.9h-0.6l-0.2,0.2l0.2,0.2v0.5  l-0.8,1V11h-1.3v2.2h1.2v0.2h7l0.2,0.2h-3V14h-1.6l-0.3-0.3h-3.2L11.7,14H9.8c0,0,0-0.3-0.1-0.4c-0.1-0.1-0.3-0.1-0.4-0.1  c-0.1,0-0.2,0.3-0.2,0.3L6.4,14H2.7v1.6c0,0-0.2-0.4-0.3-0.5C2.2,15,1.9,14.9,1.7,15c-0.1,0-0.4,0.2-0.5,0.3  c-0.1,0.1-0.1,0.5-0.1,0.7c0.1,0.2,0.5,0.5,0.5,0.5v0.7c0,0-0.4,0.3-0.4,0.4c-0.1,0.1-0.2,0.5-0.2,0.7c-0.1,0.2-0.2,0.8-0.2,0.8h0.4  c0,0,0.2-0.4,0.3-0.5c0.1-0.1,0.4-0.3,0.4-0.3l0.3,0.8c0,0-0.2,1-0.1,1.3c0.1,0.3,0.6,0.7,0.9,0.9C3.9,21.9,7.3,22.7,7.3,22.7z"/>
</svg>