<?xml version="1.0" encoding="utf-8"?>
<!-- Generator: Adobe Illustrator 25.3.1, SVG Export Plug-In . SVG Version: 6.00 Build 0)  -->
<svg version="1.1" id="Layer_1" xmlns="http://www.w3.org/2000/svg" xmlns:xlink="http://www.w3.org/1999/xlink" x="0px" y="0px"
	 width="62.2px" height="22.4px" viewBox="0 0 62.2 22.4" style="enable-background:new 0 0 62.2 22.4;" xml:space="preserve">
<style type="text/css">
	.st0{display:none;fill-rule:evenodd;clip-rule:evenodd;fill:#FAB81B;}
	.st1{display:none;}
	.st2{display:inline;}
	.st3{fill-rule:evenodd;clip-rule:evenodd;fill:#FAB81B;}
	.st4{fill-rule:evenodd;clip-rule:evenodd;fill:#8C8C7C;}
</style>
<path class="st0" d="M3.9,21.4c0.3,0.1,0.7,0.2,1.1,0.2h29.9c0.7,0,1.4-0.2,2-0.5c1-0.5,2.5-1.3,3.3-1.7c0.3-0.2,0.8-0.6,1.1-1.3
	c0.2-0.4,0-0.8,0-0.8l0.9-1.1v1.3h0.3L42.3,16c0,0,0.2-0.6,0.2-0.8s-0.2-0.6-0.3-0.8s-0.5-0.5-0.7-0.7c-0.2-0.1-0.7-0.4-1-0.5
	c-0.4-0.1-1.1-0.3-1.4-0.3c-0.5,0-1.8,0.1-1.8,0.1l0.2,0.2c0,0,1.2-0.1,1.6,0c0.4,0,1.2,0.2,1.5,0.4c0.3,0.1,0.9,0.5,1.1,0.7
	c0.2,0.2,0.3,0.5,0.4,0.8c0,0.2-0.1,0.7-0.1,0.7L41,15c0,0-0.6-0.3-0.9-0.4c-0.2,0-0.7-0.1-0.7-0.1l-0.2-0.7h-1.1L36.9,13l-0.5-0.3
	l-5.9-0.2v-0.2h1v-0.4l-0.3-0.4l0.9,0.2v-0.2h5.4v-0.3L60.3,11v0.2H66V9.4h-5.8v0.3H37.6V9.2h-6.2L31,8.8l0.6-0.3V6.6
	c0,0-0.8-0.1-1,0c-0.1,0-0.4,0.3-0.4,0.4C30.1,7.1,30,7.4,30,7.5s0,0.5,0,0.6s0.2,0.3,0.2,0.3h-0.8l-0.1-0.7h-0.7l-0.3-0.3h-1.8
	l-0.3-0.3l0.4-0.8h-1.4v1h-0.3v-1l-0.4,1.1h-1.2V7h-0.4V6.5h-0.4l0.1-0.8h0.7V4.4c0,0-0.4,0-0.5,0c-0.2,0-0.5,0.1-0.6,0.2
	S21.9,4.9,21.8,5c0,0.1,0.3,0.6,0.3,0.6L22,5.8L20.9,6h-1.3v0.3h-0.4L18.9,6v0.4h-0.3l-0.2,0.5h-0.5v0.5h-0.5V7.1h-0.8v0.3
	c0,0-0.2-0.2-0.3-0.3c-0.2-0.1-0.5-0.3-0.7-0.3s-0.7,0-0.8,0.1s-0.4,0.2-0.5,0.3c-0.1,0-0.1,0.2-0.1,0.2h-2.3L11.8,7l-0.2-7.9
	l-0.1,7v1l-0.3,0.3h-0.4V6.6h-0.6L10,6.8L10.2,7v0.5l-0.8,1v1.2H8.1v2.2h1.2v0.2h7l0.2,0.2h-3v0.4h-1.6l-0.3-0.3H8.4l-0.1,0.3H6.4
	c0,0,0-0.3-0.1-0.4c-0.1-0.1-0.3-0.1-0.4-0.1s-0.2,0.3-0.2,0.3L3,12.7h-3.7v1.6c0,0-0.2-0.4-0.3-0.5c-0.2-0.1-0.5-0.2-0.7-0.1
	c-0.1,0-0.4,0.2-0.5,0.3s-0.1,0.5-0.1,0.7c0.1,0.2,0.5,0.5,0.5,0.5v0.7c0,0-0.4,0.3-0.4,0.4c-0.1,0.1-0.2,0.5-0.2,0.7
	c-0.1,0.2-0.2,0.8-0.2,0.8h0.4c0,0,0.2-0.4,0.3-0.5S-1.5,17-1.5,17l0.3,0.8c0,0-0.2,1-0.1,1.3s0.6,0.7,0.9,0.9
	C0.5,20.6,3.9,21.4,3.9,21.4z"/>
<g class="st1">
	<g class="st2">
		<path class="st3" d="M53.5,10.8c-0.5,0-1.4,0-2,0v-0.3c-0.3,0-1.8,0.4-1.9,0.4c-0.1,0-0.2-0.2-0.3-0.3H44c-0.2,0-0.3,0.2-0.4,0.3
			c-0.4,0-0.9,0-1.2-0.1c-1,0-2,0-2.9,0h-3c-1.7,0-3.4-0.1-5.1-0.1v-0.2c-0.7,0-1.4,0-2-0.1c-0.5,0-0.7-0.3-1-0.4
			c-0.4-0.1-0.8-0.1-1.2-0.2c-1.2-0.4-2.5-0.9-4-0.9V8.7c-0.1,0-0.1,0-0.2,0.1h-0.4c0-0.1,0-0.1,0.1-0.3c-0.2,0-0.7,0-0.8,0.1h-0.1
			c0-0.2-0.1-0.4,0-0.5c0.1-0.2,0.4-0.2,0.6-0.4h0.1v0.4h1.1V7.6c0.6,0,1-0.1,1.6-0.1V7.1c-0.2,0-0.3,0-0.4,0.1h-0.5V7
			c0.8,0,1.6,0,2.4,0c1.6,0,3.2,0,4.6,0V6.6c-1.1,0-2-0.1-3.1-0.1c-0.7,0-1.2,0-2.1,0c-0.5,0-1.4,0-1.8,0c-0.1,0-0.1-0.1-0.2-0.1
			V6.3c-0.2,0-0.4,0-0.5-0.1h-0.1V6.1c-0.3,0-0.5-0.1-0.6,0h-0.4c0-0.1,0.1-0.2,0.2-0.3c0-0.1,0-0.2-0.1-0.3c-0.1,0-0.1,0-0.2,0.1
			c0,0,0,0.3,0,0.5h-0.1v0.1c-0.5-0.1-1.1-0.3-1.6-0.5c-0.3-0.1-0.7,0-1-0.2c-0.1,0-0.1,0-0.2,0.1v0.2c0.1,0,0.2,0,0.3,0.1
			c-0.1,0.1-0.2,0-0.4,0.1c-0.1,0.1-0.2,0.2-0.4,0.3c0,0.1,0,0-0.1,0.1v0.3c0.3-0.3,0.5-0.3,0.6-0.2c0.2,0.1,0.3,0.3,0.5,0.4
			c0.1,0,0.2,0,0.3,0.1c0.1,0.2,0,0.5,0.2,0.7c0.1,0,0,0,0.2,0.1v0.4c-0.1,0-0.2,0-0.3,0.1h-0.1V7.8c-0.5,0-0.9-0.2-1.3,0.1
			c-0.1,0-0.1-0.1-0.3-0.1c-0.2,0-0.4,0.2-0.6,0.3s-0.2-0.2-0.4-0.2c-0.2,0-0.4,0-0.7,0c0,0.2,0.1,0.2,0,0.3
			c-0.1,0.3-0.3,0.3-0.4,0.6c-1.3,0.1-1.3,0.3-2.1,0.9c0,0.2,0,0.1,0.1,0.2c-0.1,0.2-0.3,0.2-0.6,0.2v0.2c-0.1,0-0.2,0-0.3,0.1
			c0.1,0.7-0.3,1.2-0.4,1.8h0.2v0.5h-0.3V13h-0.3v-0.1c-0.2-0.1-0.3,0.1-0.3,0.1c-0.1-0.1-1.2-0.1-1.3-0.1H10V13H9.6
			c-0.2-0.1-0.4-0.1-0.8-0.1v-0.2l0,0v0.2c-0.2,0-0.2-0.1-0.3-0.3l-0.6-0.2v0.2c-0.1,0.1,0,0-0.1,0.1H7.5v-0.3H4.8
			c0,0.2-0.1,0.2-0.2,0.3c0,0-0.2,0-0.4,0v-0.2c-0.9,0-1.6,0.2-2.4,0.2V13c-0.2,0-0.2-0.2-0.4-0.2c-0.5,0.5-2.1-0.2-2.7,0.3
			c-0.5,0.1-0.9,1.1-0.6,1.7c0.2,0.3,0.8,0.9,1.8,0.6c0.5-0.1,0.5-0.4,0.5-0.7c0.2-0.2,0.4-0.3,0.6-0.4h0.1c0,0.1,0,0.2,0.1,0.3
			c0,0.1-0.2,0.2-0.1,0.4c-0.1,0.2-0.4,0.3-0.5,0.5c-0.2,0.3-0.4,0.8-0.5,1.1c-0.2,1,0.7,1.1,1,1.6c0.2,0.2,0.2,0.7,0.4,1
			c0.6,0.8,2.1,1,3.2,1.4c1,0.3,2,0.7,3,0.9c0.6,0.1,1.4,0.1,2,0.1h22.6c1.1,0,2.3,0.1,3.2-0.2c1.4-0.4,2.4-1.1,3.6-1.6
			c0.7-0.3,1.5-0.6,1.9-1.2c0.3-0.4,0.4-1.2,0.2-1.8c0.2-0.1,0.4-0.1,0.7-0.2v0.2c0.1,0,0,0,0.1,0.1c0.1,0,0.1,0,0.2-0.1
			c0-1.1-1.1-1.1-1.3-2c-0.3,0-0.6,0-0.9,0.1c-0.2-0.2-0.3-0.2-0.4-0.4h-0.2v-0.2c-0.2,0-0.2,0.1-0.4,0.1c0,0-0.2-0.1-0.2-0.2
			c-0.6-0.2-1.2-0.4-1.9-0.4c0.1-0.2,0.1-0.4,0.3-0.6c0-0.2,0-0.3-0.1-0.4c-0.4,0-0.9-0.1-1.2,0.1c0,0.1-0.1,0.3-0.1,0.5
			c-0.3-0.1-0.8,0-1.1-0.1c-0.4-0.1-0.8-0.4-1.2-0.5v-0.3h-0.6c0,0-0.1,0.1-0.2,0.2c-0.2,0.1-0.6-0.2-0.9-0.2c-1.2,0.2-1.8,0-3,0.1
			v-0.2c0.3,0.1,0.3-0.1,0.6-0.2c0.6,0,1.3,0,1.9-0.1V12c4.1-0.1,8.2-0.1,12.3-0.2c0.1,0.1,0.1,0.1,0.2,0.2h5c0.6,0,0.6,0.1,0.9-0.3
			c0.3,0,0.6,0.1,0.7,0.2c0.4,0.1,0.4,0.1,0.7,0.1c0.2,0,0.3,0.1,0.4,0.1V12c0.7,0,1.6,0,2,0C53.6,11.4,53.5,11.1,53.5,10.8z
			 M19.9,6.3c-0.1,0-0.1-0.1-0.2-0.2c0-0.1,0,0-0.1-0.2h0.3C19.9,5.9,19.9,6.3,19.9,6.3z M1,17.3v0.4c-0.3-0.2-0.4-0.4-0.6-0.7
			c0.1,0,0.1,0,0.3-0.1v-0.1c0.2,0,0.3,0,0.4,0.1C1.1,17,1.1,17.2,1,17.3z M0.8,13.5c0,0.2,0,0.2,0,0.4L0.4,14c0-0.2,0-0.2-0.1-0.5
			c-0.1-0.1-0.2-0.2-0.4-0.2h1.2c0,0.1,0,0,0.1,0.1C1.1,13.4,0.9,13.4,0.8,13.5z M21.1,6.2L21.1,6.2c0.2-0.1,0.4,0,0.6,0
			C21.5,6.3,21.2,6.2,21.1,6.2z M38.8,14.7c-0.4,0.3-2-0.2-2.2-0.6C37.6,14,38.2,14.4,38.8,14.7z"/>
	</g>
</g>
<g class="st1">
	<g class="st2">
		<path class="st4" d="M33.3,13.2c0.2,0,0.3-0.2,0.4-0.2c0.4-0.2,0.8-0.3,1.1-0.4c0.1,0,0.2,0,0.3,0s0.2-0.2,0.2-0.2h0.2v-0.2h14.2
			v-1.4h-14v-0.1h-0.2c-0.1,0-0.2-0.2-0.3-0.2c-0.2,0-0.5-0.1-0.7-0.1c-0.1,0-0.3-0.2-0.3-0.2c-0.3-0.1-0.7,0-0.9-0.1h-0.1l0,0
			c0.1-0.1,0.3-0.3,0.3-0.4h0.3c0,0.3,0,0.1,0,0.4c0.2,0,0.2,0.1,0.2,0.1s0.1-0.1,0.2,0v0.1h2v-0.1h0.2V9.8h-0.1c0-0.1,0,0,0,0
			c0-0.3,0-0.5-0.1-0.6h-0.6V9h-0.1V8.3c-0.1-0.2-0.2-0.2-0.2-0.4h-0.2v0.2c-0.1,0-0.3,0-0.3,0c-0.4,0-0.5,0.1-0.6,0.3
			c-0.1,0.1-0.1,0.3,0,0.4h-0.1c0,0.1,0,0,0,0v0.3c-0.3,0-0.5,0.1-0.6,0.2c-0.1,0.1-0.1,0.2-0.2,0.3c-0.3,0.1-0.7-0.1-1-0.1l0,0
			c-0.1-0.1-0.1-0.1-0.1-0.2c-0.8-0.1-0.6,0.1-0.9,0.3c0,0.1-0.8-0.2-1-0.2S30.2,9.5,30,9.5s-0.6-0.1-0.7-0.1h-0.2
			c-0.1,0-0.1-0.2-0.2-0.2h-0.2c0,0-0.5-0.8-0.5-0.9h-1.1V8.1c0.2,0,0.9-0.1,1.1-0.2l0,0c0-0.1,0-0.1-0.1-0.1c0-0.2,0-0.1,0.1-0.2
			c0-0.1,0-0.1-0.1-0.1H28l0,0c1.1,0,2.2,0,3.2,0V6.8h-0.8c-0.1,0-0.1-0.1-0.3-0.1c0.2-0.1,0.7,0,0.9,0c0.6,0,1.3,0,1.7,0
			c0.2,0,0.5,0.1,0.6,0h0.1V6.4c0.3,0,1.1-0.1,1.3,0l0,0V6.1c-0.1,0.1-0.6,0.2-0.8,0h-0.1V5.6h-0.1v0.5l0,0l0,0
			c-1.2,0-2.7-0.1-3.8,0c-0.1,0,0-0.1,0-0.1h-0.5l0,0l0,0v0.1h-0.1c-0.1-0.1-0.1,0,0-0.2c-0.1,0-0.3,0-0.4,0c-0.3,0-0.8-0.1-0.9,0
			c0,0.1,0,0.2,0,0.2h-0.2c0-0.3-0.2-0.9,0-1.1l0,0h-0.4c0.1,0.2,0.1,0.8,0,0.9V6c-0.4-0.1-0.5-0.4-0.8-0.6V5.1c-0.3,0-0.4,0-0.6,0
			c0,0.1,0,0,0,0c0,0.2-0.1,0.7,0,0.8S26.5,6,26.6,6c-0.1,0-0.1,0-0.2,0c0.1,0,0.1,0,0.2,0v0.4c-0.2,0-0.1,0-0.3,0V6.2h-0.2
			c0,0.3,0,0.4,0,0.6c-0.1,0-0.2,0-0.2,0c0,0.1,0,0.1-0.1,0.1c0,0.1,0,0.1,0.1,0.1c0.1,0.1,0.4,0,0.6,0s0.4,0,0.6,0
			c0,0,0.1-0.1,0.2,0c0.1,0,0.1,0.1,0.2,0.1c0,0.1,0,0,0,0c0,0.1-0.1,0.6-0.1,0.6h-0.1c-0.2,0.1-0.9,0.2-1,0.4l0,0
			c0-0.1,0-0.3,0-0.4h-0.1c0,0.1,0,0.3,0,0.4h-1.1V8h-0.5h-0.2l-0.1-0.1h-0.9V7.8c0,0-0.1,0-0.2,0c0,0.1,0,0,0,0
			c0,0.1,0.2,0.3,0.2,0.3l0,0c0,0,0,0.1,0,0.2h-0.7V8.1c-0.1-0.1-0.2-0.2-0.2-0.3h-0.6c0,0.1,0,0,0,0.1s0,0.3,0,0.3
			c-0.2,0.1-1.3,0.2-1.5,0.2c0-0.1,0-0.1,0-0.2c-0.1-0.1-0.5,0.1-0.7,0c-0.1,0-0.2-0.3-0.4-0.3c-0.1,0-0.2,0-0.2,0h-0.6
			c-0.3,0.1-0.4,0.2-0.6,0.3c0,0.1-0.1,0.2,0,0.3v0.1c-0.3,0-1.7,0.1-1.8,0.2h-0.3c-0.2-0.1,0-0.4-0.4-0.5c-0.1,0-0.1,0-0.2,0
			C15,8.4,15,8.6,15.1,8.8c-0.2,0-0.3,0-0.5,0v0.1h-0.1c-0.1-0.6-0.2-2-0.2-2V5.4l-0.1-3.1l-0.6,0.1v3.1v1.6c0,0,0.1,1.4-0.1,1.7
			v0.1h-0.1V9l-0.1-0.1c-0.1,0,0,0-0.1,0c0-0.2,0-0.3,0-0.3c0-0.1,0-0.1-0.1-0.1c-0.2,0-0.4,0-0.4,0.1l0,0c0,0.2,0.1,0.2,0.2,0.2
			c0,0.2,0,0.1,0,0.3H13c0,0,0,0.2,0,0.1V9l0,0c0,0.1,0,0,0,0.1c-0.1,0.1-0.2,0.1-0.4,0.1c0,0.1,0,0,0,0v0.3c-0.2,0-0.4,0-0.5,0v0.1
			c0.2,0,0.3-0.1,0.5,0v0.8h-0.2v0.1h-0.1c-0.1,0.1,0.1,0.2,0.1,0.2c-0.1,0.2,0,0.7,0,1c-0.2,0-0.3,0-0.4,0c0,0.1,0,0,0,0
			s0.4,0.1,0.5,0.1v0.6h5.2v0.8h0.7v0.1h-2.5c-0.1,0-0.6-0.6-0.7-0.6c-0.4,0-0.8,0-1.1,0v-0.1h-1.5c-0.2,0-0.5,0-0.7,0
			c-0.3,0.1-0.9,0-1.3,0h-0.5v0.1H9.7l0,0c-0.3,0.1-0.6-0.1-0.9,0c-0.4,0-2.3,0-2.8,0s-1.2,0.1-1.6,0c-0.2,0-0.9,0.1-1,0.1
			c-0.2,0-0.4,0-0.6,0c-0.5,0.1-1.1,0.1-1.7,0.1c0,0.4,0,0.6,0.2,0.7v0.1c-0.1,0-0.3-0.1-0.4-0.1l0,0v1c0.1,0,0.3-0.2,0.4-0.1v-0.1
			h0.1c0,0.2,0,0.7,0,0.7c-0.2,0.6-0.9,0.8-1,1.6c0.3,0,0.8-0.3,1-0.4h0.1c-0.1,0-0.2,0-0.2,0.1v0.2c-0.1,0.1-0.2,0.3-0.2,0.4
			c-0.2,0.7,0.2,1.7,0.6,1.9c0,0.2,0,0.4,0,0.5c-0.3,0-0.5-0.1-0.6-0.3C1,19.2,1,19.2,1,19.2c-0.1,0.2,0.2,0.4,0.4,0.5
			c0.1,0.1,0.2,0.1,0.4,0l0.1-0.1H2c0.1-0.1,0-0.2,0.1-0.2c0.2,0,3.1,1.8,4.2,2.1h26.2c0.6,0,1.9-0.1,2.4-0.3
			c0.2-0.1,4.9-1.1,6.2-2.2c0.4-0.4,0.9-1.7,0.3-2.2v-0.1c0.3,0,0.6,0,0.7,0.1c0.1,0,0.1-0.1,0.2-0.1c0-0.1-0.8-0.9-1-0.9
			c0.1-0.2,0.2-0.3,0.4-0.4c0-0.2-0.2-0.3-0.4-0.3v-0.2h-0.2V15c-0.2,0-0.4-0.1-0.5-0.1c0-0.1,0-0.1,0-0.1v-0.1
			c-0.5,0-2-0.1-2.3-0.3h-0.1v-0.5H38V14c-0.2-0.1-0.4-0.1-0.5,0l0,0v-0.2c-0.2,0-0.2-0.1-0.4-0.1v-0.1h-0.9v0.3
			c-0.4-0.2-1-0.2-1.4-0.3c-0.2-0.1-0.4,0-0.5-0.1h-2.4v-0.1h1.4C33.3,13.4,33.3,13.2,33.3,13.2z M33.6,10.1h0.2l0,0l0,0l0,0
			c-0.2,0-0.6-0.1-0.7-0.2C33.2,10,33.5,10,33.6,10.1z M33,9.9L33,9.9C33.1,10,33.1,10,33,9.9L32.8,10C32.8,10,33,10,33,9.9z
			 M32.6,6.5c-0.1,0.1-0.4,0-0.6,0h-1.4c-0.2,0-0.5,0-0.6,0H32.6z M28.8,6.7L28.8,6.7L29,6.6C28.9,6.8,28.9,6.7,28.8,6.7z M29.1,6.2
			L29.1,6.2L29.1,6.2C29.1,6.3,29.1,6.2,29.1,6.2L29.1,6.2z M28.8,6.1H29v0.1L28.8,6.1L28.8,6.1c-0.1-0.1-0.1,0-0.1,0
			S28.7,6.1,28.8,6.1z M28.5,6C28.6,6.1,28.5,6,28.5,6l-0.1,0.1C28.4,6.1,28.5,6.1,28.5,6z M26.9,6.8c-0.2,0.1-0.4,0-0.6,0V6.6h0.2
			v0.1L26.9,6.8L26.9,6.8z M15.2,9h-0.3c0-0.2,0-0.3,0-0.4c0.2,0,0.2,0,0.3,0.1V9z M17.9,8.7C17.8,8.6,17.8,8.7,17.9,8.7
			C17.9,8.6,17.9,8.6,17.9,8.7C17.9,8.7,17.9,8.6,17.9,8.7z M1.7,15.1L1.7,15.1L1.7,15.1L1.7,15.1L1.7,15.1l-0.1-0.7h0.1
			c0,0.2,0,0.4,0,0.5C1.8,15,1.8,15,1.7,15.1z M19.6,8.5L19.6,8.5L19.6,8.5c0.1-0.1,0.3-0.1,0.4-0.2h0.2C20.1,8.6,19.8,8.4,19.6,8.5
			z M30.2,9.5h0.1C30.2,9.6,30.2,9.6,30.2,9.5z M30.4,9.6h0.1C30.5,9.6,30.5,9.6,30.4,9.6z M30.7,9.6h0.1
			C30.8,9.7,30.8,9.7,30.7,9.6z M31,9.7h0.1C31.1,9.7,31.1,9.7,31,9.7z M41.2,15.4C41.3,15.4,41.2,15.4,41.2,15.4c0,0.1,0,0.1,0,0.1
			c-0.3,0-0.5-0.1-0.6-0.3C40.8,15.2,41.1,15.3,41.2,15.4z M31.6,9.6c0-0.1,0-0.1,0-0.2c0.2,0,0.4,0.1,0.2,0.2
			C31.8,9.8,31.8,9.7,31.6,9.6z"/>
	</g>
</g>
<g class="st1">
	<g class="st2">
		<path class="st4" d="M70.5,10.9H68c-0.9,0.2-8.2,0.1-9.7,0.1c-0.1,0,0-0.1-0.1-0.1v-0.3H54v0.3h-0.4V11c-3.3,0-13.3-0.1-15-0.1
			l-0.2-0.1c-0.6,0-3.9-0.1-4.8-0.1c-0.1-0.1-0.3-0.2-0.4-0.4h-0.1l0,0h0.1c0-0.6,0.1-1.5-0.1-1.9c-0.2,0-0.7,0-0.8,0.1
			c-0.5,0-0.9,0.6-0.9,1c0.1,0.1,0.2,0.3,0.2,0.6c-0.3,0-0.6-0.2-0.7-0.1c-0.1-0.1-0.1-0.3,0-0.6c-0.2-0.1-0.4-0.1-0.6-0.1
			c0,0.1,0,0.2-0.1,0.4c-0.4,0-0.8-0.2-1.3-0.2c-0.1-0.1,0,0-0.1-0.1c0-0.3-0.1-0.5,0.1-0.6V8.6h-1.1V9c-0.3,0-0.7-0.3-0.8-0.3
			s-0.1,0.2-0.4,0.1h-0.1V8c-0.8,0-0.8,0.4-1.2,0.7c-0.1,0.1-0.2,0-0.3,0.1c0-0.1-0.1-0.3-0.1-0.4c-0.3,0-0.5,0-0.8,0.1
			c0,0.1,0,0.2,0.1,0.2v0.1c-0.1,0-0.1-0.1-0.2,0h-0.6c0.1-0.1,0.1-0.1,0.2-0.2c0-0.3,0-0.3-0.2-0.2c0-0.1,0-0.2,0.1-0.2V7.5
			c0.2,0,0.4,0,0.6,0.1V6.2c-0.4,0-0.7,0-0.9,0.2c-0.2,0.1-0.1,0.2-0.4,0.2v0.7H23v0.4h-0.3v0.4c-0.3-0.1-0.3-0.2-0.6-0.3V7.6h-0.9
			c-0.3,0.1-0.6,0.2-0.9,0.2s-0.7,0.1-0.9-0.1c-0.2,0-0.2,0-0.4,0.1c0,0.2,0.1,0.3,0.2,0.4c0,0.1,0,0.2-0.1,0.4h0.1
			c-0.2,0.1-0.6,0-0.8,0.2h-0.1V8.7c-0.1-0.1-0.2-0.2-0.4-0.2l-0.1-0.6c-0.2-0.6-0.5-2.6-0.6-2.9c-0.9-4.5-1.5-5.4-0.5-1.3
			c0,0.1,0.7,3.5,0.8,4.4v0.3c-0.6-0.1-0.9,0.2-1.4,0.4c0,0.2,0,0.2,0,0.4c-0.3,0-0.5,0.1-0.7,0.1c-0.3,0.1-0.3-0.2-0.5-0.1h-0.2
			c0,0,0.1,0.1,0,0.1v0.1c-0.1-0.1-0.2-1.1-0.2-1.2H14c0,0.4,0,0.1,0.2,0.4c0,0.1-0.1,0.1,0.1,0.2c-0.1,0-0.1,0.1-0.2,0.1H14
			c0,0.1,0,0,0.1,0.1c-0.1,0.1,0,0-0.1,0.1c0.3,0.2,0.4,0.2,0.4,0.4h0.1c-0.1,0.2-0.1,0.1-0.3,0.1c0,0.1,0.1,0.2,0.2,0.3v0.6
			c-0.1-0.1,0-0.4-0.1-0.5c0,0-0.8-0.3-0.8-0.2c-0.1,0-0.3,0.2-0.4,0.2c-0.2,0.1-0.3,0-0.4,0.1c-0.3,0.2-0.3,0.4-0.5,0.6
			c0,0.2,0,0.4,0.1,0.6c0.1,0.1,0.1,0.3,0.2,0.4c0.1,0.1,0.4,0.2,0.5,0.3c0.5,0,0.9,0,1.2-0.2c0.1-0.1,0-0.1,0.2-0.2
			c0-0.1,0-0.1,0.1-0.1c-0.1,0.5-0.1,1.2-0.1,1.8c-0.5,0-0.8-0.3-0.9-0.6c-0.4,0-0.7-0.1-1.1-0.1c-0.3,0.1-1.2,0.1-1.6,0v-0.1
			c-0.1,0-0.4,0.2-0.5,0.2H9.4v-0.2c-0.2,0.1-0.1,0-0.1,0.2c-0.1-0.1-0.1-0.1-0.1-0.2H2.6v0.2c-0.1-0.1,0-0.1-0.1-0.2H2.4l-0.1,0.3
			H1.1v0.4c-0.2,0-0.5,0-0.6-0.2H0.4v1.4c0.2-0.1,0.8-0.2,0.9-0.4h0.3v0.1H1.5c-0.1,0.1,0.1,0.1,0.1,0.1c0,0.1-0.1,0.1,0,0.2v0.3
			c-0.1-0.1,0,0-0.1-0.1c-0.1,0-0.1,0.2-0.2,0.4s-0.5,0.4-0.7,0.6c0.1,0.2,0.4,0.5,0.6,0.6C1.1,16.4,1,16.7,1,16.9l0.1,0.5
			C1,17.3,1,17.3,0.9,17.3v0.1H0.7c0.1,0.3,0.4,0.3,0.5,0.6v0.2c0.1,0.2,0.2,0.2,0.2,0.4c0.1,0.2,0,0-0.1,0.2c0,0,0,0.1,0.1,0.1
			c0.2,0,0.4,0,0.6,0.1c0,0.1,0.1,0.1,0.1,0.2h0.2c0.1,0,0.1,0.2,0.2,0.2c0.2,0.1,3.4,1.9,3.6,1.9c0.6,0.2,1.7,0.1,2.5,0.1h5
			c5.7,0,17.1,0,17.1,0s2.6,0,3.4,0c0.2,0,0.9-0.2,1.1-0.3c1.8-0.5,5.8-2.4,5.9-3.5c0.3,0,0.4,0,0.5-0.2c0.1,0.1,0.1,0.2,0.2,0.2
			c0.1-0.2,0-0.4,0-0.6c0,0,0.2,0,0.1-0.1c-0.1,0-0.1-0.1-0.2-0.1l-0.1-0.4c0-0.2,0.1-0.1,0.1-0.2c-0.1-0.2-0.2-0.5-0.2-0.7v-0.2
			h-0.1c-0.1-0.1-0.2-0.4-0.2-0.5c-0.3-0.3-2.2-0.8-2.8-0.7c0-0.3,0-0.5,0-0.9h-1.2v0.3c-0.2,0-0.2,0-0.3,0.1v0.3
			c-0.5-0.2-0.9-0.2-1.4-0.2v-0.4h-1.6c0,0,0-0.1-0.1-0.1c-0.2-0.1-0.6-0.1-0.7,0h-1.2c0-0.1,0-0.1-0.1-0.1c0-0.2,0-0.2,0.1-0.3
			l0.1-0.1c0,0.1,0,0.1,0.1,0.2c0.4-0.1,0.8-0.1,1.2-0.2l0.1-0.2h3c0.6,0,1.7,0,2.2-0.2c1.1,0,14.9-0.1,14.9-0.1v0.2l4.7-0.1v-0.2
			c0,0,5.3,0,6.8,0c0.6,0,1.6-0.1,2,0.1h0.9l0.1,0.1c0,0,0-0.2,0.2-0.1c0.1,0,0,0.2,0.2,0.1c0,0,0-0.2,0.2-0.1v0.1
			c0.3,0.1,0.2-0.2,0.4-0.1v0.1c0.2,0.1,0.2-0.2,0.4-0.1v0.1c0.2,0.1,0.1-0.1,0.2-0.1c0.2-0.1,0.2,0.2,0.4,0.1c0,0,0-0.2,0.2-0.1
			v0.1c0.1,0,0.2,0,0.2-0.1C70.6,11.8,70.7,11.2,70.5,10.9z M23.5,8.4h0.1v0.1h-0.1V8.4z M14.4,11.4L14.4,11.4l-0.1-0.1h0.1V11.4z
			 M14.3,11c0.1,0.1,0,0.1,0.1,0.2C14.3,11.1,14.3,11.1,14.3,11z M1.3,15l0.2,0.2C1.4,15.2,1.4,15,1.3,15z M1.8,14.5
			c-0.1-0.1,0-0.1-0.1-0.2h0.1V14.5z M1.8,14.1L1.8,14.1L1.8,14.1c0-0.1,0-0.1-0.1-0.3h0.1C1.8,13.9,1.8,14,1.8,14.1z M14.6,9V8.9
			c0.1,0,0.1,0,0.1-0.1c0.1,0.1,0,0.1,0.1,0.2C14.8,9,14.6,9,14.6,9z M16.5,9.1v0.1c-0.2,0-0.2,0-0.2-0.1H16.5z M14.9,13.3h1.9
			C16.7,13.4,15.1,13.4,14.9,13.3z M23.2,8.1L23.2,8.1l-0.1-0.8l0.3,0.1C23.4,7.7,23.3,8,23.2,8.1L23.2,8.1z M41.2,16.3l0.2,0.1
			c0.1,0.2,0,0.4,0.1,0.5v0.2l-0.3,0.1c0-0.4,0-0.7-0.1-1.1C41.2,16.1,41.2,16.2,41.2,16.3z M38.9,14.4c-0.1,0-0.1,0-0.1-0.1
			C38.9,14.4,38.8,14.3,38.9,14.4z M38.3,14.3l0.4,0.1c-0.1,0.1-0.2,0.1-0.2,0.1h-0.2V14.3z M38.2,14.4c-0.1,0.1-0.4,0.1-0.5,0H38.2
			z M37.3,14.2c0.2,0,0.1,0,0.2,0v0.1c-0.2,0-0.1,0-0.2,0V14.2z M37.3,14.3h0.2c0.1,0.1,0,0,0.1,0.1v0.1h-0.4L37.3,14.3z M37,14.3
			c0.1,0,0.1,0,0.1,0.1C37,14.3,37.1,14.3,37,14.3z M36.9,14h0.2c0,0.1,0,0.1-0.1,0.1c-0.1,0.1,0,0-0.1,0c-0.1,0.1,0,0-0.1,0.1
			L36.9,14L36.9,14z M36.8,14v0.2c-0.2-0.1-0.3-0.2-0.6-0.2C36.4,13.9,36.6,14,36.8,14z M68.1,11h0.2C68.2,11.1,68.2,11.1,68.1,11z
			 M68.5,11h0.2C68.6,11.1,68.6,11.1,68.5,11z M68.9,11h0.2C69,11.1,69,11.1,68.9,11z M69.4,11h0.2C69.5,11.1,69.5,11.1,69.4,11z
			 M69.7,11h0.2C69.8,11.1,69.8,11.1,69.7,11z M70.2,11h0.2C70.3,11.1,70.3,11.1,70.2,11z"/>
	</g>
</g>
<g class="st1">
	<g class="st2">
		<path class="st4" d="M54.3,10.6c-0.4,0-1,0.3-1.3,0.4h-0.8v-0.1h-3.6v0.2c-1.4,0-2.8-0.1-4.2-0.1c-0.8,0-11.1-0.2-12.4-0.2v-0.1
			c-0.1-0.1-0.3,0-0.4,0c-0.7,0-0.7-0.5-1.1-0.8h-0.1V9.8c-0.1-0.1-0.2,0-0.3-0.2c0-0.1,0-0.2,0-0.2c0-0.1,0-0.1,0-0.1
			c-0.1,0,0,0-0.1,0c-0.1,0.3-0.2,0.7-0.2,1C29,10,26.6,9,26.5,8.9h-1c-0.2-0.1-1.2,0-1.3,0V8.8c-0.2,0-0.3,0-0.5,0
			c0-0.2-0.1-0.2-0.1-0.4c-0.2,0.1-0.5,0.1-0.7,0.1c0,0.2,0,0.3,0,0.3c-0.2,0-0.6,0.1-0.8,0H22V8.7h-0.5c0-0.2-0.1-0.2-0.1-0.4
			c-0.2,0-0.5,0.1-0.7,0.1v0.3c-0.1,0.1,0,0-0.1,0.1h-0.2c0.1-0.1,0-0.1,0.1-0.1V8.5h-0.1V8.1l-0.5-0.4c-0.2-0.1-0.5,0-0.6,0H19
			c0-0.1,0-0.2,0-0.3h0.1c-0.1-0.1-0.5,0-0.6,0h-0.1c0,0.2,0.1,0.1,0,0.2c-0.1,0.2-0.5,0-0.7,0.2h-1.6c-0.1,0-0.3,0.2-0.4,0.3v0.3
			h-0.1v0.2h0.1c-0.1,0.2-0.6,0.1-0.8,0.1h-2.4l0,0h-0.2c0-0.2,0-0.2-0.1-0.3c-0.2-0.1-0.4-0.1-0.7-0.1c0-3.2-0.3-4.7-0.3-8
			c-0.1,0.1,0,0.5,0,0.7v1.9c0,2.4,0.1,3.1,0.1,5.4c-0.5,0-0.6,0.1-0.9,0.3c0,0.2-0.1,0.1,0,0.1l0,0h-0.2v0.1H9.4
			c-0.1,0-0.1,0.3-0.1,0.3H8.7c0,0.1,0,0,0,0.1c0.1,0.1,0.2,0.1,0.3,0c0.1,0.2-0.1,0.5-0.2,0.7V10L8.7,9.9c-0.1,0.2-0.1,0.4-0.1,0.6
			c0,0-0.4,0.8-0.5,0.9c0,0-0.2,0.1-0.2,0.2c0,0-0.1,0-0.1,0.1l0,0c0.1,0.1,0.1,0,0.2,0c0,0.1-0.2,0.2-0.2,0.3
			c0,0.2,0.1,0.2,0.1,0.2s5.9,1,7.3,1.2v0.3h-1.5v-0.1h-0.4v0.1H13v-0.2c-0.3,0.1-0.9,0.1-1.3,0c-0.2,0-0.6-0.1-0.8,0
			c-0.4,0.1-1.1,0-1.6,0c-1.1,0-2.4,0-3.4,0H3.5v0.1c-0.1,0,0,0,0,0H3v0.1c-0.2,0-0.3,0-0.4,0.1l0,0c0.1-0.2,0.3-0.5,0-0.6
			c-0.1,0-0.9,0.3-1,0.4c-0.1,0.1,0,0.1-0.1,0.2c0.1,0.2,0.3,0,0.4,0.2s-0.4,0.9-0.5,1.2v0.2c-0.1,0.1-0.1,0.3-0.2,0.4h0.1l0,0l0,0
			c0,0.1-0.5,1-0.7,1.3l0,0l0,0h0.9c0,0.4,0.2,0.7,0.3,1c0.1,0.3,0.1,0.6,0.3,0.8L2.2,19c0,0.1,0,0.2,0,0.3l0.2,0.1
			c0,0.1,0.1,0.2,0.1,0.3c0,0.3,0.1,0.3,0.2,0.4c0.1,0,0.2,0,0.3,0c0-0.2,0.1-0.4,0.1-0.6c0.1,0.1,0.1,0.1,0.1,0.1l0,0
			c0,0.1,0-0.1,0-0.1c0.2,0.1,0.1,0.1,0.1,0.1h0.3l0.1,0.1H4c0.1,0.1,0.2,0.2,0.2,0.2h0.1L4.4,20c0.2,0.2,1.5,1,2.1,1.2
			s1.9,0.3,2.6,0.3h24c0.7,0,1.3-0.1,1.7-0.3C36,21,39.1,19,39.2,19c0.6-0.4,1.2-1.1,1-2.2c0.2-0.2,0.4-0.4,0.6-0.5
			c0-0.7-0.4-0.3-0.7-0.5v-0.1c-0.1-0.1-0.3-0.3-0.4-0.3V15h0.1c0.1-0.1-0.1,0-0.1,0v-0.2h0.1c0,0-0.2-0.1-0.1-0.2h0.1h-0.1l0.1-0.1
			c-0.1,0,0,0-0.1,0c-0.5,0-0.9,0-1,0.3c-0.2,0-0.3,0-0.3,0s-0.6,0-0.9,0c0-0.1,0-0.1,0-0.2l0,0c-0.1,0-0.2,0-0.3,0
			c0,0.1,0,0.1,0,0.2v0.1h-0.5v-0.3h-0.1v-0.2c-0.2,0-0.3,0-0.3,0.2H36c0,0,0-0.2,0-0.1v0.1l0,0v-0.2c-0.3,0-0.2,0.1-0.3,0.3
			c0,0.1-0.1,0.1-0.1,0.2c-0.4-0.1-0.7-0.1-0.8-0.5h-0.1v-0.3h-0.8v0.3c-0.3,0-0.4-0.1-0.7-0.1c0.1-0.1,0,0,0.1-0.1
			c0-0.2,0-0.1-0.1-0.2h-0.3c-0.2,0.1-0.2,0.3-0.5,0.1c-0.4,0-0.1-0.1-0.3-0.2c-0.1,0,0,0.1,0,0.1c-0.4,0.1-1-0.1-1.2-0.1
			S30.7,14,30.7,14H30v-0.1h-0.6v-0.1h0.1c0-0.1,0.1-0.2,0.1-0.2c0.1,0,0.2,0,0.3,0V14c0.6,0,1-0.2,1.3-0.6c0.1-0.1,0.2-0.3,0.3-0.4
			c0.3,0,0.6-0.1,0.9-0.1v-0.1c5.5-0.1,11-0.2,16.5-0.2v0.1h3.6v-0.1H53V12c0.1,0,0.3,0.1,0.4,0.1c0.2,0.1,0.4,0,0.5,0.2
			c0.2,0,0.3,0,0.4,0C54.4,11.8,54.5,11,54.3,10.6z M1.8,15L1.8,15L1.8,15c0-0.1,0.1-0.3,0.2-0.4C2,14.6,1.9,14.9,1.8,15z
			 M54.1,11.9L54.1,11.9c-0.4,0.1-0.7-0.1-0.9-0.2c0-0.1,0-0.3,0-0.3c0.1-0.2,0.5-0.2,0.7-0.3c0.2,0,0.1,0,0.2,0.1
			C54.1,11.3,54.2,11.8,54.1,11.9z"/>
	</g>
</g>
<g>
	<g>
		<path class="st3" d="M59.7,11l-0.1,0.1c-0.2,0-0.5,0-0.7-0.1v0.1c-0.2,0.1-0.2-0.1-0.2-0.1H58c-0.2,0-0.1,0.1-0.2,0.1h-4.3
			c0,0-0.2,0-0.3-0.1c0,0,0-0.1-0.1-0.1c-0.2,0-0.4,0-0.6,0.1c0-0.1-0.1-0.1-0.1-0.2c-1.8,0-3.7,0-5.5,0.1v0.2
			c-2.4,0-10.8-0.2-11.2-0.2c0-0.2,0.1-0.2,0.1-0.4h-2.2c-0.3,0-0.6-0.1-0.7,0c-0.1-0.1,0-0.1-0.2-0.2v-1c-0.2,0-1.2-0.1-1.4,0.3
			c-0.3,0-0.7-0.1-0.9-0.3h-0.1c0.1-0.1,0.2-0.1,0.3-0.1c-0.2-0.2-1.1,0-1.4,0c-0.6-0.1-1.4-0.1-2-0.2c-0.3,0-0.9,0.3-1.3,0h-0.1
			V8.3h-0.5c-0.1,0.1-0.1,0.2-0.2,0.2h-0.5C24.4,8.7,24,8.8,23.9,9h-0.1V8.8c-0.3,0-0.6,0.1-0.9,0.1c-0.2,0-0.3-0.2-0.6-0.2V8.6h-1
			c0-0.2,0-0.2-0.1-0.3c0-0.2,0.2-0.3,0.4-0.3c-0.1-0.1-0.3-0.2-0.5-0.2c0.1-0.4,0.4-0.6,0.6-0.8c-0.1-0.1-0.1-0.3,0.1-0.4
			c-0.1-0.1-0.1,0-0.2-0.2c-0.2,0-0.3,0-0.3,0.2c-0.1-0.1-0.1,0-0.1-0.2c-0.3,0-0.2-0.1-0.3-0.2c0.1,0,0.2-0.1,0.2-0.1V5.4
			c-0.3,0-0.7,0-0.9,0.1c0,0.1,0,0-0.1,0.1c0,0.4,0,0.6,0.3,0.6c0,0.1,0,0.1-0.1,0.3h-0.2V6.2c-0.4,0-0.8,0-1.2,0.1
			c0,0.1,0,0.1-0.1,0.2c-0.2,0-0.3,0-0.5-0.1c-0.6,0.1-1.5,0.1-2.3,0.1V0.3c-0.1,0.2-0.1,1.4-0.1,1.8c0,1.5,0,3-0.1,4.5
			c-0.5,0-1,0-1.4,0.1V6c-0.2,0.1-0.1,0.3-0.1,0.5c-0.1,0.1,0,0-0.1,0.1h-0.8V6.5h-0.2c0,0.1,0,0.2-0.1,0.3c0.1,0.1,0,0,0.1,0.1
			c0.4,0,1-0.1,1.5-0.1V7c0.3,0.1,0.7,0,1.1,0c0,0.6-0.1,1.3-0.2,1.9h-0.2V9c-0.2,0.1-1.7,0.2-1.9,0.2c-0.1,0-0.3-0.2-0.6-0.1
			l-0.2,0.2c-0.2,0.1-0.3,0-0.5,0.1c-0.4,0-0.3-0.1-0.2-0.5c-0.2,0-0.3,0-0.5-0.1c0,0.4,0.2,0.4,0.2,0.7c0.3,0,0.1,0,0.3-0.1v0.1
			c-0.2,0.1-0.3,0.1-0.4,0.2v0.1c-0.1-0.1,0,0-0.1-0.2c-0.2,0.1,0,0.2-0.1,0.4c-0.1,0.3-0.4,1.1-0.2,1.7c0.1,0.2,0.2,0.4,0.2,0.7
			c0.1-0.1,0,0,0.1-0.2c0.3,0.2,0.6,0.2,1,0.3s1.4,0.1,1.4,0.1c0,0.2,0,0.3-0.1,0.5h-1.5V13c-0.2-0.1-0.3,0.2-0.5,0.1V13h-0.5v0
			h-0.4v0.1H9.8C9.9,13,9.8,13,10,13v-0.1c-0.2,0-0.1,0.1-0.2,0.1c-0.2,0.1-0.4,0-0.5-0.1L9.6,13c-0.3,0-0.7-0.1-0.8,0H8.4
			c0.1-0.1,0-0.2,0.1-0.3c-0.2,0-0.5,0-0.7,0.1c-0.2-0.1-0.5-0.1-0.7-0.1H6.4v0.1c0,0-0.2,0.1-0.3,0.1c-0.2,0-3.1,0.1-3.2,0
			c0,0-0.3,0-0.2,0.1c0,0.1,0.1,0,0.1,0.1H2.3c0,0,0-0.1-0.1-0.1l-0.7,0.2c-0.4,0.2-0.6,1.7-0.6,2.4c-0.1,0-0.1,0-0.2,0.1v0.1h0.2
			V16H0.7v0.1h0.2c0,0.3-0.1,0.5-0.3,0.6c0.1,0.1,0.1,0.1,0.2,0.2c0,0.2,0,0.4,0.1,0.6c0,0.1-0.2,0.2-0.1,0.4c0,0.3,0,0.5,0.1,0.6
			s0,0,0.1,0.1c0,0,0.2-0.3,0.3-0.3c0.2-0.1,0.1,0.1,0.3,0c0.1-0.1,0-0.1-0.1-0.2c0.1-0.1,0.1-0.2,0.1-0.3h0.1
			c0.2,0.3,0.3,0.8,0.6,1.1c0.1,0.2,0.4,0.2,0.6,0.4L3,19.1c0.1,0.1,0.3,0.1,0.3,0.2c0.1,0.1,0.1,0.2,0.2,0.2
			c0.4,0.3,1.8,1.5,2.6,1.8c0.5,0.2,1.3,0.1,2,0.1h23.7c0.8,0,2.4,0,3-0.2c0.6-0.2,0.9-0.3,1.4-0.5c0.8-0.4,1.8-1,2.4-1.2
			c0.4-0.2,1.2-0.6,1.6-1c0.4-0.4,0.4-2,0.4-2l0.8-0.7h0.1v-0.1c0,0-0.6-0.5-0.8-0.7c-0.1-0.1-0.1-0.2-0.2-0.2
			c-0.2-0.1-0.4-0.1-0.5-0.2h-0.1v-0.3l-0.1-0.1c-0.5,0-0.9,0.1-1,0.5c-0.3,0-0.3-0.2-0.5-0.3c-0.3,0.1-1.4,0-1.7-0.1
			c-0.1,0-0.2-0.2-0.2-0.2h-0.3c-0.1,0-0.2-0.2-0.4-0.2c0,0-0.2,0.1-0.3,0.1c-0.4-0.1-0.5-0.2-1.1-0.2c0-0.2,0-0.1,0.1-0.2
			c-0.1,0-0.4-0.1-0.6-0.1l-0.2,0.2c-0.1,0-0.1-0.1-0.2-0.1c-0.2-0.1-0.5,0-0.6,0c-0.3,0.1-0.9-0.1-1.1,0.1h-0.3v-0.1
			c0.2-0.1,0.6-0.2,0.7-0.4V13c0.1-0.1,0.3,0,0.5-0.1c0.1,0,0.2-0.2,0.2-0.2c0.2,0,0.3,0,0.5,0.1v-0.2H34v0.2
			c0.1-0.1,0.1-0.1,0.1-0.3c0.9,0,9.5-0.2,12.7-0.2v0.2c1.8,0,3.7,0,5.5,0.1c0-0.1,0.1-0.1,0.1-0.2c0.2-0.1,0.4,0.1,0.6,0l0.3-0.1
			h2.4c2,0,3.7,0.2,5.8,0.2V11H59.7z M1.2,16.9c-0.1,0-0.1,0-0.1,0.1l0,0v-0.2C1.1,16.8,1.2,16.8,1.2,16.9L1.2,16.9z M1.6,14.9
			c0,0.1-0.2,0.2-0.2,0.4H1.2c0.1-0.5,0.1-1,0.2-1.5c0-0.1,0.2-0.2,0.2-0.3s0-0.1-0.1-0.2h0.1C1.6,13.6,1.7,14.6,1.6,14.9z
			 M1.6,13.3c0,0,0-0.1,0.1-0.1c0.1,0.1,0,0,0.1,0.1H1.6z M5.8,13c0.1-0.1,0.4,0,0.6-0.1c0.1,0.1,0,0,0.1,0.1H5.8z M6.5,13h0.3
			C6.7,13.1,6.6,13.1,6.5,13z M8.1,13.1c-0.2,0-0.7,0.1-1.2,0.1C7.1,13,7.3,13.1,7.4,13c0.5,0,0.9,0,1.4,0.1
			C8.6,13.1,8.4,13,8.1,13.1z M9.2,13h0.4C9.5,13.1,9.3,13.1,9.2,13z M9.7,13c0.1,0,0,0,0.1,0.1C9.7,13,9.8,13.1,9.7,13z M19.1,6.5
			c-0.1,0,0,0-0.1-0.1C19.1,6.5,19.1,6.5,19.1,6.5z M19,7c-0.1,0-0.1,0-0.2,0H19z M16.2,7h2.3c-0.1,0.1-0.4,0-0.6,0v0.2
			c-0.3,0-1-0.1-1.2,0.1c-0.2,0-0.4,0-0.6-0.1V7H16.2z M18.2,7.9c-0.2,0-0.2,0-0.4,0.1c0,0.3,0,0.3,0.1,0.6H17v0.2
			c-0.3,0-0.2,0.1-0.3,0.2c-0.1,0-0.1-0.1-0.2-0.1V8.5h-0.1c0-0.1,0-0.2,0.1-0.2c0-0.2-0.1-0.5-0.1-0.8c0.8,0,1.5,0,2.3,0.1
			c0,0.2-0.1,0.3-0.2,0.5C18.2,7.9,18.3,8,18.2,7.9z M18.7,8h-0.3c0.1-0.2,0.2-0.2,0.3-0.5c0.1,0,0.2,0,0.2,0.1H19v0.2h0.2
			C19.1,7.9,18.9,7.9,18.7,8z M19.4,6.4c0.2,0,0.3,0,0.4,0.1c-0.1,0.1-0.2,0.1-0.4,0.1V6.4z M20,7.8h-0.1c0-0.1,0-0.2-0.1-0.3H20
			V7.8z M20,7.4h-0.2V7.3L20,7.4L20,7.4z M20.7,6.5h-0.2c0-0.1,0,0-0.1-0.1V6.2c0.1,0,0.1,0,0.2,0.1v0.2H20.7z M30.6,13.6v0.1h-1.1
			c0.2-0.1,0.5,0,0.7-0.1c0.1-0.1,0.1-0.2,0.2-0.2s0.1,0,0.2-0.1C30.7,13.4,30.7,13.5,30.6,13.6z M34.2,10.8h-0.7v-0.1h0.7V10.8z
			 M35.6,10.9c-0.5,0-0.9,0-1.4-0.1v-0.2h1.5C35.7,10.8,35.6,10.8,35.6,10.9z M61.6,12.2H61c0-0.1,0.1-0.2,0.1-0.3h0.6L61.6,12.2
			L61.6,12.2z M61.6,11.4H61c0-0.1,0-0.2-0.1-0.2v-0.1h0.6L61.6,11.4L61.6,11.4z"/>
	</g>
</g>
</svg>
