<?xml version="1.0" encoding="UTF-8"?>
<!-- Generator: Adobe Illustrator 25.3.1, SVG Export Plug-In . SVG Version: 6.00 Build 0)  -->
<svg version="1.1" id="Слой_1" xmlns="http://www.w3.org/2000/svg" xmlns:xlink="http://www.w3.org/1999/xlink" x="0px" y="0px" width="72.5px" height="26.2px" viewBox="0 0 72.5 26.2" style="enable-background:new 0 0 72.5 26.2;" xml:space="preserve">
<style type="text/css">
	.st0{display:none;}
	.st1{display:inline;}
	.st2{fill-rule:evenodd;clip-rule:evenodd;fill:#8C8C7C;}
</style>
<g class="st0">
	<g class="st1">
		<path class="st2" d="M57.5,13c0-0.3-0.1-0.5-0.3-0.5c-0.1,0-0.2-0.1-0.3-0.1c-0.5-0.1-1.4,0.1-2.1,0.1v-0.2c-1.5,0-3,0-4.5,0    c0,0.1,0,0.1,0,0.2c-3.5,0-7,0-10.5-0.1c0,0-0.7-0.6-0.8-0.6c-0.1-0.1-0.6-0.1-0.8-0.1c-0.7,0-1.3,0-2,0c-0.2,0-0.5,0-0.6-0.1    c0,0,0,0-0.1,0c0,0,0,0,0,0.1c-0.1,0-0.2,0-0.3-0.1v-0.1c-0.1,0-0.1-0.1-0.2-0.1v-0.1c-0.1-0.1-0.2-0.1-0.3-0.2V11    c-0.1,0-0.1-0.1-0.2-0.1v-0.1c0,0,0,0-0.1,0c0-0.1-0.1-0.1-0.1-0.2c-0.2,0-0.4,0-0.6,0.1c0,0.1-0.1,0.1-0.1,0.2h-0.1    c0,0.1-0.1,0.1-0.1,0.2c-0.3-0.1-0.5-0.2-0.8-0.3c0-0.1,0.1-0.6,0.1-0.6s0,0-0.1,0v-0.1c0,0,0,0-0.1,0c0-0.1,0-0.1-0.1-0.2    c-0.1,0-0.3-0.1-0.5-0.1c0,0,0,0.1-0.1,0.1h-0.1c0,0.2-0.1,0.2-0.2,0.4c-0.5,0-0.8-0.2-1.2-0.4c-1.1-0.3-2.1-0.5-3.2-0.8    c0-0.1,0-0.2,0-0.3c0,0,0,0-0.1,0c0-0.3,0-0.2-0.1-0.4c-0.2,0-0.5,0-0.6,0.1c0,0,0,0-0.1,0c0,0.1,0,0.2,0,0.3s0,0-0.1,0.1    c-0.1,0-0.6-0.1-0.6-0.1c-0.5,0-0.9,0-1.4,0c0-0.1,0.1-0.2,0.1-0.4c-0.5,0-1,0-1.5,0c0,0.1,0,0.2,0,0.3c0,0,0,0,0.1,0    c0,0,0,0,0,0.1c-0.1,0-0.3,0-0.4,0c0-0.1,0-0.3,0-0.4c-0.2-0.1-0.2,0-0.2-0.3c0,0,0,0,0.1,0c0,0-0.1-0.1-0.1-0.3h-0.1    c0,0.2,0,0.3,0,0.5H22c0,0.1,0,0.3,0,0.4c-0.2,0-0.5,0-0.7,0c0-0.1,0-0.2,0-0.3c0,0,0,0-0.1,0c0-0.2,0-0.4,0-0.6    c0.1,0,0.1,0.1,0.3,0.1c0-0.2,0-0.5,0-0.7c0.1,0,0.1,0,0.2,0c0-0.3,0-0.6,0-0.9c0.1,0,0.2,0,0.3,0c0-0.1,0-0.2,0-0.3    c0.6,0,1.1,0,1.7,0c0-0.3,0.1-0.4,0.1-0.6h-0.1c0-0.1,0-0.1,0-0.2c0,0,0,0,0.1,0c0,0,0,0,0-0.1c0,0,0,0-0.1,0c0-0.2,0-0.4,0-0.6    c-0.6,0-1.1,0.1-1.6,0V4.4c-0.2,0-0.2,0-0.3-0.1c0-0.1,0-0.3,0-0.4c0.1,0,0.2,0,0.3,0c0-0.3,0-0.6,0-0.9C22,3,22,3,21.9,3v0.1    c-0.2,0-0.5,0-0.7,0V3c-0.1,0-0.1,0-0.2,0c0,0.3,0,0.7,0.1,0.9h0.1c0,0,0,0,0,0.1c-0.2,0-0.3,0-0.5,0v0.1c0.2,0,0.3,0,0.5,0    c0,0.2,0,0.5,0.1,0.6c0,0,0,0,0,0.1c-0.1,0-0.1,0-0.2,0V4.7c0,0,0,0-0.1,0c0,0.6,0,1.1,0,1.7c0.1,0,0.2,0,0.3,0    c0,0.1,0,0.3-0.1,0.4c-0.2,0-0.5,0-0.7,0c-0.1,0.1-0.1,0.1-0.2,0.1c0,0,0,0,0,0.1h-0.1c0,0.1-0.1,0.1-0.1,0.2    c-0.2,0.2-0.4,0.2-0.4,0.5c0,0,0,0-0.1,0c0,0.1,0,0.1,0,0.2c-0.2-0.1-0.4-0.1-0.6-0.2c0-0.1,0-0.3,0-0.4c-0.4,0-0.5,0-0.7,0.1V7.3    c-0.2,0-0.3,0-0.4,0.1c0,0.1,0,0.2,0,0.3c-0.2,0-0.4,0-0.6,0c0,0.1-0.1,0.1-0.1,0.2c-0.1,0-0.3,0-0.4-0.1c0,0,0,0-0.1,0    c0,0,0,0,0,0.1c-0.2,0-0.5,0-0.6-0.1c-0.3,0-0.2,0-0.4,0.1c0,0.1,0,0.2,0,0.3c0,0,0,0,0.1,0c0,0,0,0,0,0.1c0.1,0,0.1,0,0.2,0    c0,0.1,0,0.1,0.1,0.2c-0.1,0-0.1,0-0.2,0.1v0.1c-0.2,0-0.5,0.1-0.8,0.1c0,0.1,0,0.2,0,0.3c0,0,0,0-0.1,0c0,0,0,0,0,0.1    c-0.1,0-0.1,0-0.2,0c0,0,0,0,0,0.1c-0.1,0-0.2-0.1-0.3-0.2c-0.1-0.1-0.1-0.4-0.1-0.6c0-0.4,0-0.8-0.1-1.1h-0.1c0,0.6,0,1.2,0,1.8    c-0.4,0-1.5-0.1-1.7,0.1c-0.2,0-0.1,0-0.2,0.2c-0.1,0-0.2,0-0.3,0c0,0.2,0,0.3,0,0.5c0.1,0,0.2,0,0.3,0c0,0.5,0.1,1.1,0.3,1.3    c0,0.1-0.1,0.3-0.1,0.3s-0.1-0.2-0.3,0.1s-0.3,0.5-0.3,0.7c-0.1,0-0.2,0-0.3,0c0,0,0,0,0,0.1c0,0,0,0-0.1,0v-0.1c0,0,0,0-0.1,0    c0,0.2-0.1,0.2-0.1,0.4c0.1,0,0.2,0,0.3,0.1c0,0.2,0,0.4,0.1,0.6c0,0,0,0,0.1,0c0,0.1,0,0.2,0,0.3c0,0,0.1,0.6,0.7,0.8    c0.8,0.2,3.4,0.8,3.4,0.8c0.3,0.1,0.6,0.2,0.9,0.3c0,0,0,0,0,0.1c-0.1,0-0.3,0-0.4,0c-0.2-0.1-1.4,0-1.7-0.1c0,0,0,0,0-0.1    c-0.1,0-0.3,0-0.4,0c0,0,0,0,0-0.1c-0.5-0.1-0.9,0.3-1.5,0.1c-0.1,0-0.3-0.2-0.5-0.1c0,0,0,0,0,0.1h-0.1c0,0,0,0,0,0.1    c-0.3,0-0.5,0-0.8,0c0,0,0,0,0-0.1c-0.3,0-0.6,0-0.9-0.1c0,0,0,0,0,0.1h-0.1c0,0,0,0,0,0.1c-0.5,0-0.9,0-1.4,0v-0.1    c-0.1-0.1-0.1,0.1-0.1,0.1c-0.1,0-0.2,0-0.3,0c0-0.1,0-0.1-0.1-0.1c0,0,0,0,0-0.1c-0.1,0-0.2,0.1-0.3,0.1c0,0.1,0,0.1-0.1,0.1    c-0.1,0.1-0.4,0.1-0.5,0.1c0-0.1,0-0.1-0.1-0.1v-0.1c-0.1,0.1-0.4,0.1-0.5,0.1c0,0.1,0,0.2,0.1,0.3c-0.2-0.1-0.6-0.1-0.8,0.1    c0,0,0,0.1-0.1,0.1s-0.2,0-0.3,0c0,0,0,0,0,0.1c-0.1,0-0.2,0-0.3,0c0,0,0,0,0,0.1c-0.1,0-0.2,0-0.3,0c0,0,0,0,0,0.1    c-0.2,0-0.3,0-0.4-0.1c0,0,0,0,0-0.1c-0.2,0-0.5,0-0.7,0c-0.4,0.1-0.9,0.2-1.4,0.2v-0.1c-0.1,0-0.1,0-0.2,0c0,0.1,0,0.1,0,0.2    c-0.6-0.1-1.3,0-2.1,0.1c0,0.1,0,0.1,0,0.2c0,0-0.2,0-0.1,0.1h0.1v0.1c0.3,0,0.6,0,0.9-0.1c-0.1,0.1-0.3,0.1-0.5,0.1    c0,0.1,0,0.1-0.1,0.2c-0.4,0.1-0.5,0.4-0.4,0.9c0,0,0,0,0.1,0l0.8,3c0.3,0.1,0.3,0.1,0.6,0.1v0.1c0.1,0,0.3,0,0.4,0c0,0,0,0,0,0.1    c-0.1,0-0.1,0-0.2,0.1c0,0.2-0.1,0.3-0.1,0.5c0.1,0.3,0.1,0.3,0.3,0.5c0.3,0,0.4,0,0.5-0.1c0.3,0.1,0.3,0.3,0.4,0.4    c1,1.2,5.5,3,5.5,3c0.6,0.2,2.1,0.1,2.9,0.1c1.9,0,3.8,0,5.7,0c6.4,0,12.7,0,19.1,0c1,0,2.3,0.1,3.1-0.1c0.1,0,0.5-0.2,0.6-0.2    c1.6-0.8,4-1.9,4.5-2.2c0.6-0.4,0.9-0.6,0.9-1.2s-0.2-1.6-0.9-2c0,0,0,0,0-0.1c0.1,0,0.1,0,0.2,0c0,0,0-0.1,0.1-0.1    c0.2-0.2,0.4-0.3,0.6-0.5c0-0.1,0-0.1,0-0.2l-1.3-0.6c0,0-0.2-0.2-0.4-0.3c0-0.4,0-0.8,0-1.1c-0.1,0-0.2,0-0.3,0    c0,0.3,0,0.5,0,0.8c-0.1,0-0.2,0-0.3,0c0,0,0,0,0,0.1c-0.2,0-0.2,0-0.3-0.1c0-0.1,0-0.3,0-0.4c0.1,0,0.3,0,0.4,0v-0.1    c-0.1,0-0.3,0-0.4,0v-0.1c-0.2,0-0.2,0.1-0.4,0.1c0,0.1,0,0.2,0,0.3c-0.1,0-0.2,0-0.3,0v-0.1c-0.1,0-0.1,0-0.2,0c0,0,0,0,0-0.1    c-0.1-0.1-0.3-0.2-0.4-0.3c0-0.1,0-0.3,0-0.4c0,0,0,0-0.1,0c0-0.1,0-0.1-0.1-0.2c-0.1,0-0.1,0-0.3-0.1c0,0,0,0,0-0.1    c-0.1,0-0.3,0-0.4,0.1c0,0,0-0.1-0.1-0.1h-0.1c0,0,0-0.1-0.1-0.1c-0.1-0.1-0.2-0.1-0.3-0.2v-0.1c-0.1-0.1-0.2-0.3-0.3-0.4    c-0.1,0-0.3,0-0.4,0c0-0.1,0-0.3,0-0.4c0,0,0,0-0.1,0c0,0,0,0,0,0.1c0,0-0.2,0-0.1,0.1c0,0,0,0,0.1,0c0,0,0,0,0,0.1    c0,0-0.1,0-0.1-0.1c0,0,0,0.1-0.1,0.1c0,0,0,0,0.1,0c0,0,0,0,0,0.1c-0.1-0.1-0.1-0.1-0.1-0.3c-0.2,0-0.5,0-0.7-0.1c0,0,0,0,0,0.1    c-0.1,0-0.2,0-0.3,0c0,0,0,0.1-0.1,0.1c-0.5,0-1,0-1.5,0c0-0.1,0-0.2,0-0.3c-0.1,0-0.2,0-0.3,0c0,0.1,0,0.2,0,0.3    c-0.1,0-0.2,0-0.3,0c0-0.1,0-0.2,0-0.3c0,0,0,0-0.1,0c0,0.1-0.1,0.1-0.1,0.3c-0.4,0-0.7,0-1.1,0c0-0.5,0.3-0.9,0.5-1.3    c0.6,0,1.5,0,2.3,0c0.3,0,0.7,0,1,0c0,0,0.7-0.4,0.8-0.7c3.5,0,7,0,10.5-0.1c0,0.1,0,0.1,0,0.2c1.5,0,3,0,4.5,0v-0.2    c0.7,0,0.9,0,1.5,0.1c0.2,0,0.9,0,1.1-0.2C57.6,13.3,57.5,13.3,57.5,13z M21.9,5.2c0.1,0,0.1,0,0.2,0c0,0.4,0,0.9-0.1,1.2    c-0.1,0-0.2,0-0.3,0C21.9,6,22,5.7,21.9,5.2z M11.5,12.5c0.1,0,0.1,0,0.1,0.1C11.5,12.5,11.6,12.6,11.5,12.5z M2.9,22.2    c-0.1,0-0.2,0-0.3,0c0,0-0.1,0-0.1-0.1c0-0.2,0-0.2,0.1-0.2s0.1-0.1,0.2,0C2.9,21.9,2.9,22,3,22C2.9,22,2.9,22.1,2.9,22.2z     M18.3,7.7c-0.1,0-0.2,0-0.3,0c0-0.1,0-0.1,0-0.2c0.1,0,0.2,0,0.3,0C18.3,7.5,18.3,7.6,18.3,7.7z M21.5,7.8L21.5,7.8    c-0.1-0.1-0.1-0.3-0.1-0.4c0,0,0,0,0.1,0C21.5,7.5,21.5,7.7,21.5,7.8z M21.3,3.8c0-0.1,0-0.3,0-0.4c0,0,0,0,0.1,0    C21.4,3.5,21.4,3.7,21.3,3.8C21.4,3.8,21.3,3.8,21.3,3.8z M21.2,6.4c0-0.4,0-0.9,0-1.3c0.1,0,0.1,0,0.1,0.1c0,0,0,0,0.1,0    c0,0.1,0,0.3,0,0.4c0,0.3,0,0.6,0.1,0.9C21.4,6.4,21.3,6.4,21.2,6.4z M21.3,8.9L21.3,8.9L21.3,8.9c-0.1,0-0.1-0.1-0.1-0.2    c-0.3,0-0.6,0-0.8-0.1c0,0,0,0,0-0.1c-0.1-0.1-0.2-0.1-0.3-0.2c0.1-0.5,0.5-1,0.9-1.1c0,0,0,0,0-0.1c0.1,0,0.2,0,0.3,0    C21.4,7.5,21.5,8.7,21.3,8.9z M27,8.8c-0.1,0-0.1,0.1-0.1,0.1c-0.1,0.1-0.3,0-0.1,0.1c0,0,0,0,0,0.1c0,0-0.1,0-0.1-0.1    c0,0,0,0,0,0.1c0,0,0,0-0.1,0c0-0.2,0-0.3,0.1-0.4C26.7,8.7,26.9,8.7,27,8.8C27,8.7,27,8.8,27,8.8z M27.1,9.2c0-0.1,0-0.3,0-0.4    c0,0,0,0,0.1,0c0,0.1,0.1,0.2,0.1,0.4C27.1,9.2,27.1,9.2,27.1,9.2z M32.4,10.6c-0.1,0-0.3,0-0.4-0.1v-0.1c0,0,0,0-0.1,0    c0,0,0.1-0.1,0.1-0.3c0.1,0,0.1,0,0.2-0.1c0.1-0.1,0,0,0.1-0.1c0.1,0.1,0.1,0.1,0.2,0.1C32.6,10.5,32.5,10.4,32.4,10.6z     M41.4,16.9L41.4,16.9c0.1,0,0.1,0.1,0.1,0.1s0,0-0.1,0c0-0.1-0.1-0.1-0.1-0.2C41.4,16.9,41.3,16.9,41.4,16.9z"/>
	</g>
</g>
<g>
	<g>
		<path class="st2" d="M71.6,10.6c-0.1-0.1-0.2-0.3-0.3-0.4H71V9.9c-0.4,0.1-0.3,0.3-0.5,0.4h-0.4c-0.5,0.1-1,0.2-1.7,0.2v0.2    c-0.2,0-0.4,0-0.6-0.1v-0.1H64c-0.8,0-1.9-0.1-2.4,0.1c-2.6,0-7.7,0-7.7,0h-2.5l-2.7-0.1c0,0-6.4,0-9.6,0h-2.3    c-0.4,0-0.7,0.1-0.9-0.2c-0.1-0.2,0.1,0,0.1-0.2h-0.1V9.9c-0.4,0-0.7,0-1.1-0.1c0,0,0-0.1-0.1-0.1c-0.2-0.1-0.3-0.2-0.6-0.3V8.8    c-0.3-0.3-0.3-0.4-0.9-0.4c-0.1,0.1-0.2,0.3-0.3,0.3l-0.1,0.1c-0.1-0.1,0-0.2-0.2-0.3h-0.5c-0.1,0-0.4-0.1-0.5-0.1    c-0.5,0-1-0.1-1.4-0.1c-1.3-0.4-2.8-0.4-4.1-0.8c-0.3,0-0.6,0-0.9-0.1c-1.2-0.3-2.6-0.5-3.8-0.8c-0.3,0-0.6,0-0.9-0.1    c-0.6-0.2-1.4-0.3-2.1-0.3c0-0.3-0.1-0.2-0.3-0.4c-0.1-0.1,0.4-1,0.4-1.4c0.4,0.1,1.1,0.5,1.1,0.5l1,0.5l0.8,0.5l0.1-0.1l-0.8-0.5    l-1.1-0.6c0,0-0.6-0.4-1-0.5c-0.1-0.1-0.1,0-0.1-0.1c-0.2-0.1-0.3,0-0.4,0c-0.2-0.1-0.8-0.6-0.8-0.6l-0.8-0.3c0,0,0.1-0.2,0-0.3    c0-0.1-0.4-0.2-0.5-0.3V2.2c-0.2,0-0.3,0.2-0.4,0.1c-0.1,0-0.2-0.2-0.3-0.2S15.1,2.1,15,2c-0.3-0.1-0.7-0.4-1-0.6    c-0.2-0.1-0.5-0.1-0.6-0.3c-0.1-0.1,0-0.2-0.1-0.3c-0.2-0.1-0.4,0.1-0.6,0c-0.2,0-0.3-0.4-0.5-0.2h-0.1v0.1    c-0.3,0.1-0.5,0.5-0.5,0.8c0.2,0,1.1,0.5,1.3,0.7c0.1,0.1-0.1,0.1,0,0.2h0.4c0.3,0.1,0.6,0.3,0.9,0.3V3c0.1,0,0.1,0,0.2-0.1h0.1    c-0.1,0.2-0.2,0.4-0.3,0.6c0.3,0.1,0.7,0.3,0.9,0.5h0.1v0.1H14c-0.2,0.2-0.3,0.2-0.4,0.5c-0.1,0.1-0.1,0.3-0.1,0.6    c-0.5,0-0.4-0.2-0.7-0.3h-0.6c-0.6,0-1.4,0-1.7-0.4c-0.2,0-0.4,0-0.6-0.1c-0.2,0.1,0,0.3-0.3,0.1C9.5,4.6,9.4,4.8,9.4,5    c0.2,0.1,0.3,0.3,0.5,0.4v0.1c-0.1,0-0.3,0-0.4,0.1C9.3,5.8,9.2,6,9.2,6.2H9.1V6.1c-0.5-0.3,0-1.2-0.3-1.7V4H8.6    c0,0.6,0,1.1-0.1,1.7c0,0.2-0.2,0.3-0.2,0.6c-0.7,0-1.3,0-1.6-0.5H5.4v0.1C5.3,6.1,5.3,6.2,5.2,6.3H5.1c0.1,0.2,0,0.3-0.2,0.4    C4.9,7,5,7,5,7.1l0,0v0.1l0,0c0.1,0.3,0.1,1.1,0.1,1.9C5.1,9.4,5.2,9.8,5,10v0.1h2.5c0-0.2,0-0.4,0.1-0.6h0.2    c-0.1,0.2,0,0.4,0,0.6l-0.2,0.2v0.3c0,0-0.1,0-0.1,0.1c0.1,0.2,0.2,0.1,0.3,0.3c0.1,0.2,0,0.3,0.2,0.4v0.1    c0.3-0.1,0.1-0.4,0.1-0.6l0.1-0.1c0.2,0.2,0.2,0.5,0.4,0.6c0.5,0.4,1.3,0.6,1.9,0.8h0.6c0.7,0.2,1.6,0.1,2.3,0.3h0.9    c0.7,0.2,1.7,0.1,2.5,0.3s1.8,0.3,2.5,0.6c0.3,0,0.6,0.1,0.9,0.1c0.3,0.1,0.6,0.3,0.9,0.4c-0.2,0.4-0.5,0.7-0.8,1    c-0.5,0-1.6-0.2-2.1-0.1c-0.6,0.2-0.7,0.5-1.4,0.3c-0.4-0.1-0.5,0.1-0.7-0.1c-0.4,0-0.7-0.1-0.6,0.3c-0.2,0-0.6-0.2-0.9-0.1    c0,0-0.2,0.3-0.5,0.1c0-0.1-0.1-0.1-0.1-0.2c-0.1-0.1-0.4-0.2-0.5-0.2c-0.6-0.2-1.8,0.2-2.3,0.3c-0.4,0.1-0.8-0.1-1,0.1    c0,0.1,0,0.1,0,0.3c-0.2,0-0.5,0-0.6,0.1c-0.4-0.1-0.2-0.2-0.3-0.4c-0.1-0.1-0.5,0-0.6-0.1H8.6V15c-0.4,0-0.8,0-1.1,0.1    c0,0.1,0,0.1,0.1,0.2c-0.1,0.1-0.5,0.2-0.6,0.3V16c-0.3,0-0.9-0.2-1.1,0c-0.1-0.1-0.1-0.3-0.1-0.3H5.3V16c-0.3,0-0.6,0-1,0.1    c-0.1,0-0.1,0-0.2-0.1c0,0-0.2,0.3-0.4,0.1C3.6,16,3.8,16,3.4,15.9v0.2c-0.4,0-1.4,0.2-1.5,0c-0.6,0-0.8,0.2-1.2,0.3    c-0.1,0.7,0,1.9,0.1,2.6c0.2,0.4,0,0.7,0.2,0.9c0,0.4,0.1,0.5,0.2,0.8c0.1,0,0.3,0,0.4,0.1c0,0.5-0.1,1,0.1,1.4    c0.5,1.3,2.5,1.9,3.7,2.4c0.2,0.1,0.5,0.3,0.7,0.4c0.5,0.2,1.1,0.5,1.7,0.6c0.6,0.2,1.5,0.1,2.3,0.1h25.2c0.5-0.2,1-0.3,1.4-0.5    c1.1-0.5,2.3-1.1,3.4-1.7c0.6-0.3,1.3-0.5,1.7-1.1c0.3-0.5,0.5-1.5,0.2-2.1c-0.2-0.4-0.5-0.6-0.8-0.9H41v-0.1    c0.3,0,0.2,0.1,0.4,0.2c0.1-0.1,0.2-0.3,0.3-0.3V19c-0.2-0.1-0.4-0.4-0.6-0.5c-0.5-0.3-1.3-0.4-2.2-0.3v-1.1h-0.3    c0,0.1,0,0.1,0.1,0.1v0.9h-0.1v-1c-0.1,0-0.1,0-0.1,0.1c-0.4,0-0.5,0.4-0.4,0.7c-0.6-0.1-0.9-0.6-1.2-1.1c-0.1,0-0.2-0.1-0.3-0.1    c-0.1,0.1-0.4,0.2-0.6,0.1c-0.1,0-0.2-0.2-0.3-0.2c-0.5-0.2-1.6-0.8-2.1-0.8c0-0.1,0-0.3-0.1-0.4c-0.1,0.1-0.1,0-0.1-0.1h-0.3v0.3    c-0.5,0-1.7-0.7-2.3-0.2c-0.1-0.1-0.2-0.2-0.2-0.3h-0.2v0.5h-0.2c0-0.1,0-0.3,0.1-0.4c-0.2-0.1-0.8-0.3-1-0.1    c-1.4,0-0.9-0.1-1.6-0.8v-0.1c0.5-0.1,1.1-0.3,1.6-0.5c0.5-0.1,1-0.1,1.4-0.2c0.8-0.1,1.7-0.1,2.5-0.2c0.9-0.2,1.6-0.6,2.7-0.6    c0.1-0.1,0-0.1,0.2-0.2c-0.1-0.2,0-0.1-0.1-0.1c0.1-0.2,0.1-0.1,0.1-0.3c8.5,0,17.1-0.1,25.6-0.1c0,0.1,0,0.1,0.1,0.2H68V12h0.6    v0.2c0.7,0,1.3,0,1.8,0.2h0.3c0.2,0.1,0,0.3,0.4,0.3v-0.2c0.4,0,0.5-0.4,0.8-0.6v-1.2C71.8,10.6,71.7,10.6,71.6,10.6z M7.9,9.3    H7.7c0-0.1,0-0.3,0.1-0.4H8C8,9,7.9,9.1,7.9,9.3z M8.2,8.5L8.2,8.5L8.2,8.5L7.8,8.6c0-0.3,0.1-0.5,0.1-0.8h0.4    C8.3,8,8.2,8.2,8.2,8.5z M8.5,7.5H8.1c0-0.1,0-0.3,0.1-0.4h0.4C8.5,7.3,8.5,7.4,8.5,7.5z M8.2,6.8V6.6c0.2,0.1,0.2,0.1,0.3,0.1    C8.5,6.8,8.4,6.8,8.2,6.8z M10.2,4.7H10V4.6C10.1,4.6,10.1,4.6,10.2,4.7L10.2,4.7z M17.6,6.2L17.6,6.2C17.6,6.2,17.6,6.1,17.6,6.2    L17.6,6.2z M18,5.7c-0.1,0.3-0.2,0-0.4,0.3h-0.1V5.5c0.3,0,0.2,0.1,0.3-0.1H18C18.1,5.5,18.1,5.6,18,5.7z M17.6,5.3    c0.1,0,0.1,0,0.1,0.1C17.6,5.4,17.7,5.4,17.6,5.3z M17,5.3c-0.1,0-0.1,0.1-0.2,0.1c-0.1,0.3-0.1,0.4-0.1,0.8    c-0.6,0-0.6-0.1-0.6-0.6C15.9,5.7,16,5.7,16,6c-0.1-0.1,0-0.1-0.1-0.2h-0.2v0.3h-0.2V5.9c-0.2,0-0.1,0-0.1,0.1    c-0.1-0.1-0.1-0.3,0-0.5h-0.1V6h-0.8c-0.1-0.2-0.4-0.4-0.6-0.4c0-0.2,0-0.2,0.1-0.3c0-0.4,0-0.6,0.1-0.8c0.7,0,1.4,0,2.1,0.1    c0-0.2,0.1-0.3,0-0.5c0.2-0.1,0.3,0,0.3-0.3c0.1-0.2-0.1-0.1,0-0.3v0c0.6,0.3,1.3,0.6,1.9,0.8c-0.1,0.1-0.2,0.2-0.1,0.4    c0,0,0.1,0.1,0.1,0.3c0,0.1-0.1,0.1-0.1,0.3C17.7,5.2,17.3,5,17,5.3z"/>
	</g>
</g>
</svg>